<?xml version="1.0" encoding="utf-8"?>
<!-- Generator: Adobe Illustrator 16.0.0, SVG Export Plug-In . SVG Version: 6.00 Build 0)  -->
<!DOCTYPE svg PUBLIC "-//W3C//DTD SVG 1.1//EN" "http://www.w3.org/Graphics/SVG/1.1/DTD/svg11.dtd">
<svg version="1.1" id="Layer_1" xmlns="http://www.w3.org/2000/svg" xmlns:xlink="http://www.w3.org/1999/xlink" x="0px" y="0px"
	 width="1000px" height="200.4px" viewBox="0 0 1000 200.4" enable-background="new 0 0 1000 200.4" xml:space="preserve">
<g id="Layer_1_1_">
	<g>
		<polygon fill="#FFFFFF" points="130.297,1.019 0,200.982 80.825,200.982 159.003,78.124 196.769,137.157 136.139,137.157 
			94.128,200.435 318.006,200.435 186.135,1.019 		"/>
		<polygon fill="#EC1F31" points="550.418,1.019 420.121,200.982 500.946,200.982 579.125,78.124 616.891,137.157 556.26,137.157 
			514.25,200.435 738.128,200.435 606.257,1.019 		"/>
		<polygon fill="#FFFFFF" points="447.253,0.585 369.075,124.903 289.3,0.585 209.524,0.585 340.346,200.982 395.659,200.982 
			527.554,0.585 		"/>
		<polygon fill="#FFFFFF" points="958.537,136.633 819.204,136.633 906.943,54.734 871.848,1.019 632.269,1.019 674.417,64.707 
			817.059,64.844 728.247,145.669 764.553,200.982 1000,200.982 		"/>
	</g>
</g>
<g id="Layer_3">
	<g>
		<polygon fill="#FFFFFF" points="130.297,1.019 0,200.982 80.825,200.982 159.003,78.124 196.769,137.157 136.139,137.157 
			94.128,200.435 318.006,200.435 186.135,1.019 		"/>
		<polygon fill="#FFFFFF" points="550.418,1.019 420.121,200.982 500.946,200.982 579.125,78.124 616.891,137.157 556.26,137.157 
			514.25,200.435 738.128,200.435 606.257,1.019 		"/>
		<polygon fill="#FFFFFF" points="447.253,1.019 369.075,124.401 289.3,1.019 209.524,1.019 340.346,199.91 395.659,199.91 
			527.554,1.019 		"/>
		<polygon fill="#FFFFFF" points="958.537,136.633 819.204,136.633 906.943,54.734 871.848,1.019 632.269,1.019 674.417,64.707 
			817.059,64.844 728.247,145.669 764.553,200.982 1000,200.982 		"/>
	</g>
</g>
<g id="Layer_4">
	<polygon fill="#FFFFFF" points="447.253,1.019 369.075,124.401 289.3,1.019 209.524,1.019 340.346,199.91 395.659,199.91 
		527.554,1.019 	"/>
</g>
<g id="Layer_5">
	<polygon fill="#EC1F31" points="550.418,1.019 420.121,200.982 500.946,200.982 579.125,78.124 616.891,137.157 556.26,137.157 
		514.25,200.435 738.128,200.435 606.257,1.019 	"/>
</g>
<g id="Layer_6">
	<polygon fill="#FFFFFF" points="958.537,136.633 819.204,136.633 906.943,54.734 871.848,1.019 632.269,1.019 674.417,64.707 
		817.059,64.844 728.247,145.669 764.553,200.982 1000,200.982 	"/>
</g>
</svg>
