<?xml version="1.0" encoding="utf-8"?>
<!-- Generator: Adobe Illustrator 23.0.2, SVG Export Plug-In . SVG Version: 6.00 Build 0)  -->
<svg version="1.1" id="Layer_1" xmlns="http://www.w3.org/2000/svg" xmlns:xlink="http://www.w3.org/1999/xlink" x="0px" y="0px"
	 viewBox="0 0 200 49.39" style="enable-background:new 0 0 200 49.39;" xml:space="preserve">
<style type="text/css">
	.st0{fill-rule:evenodd;clip-rule:evenodd;fill:#FFFFFF;}
	.st1{fill:#FFFFFF;}
	.st2{fill:#F9F9F9;}
</style>
<g>
	<path class="st0" d="M154.12,7.71l-6.9,0.04l-0.69,3.29c2.3-0.01,4.6-0.02,6.9-0.03L154.12,7.71z M186.3,7.72l-6.06,0l-2.11,9.85
		l6.06,0L186.3,7.72z M121,7.73h-6.9l-0.72,3.35h6.9L121,7.73z M87.74,7.7l-6.06,0l-2.11,9.85l6.06,0L87.74,7.7z M155.33,6.73
		l-8.9,0.05l-1.11,5.25c2.97-0.01,5.94-0.03,8.91-0.04L155.33,6.73z M187.51,6.74l-8.07,0l-2.53,11.8l8.06,0L187.51,6.74z
		 M122.21,6.75l-8.9,0l-1.14,5.31h8.9L122.21,6.75z M88.95,6.72l-8.07,0l-2.53,11.8l8.06,0L88.95,6.72z M69.75,5.83L58.57,22.27
		c-0.82,1.2-2.48,1.78-3.88,1.78l-9.39,0c-0.34,0-0.68-0.03-1.01-0.1c-1.02-0.21-2.06-0.82-2.32-1.89L38.07,6.46l-1.25-1.92
		c-0.26,0.68-0.83,1.21-1.45,1.58c-0.81,0.47-1.77,0.71-2.7,0.71L18.68,6.84l-0.58,2.7c-0.03,0.12,0.34,0.23,0.41,0.24
		c0.1,0.02,0.2,0.03,0.31,0.03l13.1-0.01l-0.64,3c-0.18,0.85-0.83,1.5-1.56,1.93c-0.81,0.47-1.77,0.71-2.7,0.71l-10.19,0.01
		l-0.58,2.7c-0.03,0.12,0.34,0.23,0.41,0.24c0.1,0.02,0.2,0.03,0.31,0.03l16.91-0.01l-0.64,3c-0.18,0.85-0.83,1.5-1.56,1.93
		c-0.81,0.47-1.77,0.71-2.7,0.71L8.14,24.07c-0.34,0-0.68-0.03-1.02-0.1c-0.99-0.2-2-0.78-2.3-1.8c-0.1-0.33-0.11-0.67-0.03-1.01
		L7.97,6.34L4.63,1.22l1.21,0C16.14,1.21,26.46,1.2,36.77,1.19l0.8,0l0,0.01c2.82,0,5.64,0,8.45,0c0.19,0,0.38,0.02,0.57,0.06
		c0.63,0.13,1.25,0.52,1.41,1.19l3.45,13.9l9.08-13.36c0.82-1.2,2.49-1.78,3.89-1.78h0.8l0,0h2.66h0.06
		c9.71-0.01,19.42-0.01,29.13-0.02c0.34,0,0.68,0.03,1.01,0.1c0.56,0.12,1.14,0.36,1.58,0.73l-0.52-0.79h1.21
		c9.99,0,19.98,0,29.98,0c0.34,0,0.68,0.03,1.01,0.1c0.45,0.09,0.91,0.27,1.3,0.52l-0.39-0.59l1.21-0.01
		c9.99-0.05,19.98-0.1,29.97-0.15c0.34,0,0.68,0.03,1.02,0.1c0.38,0.08,0.75,0.21,1.08,0.39l-0.24-0.36l1.2,0
		c9.71-0.01,19.42-0.01,29.13-0.02c0.34,0,0.68,0.03,1.01,0.1c0.99,0.21,2,0.78,2.3,1.81c0.09,0.33,0.1,0.67,0.03,1l-3.72,17.3
		c-0.18,0.85-0.83,1.5-1.56,1.93c-0.81,0.47-1.77,0.71-2.7,0.71l-22.2,0.01c-0.34,0-0.68-0.03-1.02-0.1c-0.98-0.2-2-0.78-2.3-1.81
		c-0.1-0.33-0.1-0.67-0.03-1.01l3.18-14.82l-1.8-2.76c0,0.15-0.02,0.3-0.05,0.46l-2.27,10.81c-0.18,0.85-0.83,1.51-1.55,1.94
		c-0.8,0.47-1.77,0.72-2.7,0.72L159,17.53l4.41,6.53l-8.98,0.04c-0.34,0-0.68-0.03-1.02-0.1c-0.78-0.16-1.58-0.54-2.04-1.22
		l-3.04-4.51c-0.26-0.38-0.79-0.59-1.22-0.67c-0.24-0.05-0.5-0.07-0.75-0.07l-2.21,0.01l-1.04,4.93c-0.22,1.05-1.47,1.59-2.44,1.59
		l-8.8,0.04l3.74-17.75l-1.91-2.89c0.03,0.23,0.01,0.45-0.03,0.68l-2.33,10.8c-0.18,0.85-0.83,1.5-1.56,1.93
		c-0.8,0.47-1.77,0.71-2.7,0.71l-16.12,0l-0.83,3.86c-0.18,0.85-0.83,1.5-1.56,1.93c-0.81,0.47-1.77,0.71-2.71,0.71l-7.21,0
		l3.82-17.73l-2.09-3.21c0.08,0.31,0.09,0.64,0.02,0.96L96.7,21.4c-0.18,0.85-0.83,1.5-1.56,1.93c-0.81,0.47-1.77,0.71-2.7,0.71
		l-22.2,0.01c-0.34,0-0.68-0.03-1.02-0.1c-0.99-0.21-2-0.78-2.3-1.81c-0.1-0.33-0.11-0.67-0.03-1.01l3.18-14.82L69.75,5.83z
		 M68.37,9.6l-8.99,13.23c-1,1.48-2.96,2.21-4.69,2.21l-9.39,0c-0.41,0-0.81-0.04-1.21-0.12c-1.4-0.29-2.71-1.16-3.07-2.61
		L37.16,6.85l-0.38-0.58c-0.28,0.26-0.59,0.49-0.92,0.69c-0.96,0.56-2.09,0.85-3.2,0.85l-13.2,0.01l-0.22,1.02l13.88-0.01l-0.9,4.18
		c-0.24,1.12-1.05,2-2.02,2.57c-0.96,0.56-2.09,0.85-3.2,0.85l-9.4,0.01l-0.22,1.01l17.69-0.01l-0.9,4.18
		c-0.24,1.12-1.05,2-2.02,2.57c-0.96,0.56-2.09,0.85-3.2,0.85L8.14,25.04c-0.41,0-0.82-0.04-1.21-0.12
		c-1.35-0.28-2.63-1.1-3.04-2.49c-0.14-0.49-0.16-1-0.05-1.49l3.1-14.42L2.82,0.24l3.01,0c10.31-0.01,20.62-0.02,30.93-0.02l2.01,0
		l0,0.01c2.42,0,4.83,0,7.25,0c0.26,0,0.52,0.03,0.77,0.08c1.01,0.21,1.9,0.87,2.16,1.91l2.92,11.77l7.85-11.55
		c1-1.48,2.96-2.21,4.7-2.21l2,0l0,0h1.45h0.06c9.71,0,19.42-0.01,29.13-0.02c0.24,0,0.47,0.01,0.71,0.04l2.58,0
		c9.99,0,19.98,0,29.98,0c0.23,0,0.46,0.01,0.68,0.04l2.44-0.01c9.99-0.05,19.98-0.1,29.97-0.15c0.41,0,0.82,0.03,1.21,0.12
		c0.01,0,0.03,0.01,0.04,0.01l1.82,0c9.71-0.01,19.42-0.01,29.13-0.02c0.41,0,0.81,0.04,1.21,0.12c1.35,0.28,2.64,1.11,3.04,2.5
		c0.14,0.48,0.15,0.99,0.05,1.48l-3.72,17.3c-0.24,1.12-1.05,2-2.02,2.57c-0.96,0.56-2.09,0.85-3.2,0.85l-22.2,0.01
		c-0.41,0-0.82-0.04-1.22-0.12c-1.35-0.28-2.63-1.1-3.04-2.49c-0.14-0.48-0.16-1-0.05-1.49l3.1-14.42l-0.25-0.38l-1.87,8.91
		c-0.24,1.13-1.04,2.01-2.01,2.58c-0.8,0.47-1.72,0.75-2.64,0.83l4.43,6.56l-10.82,0.05c-0.41,0-0.82-0.03-1.21-0.12
		c-1.04-0.21-2.05-0.74-2.65-1.63l-3.04-4.51c-0.08-0.12-0.47-0.23-0.6-0.26c-0.18-0.04-0.36-0.05-0.55-0.05l-1.42,0.01l-0.87,4.15
		c-0.32,1.52-1.94,2.36-3.39,2.37l-10.01,0.05l3.9-18.53l-0.32-0.48l-1.96,9.07c-0.24,1.12-1.05,2-2.02,2.57
		c-0.96,0.56-2.09,0.85-3.2,0.85l-15.33,0l-0.66,3.08c-0.24,1.12-1.05,2-2.02,2.57c-0.96,0.56-2.09,0.85-3.2,0.85l-8.42,0
		l3.99-18.52l-0.41-0.64l-3.37,15.7c-0.24,1.12-1.05,2-2.02,2.57c-0.96,0.56-2.09,0.85-3.2,0.85l-22.2,0.01
		c-0.41,0-0.82-0.04-1.22-0.12c-1.35-0.28-2.63-1.1-3.04-2.49c-0.14-0.48-0.16-1-0.05-1.49L68.37,9.6z"/>
	<path class="st1" d="M7.25,23.33C6,23.07,5.22,22.26,5.43,21.29L8.67,6.21L5.83,1.87c11.52-0.01,19.69-0.01,30.94-0.03l0,0.01
		c-0.23,0-0.46,0-0.69,0l0.51,0.79l-0.3,1.41c-0.25,1.18-1.87,2.13-3.62,2.13L18.15,6.19L17.46,9.4c-0.1,0.48,0.29,0.89,0.92,1.02
		c0.13,0.03,0.28,0.04,0.44,0.04l12.3-0.01l-0.47,2.21c-0.26,1.17-1.87,2.13-3.62,2.13L16.3,14.8l-0.69,3.21
		c-0.1,0.48,0.28,0.89,0.91,1.02c0.14,0.03,0.28,0.04,0.44,0.04l16.11-0.01l-0.47,2.21c-0.26,1.17-1.87,2.13-3.62,2.13L8.14,23.41
		C7.82,23.41,7.53,23.38,7.25,23.33"/>
	<path class="st1" d="M89.76,6.06l-9.4,0.01l-2.81,13.11l9.4-0.01L89.76,6.06z M69.35,23.32c-1.25-0.26-2.03-1.07-1.82-2.04
		L70.77,6.2l-2.83-4.34c10.95-0.01,18.09-0.01,29.13-0.02c0.31,0,0.61,0.03,0.88,0.09C99.2,2.19,99.98,3,99.77,3.96l-3.72,17.3
		c-0.25,1.18-1.87,2.13-3.62,2.13l-22.2,0.01C69.92,23.4,69.62,23.37,69.35,23.32z"/>
	<path class="st1" d="M188.32,6.08l-9.4,0.01L176.1,19.2l9.4-0.01L188.32,6.08z M167.91,23.34c-1.25-0.26-2.03-1.07-1.82-2.04
		l3.24-15.08l-2.83-4.34c10.95-0.01,18.09-0.01,29.13-0.02c0.31,0,0.61,0.03,0.88,0.09c1.26,0.26,2.04,1.08,1.83,2.04l-3.72,17.3
		c-0.25,1.18-1.87,2.13-3.62,2.13l-22.2,0.01C168.48,23.42,168.19,23.39,167.91,23.34z"/>
	<path class="st2" d="M123.02,6.1l-10.24,0l-1.42,6.61h10.24L123.02,6.1z M99.47,23.43l3.71-17.21l-2.83-4.34
		c3.14,0,12.15,0,29.98,0c0.31,0,0.61,0.03,0.88,0.09c1.25,0.26,2.03,1.08,1.83,2.04l-2.33,10.8c-0.25,1.18-1.87,2.13-3.62,2.13
		l-16.64,0l-0.94,4.37c-0.25,1.18-1.88,2.13-3.63,2.13L99.47,23.43z"/>
	<path class="st1" d="M156.13,6.07l-10.24,0.05l-1.38,6.56c3.66-0.02,6.06-0.03,10.24-0.05L156.13,6.07z M132.68,23.45l3.63-17.22
		l-2.85-4.32c3.13-0.02,12.14-0.06,29.97-0.15c0.31,0,0.61,0.03,0.88,0.08c1.21,0.25,2.05,1.02,1.83,2.08l-2.27,10.82
		c-0.25,1.18-1.87,2.13-3.62,2.14l-2.48,0.01l4.41,6.53l-7.76,0.04c-0.31,0-0.61-0.03-0.88-0.08c-0.73-0.15-1.31-0.48-1.62-0.95
		l-3.04-4.51c-0.32-0.47-0.91-0.8-1.63-0.95c-0.28-0.06-0.57-0.09-0.88-0.08l-2.74,0.01l-1.15,5.44c-0.12,0.59-0.93,1.07-1.81,1.07
		L132.68,23.45z"/>
	<path class="st1" d="M44.42,23.31c-0.95-0.2-1.65-0.72-1.82-1.41L38.68,6.19l-2.46-3.78l-0.37-0.56c0.17,0,0.33,0,0.48,0
		c4.62,0,4.66,0,9.69,0c0.16,0,0.3,0.02,0.44,0.04c0.48,0.1,0.82,0.36,0.91,0.7l3.8,15.32l9.9-14.57c0.6-0.89,1.96-1.49,3.35-1.49
		l0,0l3.75,0l1.71,2.62L58.03,21.91c-0.6,0.89-1.96,1.49-3.35,1.49l-9.39,0C44.98,23.4,44.69,23.37,44.42,23.31"/>
	<rect x="56.33" y="45.34" class="st0" width="142.34" height="3.93"/>
	<rect y="45.34" class="st0" width="54.76" height="3.93"/>
	<path class="st1" d="M125.04,31.96l-3,3.55l4.48,0L125.04,31.96z M112.91,40.19l8.23-9.41l-1.55-2.37c1.84,0,3.64,0,7.68-0.01
		c0.17,0,0.33,0.02,0.48,0.05c0.46,0.1,0.81,0.33,0.96,0.65l4.94,11.08l-5.18,0l-0.96-2.31l-7.46,0.01l-1.95,2.31L112.91,40.19z"/>
	<path class="st1" d="M134.41,40.13c-0.68-0.14-1.11-0.59-0.99-1.11l1.79-8.24l-1.54-2.37c2.49,0,2.35,0,14.71,0.02
		c0.09,0,0.17,0.01,0.24,0.02c0.34,0.07,0.56,0.29,0.5,0.56l-0.39,1.79l-8.29-0.01l-1.53,7.04l8.29,0.01l-0.39,1.79
		c-0.07,0.32-0.51,0.58-0.99,0.58l-10.92-0.01C134.73,40.18,134.56,40.17,134.41,40.13"/>
	<path class="st1" d="M177.83,40.14c-0.69-0.14-1.12-0.61-0.98-1.23l1.76-8.13l-0.45-0.69l-1.09-1.68c6.56,0,11.05,0,17.66,0
		l-0.39,1.79c-0.07,0.32-0.51,0.58-0.99,0.58h-9.5l-1.5,6.99l5.16,0l0.62-2.89c0.07-0.32,0.51-0.58,0.99-0.58h4.34l-1.02,4.73
		c-0.14,0.64-1.02,1.16-1.98,1.16h-12.13C178.14,40.19,177.98,40.17,177.83,40.14"/>
	<path class="st1" d="M149.83,28.41L149.83,28.41L149.83,28.41L149.83,28.41z M149.35,40.19l2.03-9.41l-1.55-2.37l7.29,0l-2.4,11.14
		c-0.08,0.35-0.49,0.64-0.92,0.64L149.35,40.19z"/>
	<path class="st1" d="M157.27,40.19l2.03-9.41l-1.55-2.37c3.18,0,5.85,0,9.04,0l4.04,7.68l1.4-6.52c0.14-0.64,1.03-1.16,1.98-1.16v0
		l2.71,0l-2.41,11.2c-0.07,0.32-0.51,0.58-0.99,0.58l-5.07,0c-0.17,0-0.33-0.02-0.48-0.05c-0.43-0.09-0.78-0.3-0.93-0.6l-3.68-7.01
		l-1.52,7.08c-0.07,0.32-0.51,0.58-0.99,0.58L157.27,40.19z"/>
	<path class="st1" d="M109.61,30.72l-5.6,0l-0.77,3.58c2,0,3.31,0,5.6,0L109.61,30.72z M96.74,40.15l2.03-9.41l-1.55-2.37
		c1.71,0,6.64,0,16.39,0c0.17,0,0.33,0.02,0.48,0.05c0.66,0.14,1.12,0.56,0.99,1.14l-1.27,5.91c-0.14,0.64-1.03,1.16-1.99,1.16
		l-1.36,0l2.39,3.58l-4.24,0c-0.17,0-0.33-0.02-0.48-0.05c-0.4-0.08-0.72-0.27-0.88-0.52l-1.65-2.47c-0.17-0.26-0.49-0.44-0.89-0.52
		c-0.15-0.03-0.31-0.05-0.48-0.05h-1.5l-0.64,2.97c-0.07,0.32-0.51,0.58-0.99,0.58L96.74,40.15z"/>
</g>
</svg>
