<?xml version="1.0" encoding="utf-8"?>
<!-- Generator: Adobe Illustrator 23.0.2, SVG Export Plug-In . SVG Version: 6.00 Build 0)  -->
<svg version="1.1" id="Layer_1" xmlns="http://www.w3.org/2000/svg" xmlns:xlink="http://www.w3.org/1999/xlink" x="0px" y="0px"
	 viewBox="0 0 150 89.79" style="enable-background:new 0 0 150 89.79;" xml:space="preserve">
<style type="text/css">
	.st0{fill:#FFFFFF;}
</style>
<g>
	<path id="path52234-4" class="st0" d="M75.27,74.1c39.95,0,72.34-16.58,72.34-37.03c0-20.46-32.39-37.05-72.34-37.05
		C35.34,0.02,2.95,16.6,2.95,37.07C2.95,57.52,35.34,74.1,75.27,74.1 M88.89,55.93c-1.21,2.79-3.28,8.77-8.05,11.15
		c-1.45,0.72-3.24,1.05-4.83,1.11c-0.37,0-0.63,0-0.73,0c-13.35,0-25.78-1.86-36.18-5.02c-0.08-0.03-0.32-0.12-0.4-0.15
		c-0.96-0.32-1.45-0.76-1.45-1.31c0-0.47,0.26-0.84,0.6-1.18c0.15-0.14,0.37-0.32,0.66-0.58c2.41-2,9.64-7.24,23.26-12.46
		c4.78-1.82,10.77-4.09,17.03-5.42C82.46,41.3,96.08,39.21,88.89,55.93 M125.43,18.59c0.26-0.44,0.6-0.82,1.22-0.86
		c0.34-0.03,0.79,0.04,1.5,0.49c8.49,5.22,13.53,11.76,13.53,18.83c0,12.77-16.42,23.75-39.9,28.54c-1.5,0.31-2.5,0.29-2.84-0.09
		c-0.24-0.23-0.3-0.64,0-1.15c0.14-0.26,0.31-0.49,0.63-0.87c12.78-15.07,22.52-37.31,25.29-43.72
		C125.07,19.33,125.26,18.88,125.43,18.59 M61.88,18.12c1.21-2.79,3.28-8.77,8.05-11.13c1.45-0.72,3.24-1.07,4.83-1.11
		c0.37-0.01,0.63,0,0.72,0c13.36,0,25.78,1.85,36.19,5.02c0.08,0.03,0.32,0.12,0.4,0.15c0.96,0.32,1.45,0.76,1.45,1.31
		c0,0.47-0.26,0.82-0.6,1.16c-0.15,0.15-0.37,0.34-0.66,0.58c-2.4,2.02-9.64,7.24-23.26,12.46c-4.79,1.83-10.77,4.09-17.01,5.42
		C68.31,32.77,54.68,34.84,61.88,18.12 M48.76,8.52c1.51-0.29,2.5-0.29,2.87,0.09c0.21,0.24,0.27,0.64-0.01,1.15
		c-0.15,0.26-0.32,0.5-0.63,0.86c-12.78,15.09-22.52,37.31-25.3,43.73c-0.2,0.44-0.41,0.89-0.58,1.18c-0.24,0.44-0.6,0.82-1.21,0.86
		c-0.34,0.03-0.81-0.07-1.51-0.49C13.9,50.66,8.86,44.12,8.86,37.05C8.86,24.29,25.28,13.31,48.76,8.52"/>
	<g>
		<path class="st0" d="M8.19,87.6c0,0.71-0.24,1.27-0.72,1.66c-0.42,0.34-0.94,0.51-1.56,0.51H2.28c-0.62,0-1.14-0.17-1.56-0.51
			C0.24,88.87,0,88.32,0,87.6v-4.38c0-0.57,0.12-1,0.36-1.29c0.35-0.43,0.99-0.65,1.92-0.65h3.63c0.93,0,1.57,0.22,1.92,0.65
			c0.24,0.29,0.36,0.72,0.36,1.29V87.6z M5.91,87.09v-3.25c0-0.18-0.05-0.33-0.16-0.45c-0.11-0.12-0.25-0.18-0.43-0.18H2.87
			c-0.18,0-0.33,0.06-0.43,0.18c-0.11,0.12-0.16,0.27-0.16,0.45v3.25c0,0.54,0.22,0.81,0.65,0.81h2.33
			C5.69,87.9,5.91,87.63,5.91,87.09z"/>
		<path class="st0" d="M9.41,83.18V82.1h1v0.85c0,0.46-0.05,0.8-0.16,1c-0.15,0.28-0.38,0.49-0.69,0.63l-0.23-0.37
			c0.19-0.08,0.33-0.2,0.42-0.36s0.14-0.39,0.15-0.68H9.41V83.18z"/>
		<path class="st0" d="M19.72,87.83c0,1.29-0.73,1.94-2.17,1.94h-5.96v-8.49h5.96c1.45,0,2.17,0.65,2.17,1.94v1.19
			c0,0.42-0.08,0.78-0.24,1.07c0.16,0.29,0.24,0.65,0.24,1.08V87.83z M17.44,83.91c0-0.27-0.05-0.45-0.14-0.55
			c-0.1-0.1-0.28-0.14-0.56-0.14h-2.87v1.31h2.87c0.27,0,0.45-0.03,0.53-0.1C17.38,84.35,17.44,84.18,17.44,83.91z M17.44,87.07
			c0-0.28-0.05-0.47-0.15-0.58s-0.28-0.16-0.55-0.16h-2.87v1.5h2.87c0.25,0,0.43-0.06,0.54-0.17
			C17.39,87.54,17.44,87.35,17.44,87.07z"/>
		<path class="st0" d="M29.26,84.6c0,0.42-0.08,0.78-0.24,1.07c-0.4,0.5-1.17,0.79-2.29,0.87l2.24,3.21l-2.63,0.01l-2.24-3.22h-0.7
			v3.22h-2.28v-8.49h5.96c1.45,0,2.17,0.65,2.17,1.94v1.39H29.26z M26.98,84.03v-0.02c0-0.52-0.23-0.79-0.7-0.79H23.4v1.59h2.88
			C26.75,84.81,26.98,84.55,26.98,84.03z"/>
		<path class="st0" d="M32.92,89.77h-2.28v-8.49h2.28V89.77z"/>
		<path class="st0" d="M42.4,89.77h-8.14v-8.49h8.14v1.94h-5.86v1.31h4.37v2.02h-4.37v1.28h5.86V89.77z"/>
		<path class="st0" d="M51.73,89.77h-2.28v-5.73c0-0.31-0.08-0.53-0.24-0.64c-0.16-0.12-0.41-0.18-0.76-0.18h-2.58v6.55h-2.28v-8.49
			h5.86c0.59,0,1.08,0.13,1.47,0.4c0.54,0.37,0.81,0.95,0.81,1.76C51.73,83.44,51.73,89.77,51.73,89.77z"/>
		<path class="st0" d="M60.77,83.22h-5.31c-0.18,0-0.32,0.07-0.43,0.22s-0.16,0.31-0.16,0.5v0.02c0,0.48,0.22,0.72,0.65,0.72h2.97
			c0.93,0,1.57,0.22,1.92,0.65c0.24,0.29,0.36,0.72,0.36,1.29v0.98c0,0.71-0.24,1.27-0.72,1.66c-0.42,0.34-0.94,0.51-1.56,0.51
			h-5.91V87.9h5.26c0.43,0,0.65-0.24,0.65-0.71v-0.02c0-0.41-0.2-0.65-0.59-0.72h-3.02c-0.62,0-1.14-0.17-1.56-0.51
			c-0.48-0.39-0.72-0.94-0.72-1.65v-1.06c0-0.57,0.12-1,0.36-1.29c0.35-0.43,0.99-0.65,1.92-0.65h5.91v1.93H60.77z"/>
		<path class="st0" d="M82.26,89.77h-2.28v-5.73c0-0.31-0.08-0.53-0.24-0.64c-0.16-0.12-0.41-0.18-0.76-0.18H76.4v6.55h-2.28v-5.73
			c0-0.31-0.08-0.53-0.24-0.64c-0.16-0.12-0.41-0.18-0.76-0.18h-2.58v6.55h-2.28v-8.49h11.71c0.6,0,1.09,0.13,1.47,0.4
			c0.54,0.37,0.81,0.95,0.81,1.76v6.33H82.26z"/>
		<path class="st0" d="M91.9,89.77h-5.86c-0.59,0-1.08-0.13-1.47-0.4c-0.54-0.37-0.81-0.95-0.81-1.76v-6.32h2.28v5.73
			c0,0.31,0.08,0.53,0.25,0.65c0.15,0.11,0.4,0.17,0.74,0.17h2.58v-6.55h2.28v8.48H91.9z"/>
		<path class="st0" d="M101.14,89.77h-8.13v-8.49h2.27v6.55h5.86V89.77z"/>
		<path class="st0" d="M109.55,89.77h-8.13v-8.49h2.27v6.55h5.85v1.94H109.55z"/>
		<path class="st0" d="M112.53,89.77h-2.28v-8.49h2.28V89.77z"/>
		<path class="st0" d="M122.22,89.77h-2.28v-5.73c0-0.31-0.08-0.53-0.24-0.64c-0.16-0.12-0.41-0.18-0.76-0.18h-2.58v6.55h-2.28
			v-8.49h5.86c0.59,0,1.08,0.13,1.47,0.4c0.54,0.37,0.81,0.95,0.81,1.76V89.77z"/>
		<path class="st0" d="M131.84,89.77h-5.92c-0.62,0-1.14-0.17-1.55-0.51c-0.48-0.39-0.72-0.94-0.72-1.66v-4.38
			c0-0.57,0.12-1,0.35-1.29c0.35-0.43,0.99-0.65,1.92-0.65h5.92v1.94h-5.32c-0.18,0-0.33,0.06-0.44,0.18s-0.17,0.27-0.17,0.45v3.25
			c0,0.54,0.22,0.81,0.66,0.81h2.98v-1.57h-1.31v-1.8h3.6L131.84,89.77L131.84,89.77z"/>
		<path class="st0" d="M141.08,89.77h-2.28v-2.06h-3.57v2.06h-2.28v-6.55c0-1.29,0.72-1.94,2.16-1.94h5.97V89.77z M138.8,85.98
			v-2.76h-2.87c-0.47,0-0.7,0.26-0.7,0.79v1.97H138.8z"/>
		<path class="st0" d="M150,84.6c0,0.42-0.08,0.78-0.24,1.07c-0.4,0.5-1.17,0.79-2.29,0.87l2.24,3.21l-2.63,0.01l-2.24-3.22h-0.69
			v3.22h-2.28v-8.49h5.96c1.45,0,2.18,0.65,2.18,1.94L150,84.6L150,84.6z M147.72,84.03v-0.02c0-0.52-0.23-0.79-0.7-0.79h-2.87v1.59
			h2.87C147.49,84.81,147.72,84.55,147.72,84.03z"/>
	</g>
</g>
</svg>
