<?xml version="1.0" encoding="utf-8"?>
<!-- Generator: Adobe Illustrator 23.0.2, SVG Export Plug-In . SVG Version: 6.00 Build 0)  -->
<svg version="1.1" id="Layer_1" xmlns="http://www.w3.org/2000/svg" xmlns:xlink="http://www.w3.org/1999/xlink" x="0px" y="0px"
	 viewBox="0 0 150 159.22" style="enable-background:new 0 0 150 159.22;" xml:space="preserve">
<style type="text/css">
	.st0{fill:#FFFFFF;}
	.st1{fill:#FFFFFF;stroke:#FFFFFF;stroke-miterlimit:10;}
	.st2{fill:none;stroke:#FFFFFF;stroke-miterlimit:10;}
</style>
<g>
	<rect x="0.04" y="41.61" class="st0" width="30.36" height="5.71"/>
	<rect x="0.04" y="67.11" class="st0" width="30.36" height="4.84"/>
	<path class="st0" d="M0.04,91.08H30.4v5.06H17.58l-0.09,4.97H30.4v4.88H0.04v-4.97h13.13c0-1.63,0-3.25,0-4.88
		c-4.38,0.06-8.75,0.12-13.13,0.18C0.04,94.58,0.04,92.83,0.04,91.08z"/>
	<path class="st0" d="M30.37,59.16c-0.4,1.99-1.36,3.05-1.84,3.5c-1.73,1.62-3.96,1.61-6.85,1.61c-2.44,0-3.43-0.51-3.79-0.72
		c-0.9-0.51-1.5-0.85-2-1.58c-0.31-0.44-0.57-1.01-0.88-0.97c-0.2,0.03-0.31,0.29-0.41,0.48c-0.63,1.24-2.19,1.8-3,2.09
		c-0.64,0.23-1.19,0.31-1.56,0.37c-0.57,0.08-1.07,0.1-1.45,0.1c-0.26,0-0.51-0.01-0.77-0.01l-7.79,0.13v-4.13h7.79
		c0.28,0,0.57,0,0.85,0c0.4,0.03,1.64,0.06,2.74-0.77c0.25-0.19,0.78-0.61,1.1-1.38c0.34-0.81,0.24-1.53,0.18-1.84l-0.09-1.01
		L0.04,55.01v-5.4H30.4c0,2.49,0,4.99,0,7.48L30.37,59.16z M16.63,54.86c-0.03,0.45-0.03,1.21,0.27,2.07
		c0.16,0.46,0.45,1.28,1.17,1.83c0.62,0.47,1.46,0.5,3.11,0.54c1.83,0.05,2.76,0.06,3.46-0.44c0.75-0.53,1.08-1.31,1.27-1.75
		c0.4-0.94,0.42-1.79,0.39-2.26c-0.06-0.01-0.12-0.01-0.17-0.02c-3.1,0-6.19,0-9.29,0C16.77,54.84,16.7,54.85,16.63,54.86z"/>
	<path class="st0" d="M8.34,74.21c-0.32,0-0.76,0-1.28,0.04c-0.76,0.06-1.34,0.16-1.43,0.17c-2.42,0.44-3.96,2.12-3.96,2.12
		c-1.92,2.1-1.68,4.85-1.63,5.43c0.06,0.64,0.26,2.65,1.81,4.32c2.34,2.53,5.85,2.26,6.53,2.21c3.7-0.28,6.35-2.88,7.27-3.77
		c0.73-0.71,1.34-1.46,2.94-2.94c1.59-1.47,2.34-1.97,3.28-2.29c0.77-0.26,2.13-0.73,3.26-0.01c0.69,0.44,1.37,1.36,1.19,2.3
		c-0.16,0.82-0.91,1.28-1.31,1.52c-0.86,0.52-1.73,0.53-2.09,0.51h-0.74v4.78c0.5,0,0.99,0,1.49-0.01c0.61-0.03,1.49-0.13,2.48-0.48
		c0.35-0.12,1.07-0.38,1.83-0.9c1.88-1.28,2.57-3.2,2.67-3.5c0.69-2.02,0.21-3.74-0.02-4.53c-0.23-0.78-0.69-2.36-2.19-3.56
		c-1.21-0.97-2.46-1.19-3.31-1.33c-2.57-0.44-4.68,0.35-5.55,0.75c-1.17,0.52-2.24,1.52-4.33,3.49c-2.7,2.54-3.35,3.54-5.32,4.49
		c-1.85,0.9-2.85,0.78-3.48,0.55c-0.2-0.07-1.42-0.52-1.71-1.7c-0.28-1.13,0.52-2.05,0.59-2.13c0.49-0.54,1.14-0.73,1.58-0.86
		c0.31-0.09,0.55-0.12,1-0.17c0.63-0.07,1.22-0.09,1.75-0.09c0-1.43,0-2.87,0-4.3c0-0.04,0-0.08,0-0.12
		C9.22,74.21,8.78,74.21,8.34,74.21z"/>
	<path class="st0" d="M150,159.22H0.07v-49H150V159.22z M35.12,114.28l-6.69,40.64h5.89l1.23-7.49l7.95,0.3l1.1,7.19h6.39
		l-6.19-40.64H35.12z M36.31,141.44h6.09l-2.7-19.17L36.31,141.44z M101.72,114.28v40.64h17.18v-5.59l-11.18-0.1v-12.18h8.79
		l0.1-5.69l-8.89-0.1l-0.1-11.28l11.28-0.1v-5.59H101.72z M134.36,132.56c0.12-0.05,0.29-0.13,0.48-0.27
		c0.45-0.35,0.63-0.79,0.7-0.98c0.1-0.27,0.13-0.49,0.18-0.91c0.05-0.38,0.05-0.7,0.05-0.93v-6.19l-0.01-0.48
		c0-0.15,0-0.5-0.01-0.97c-0.01-0.52-0.01-0.79-0.1-1.05c-0.04-0.13-0.13-0.36-0.33-0.59c-0.31-0.34-0.68-0.44-0.85-0.48l-0.5-0.04
		h-4.69v12.88h4.69C134.1,132.56,134.23,132.56,134.36,132.56z M133.98,114.28c-3.69,0-7.39,0-11.08,0v40.64h6.39v-16.68
		c1.21,0,2.43,0.01,3.64,0.01c0.27,0.01,0.53,0.02,0.8,0.03c0.21,0,0.57,0.04,0.93,0.26c0.52,0.31,0.7,0.81,0.87,1.21
		c0.25,0.61,0.26,1.17,0.23,1.5l0.02,0.98v12.68h6.49v-12.68l-0.05-0.9c-0.02-0.28-0.05-0.63-0.13-1.04
		c-0.03-0.16-0.11-0.62-0.26-1.1c-0.14-0.44-0.38-1.19-0.99-1.98c-0.56-0.73-0.97-1.28-1.68-1.44c-0.49-0.12-0.91-0.19-0.92-0.35
		c-0.01-0.14,0.32-0.24,0.82-0.49c0,0,0.54-0.27,1.27-0.8c0.25-0.18,0.96-0.71,1.43-1.58c0.53-0.98,0.52-1.97,0.46-2.51l0.04-0.6
		c0-2.84,0-5.69,0-8.53l-0.06-0.39c-0.01-0.53-0.08-1.3-0.38-2.19c-0.18-0.53-0.46-1.37-1.18-2.14c-0.93-1.01-2.06-1.33-3.01-1.6
		c-0.62-0.18-1.56-0.37-2.75-0.34L133.98,114.28z M89.74,114.28H78v40.64h11.74l0.56-0.2c0.65-0.11,1.58-0.34,2.6-0.87
		c1.58-0.81,2.48-1.87,2.66-2.08c1.48-1.78,1.76-3.76,1.83-4.61c0.03-0.24,0.05-0.48,0.08-0.73v-7.09l-0.12-0.74
		c-0.25-1.06-0.68-1.81-0.98-2.25c-0.67-0.98-1.45-1.54-2.14-2.02c-0.5-0.35-0.75-0.53-1.16-0.69c-0.36-0.14-0.49-0.13-0.52-0.23
		c-0.12-0.37,1.5-0.95,2.66-2.14c0.56-0.57,1.18-1.46,1.56-2.89l0.17-0.75c-0.02-2.04-0.04-4.08-0.06-6.12l-0.06-0.36
		c-0.02-0.27-0.07-0.65-0.17-1.1c-0.13-0.57-0.44-1.84-1.44-3.12c-0.28-0.36-0.96-1.14-2.08-1.79c-0.91-0.53-1.75-0.76-2.31-0.87
		L89.74,114.28z M89.29,148.99c0.11-0.03,0.53-0.15,0.84-0.33c0.69-0.41,0.92-1.24,0.99-1.56c0.01-0.29,0.01-0.58,0.02-0.87
		c0-2.29,0-4.59,0-6.88l-0.08-0.51c-0.01-0.15-0.14-1.52-1.21-2.08c-0.28-0.15-0.56-0.2-0.8-0.22c-0.2,0-0.4,0.01-0.6,0.01h-4.19
		v12.58c2.03,0.06,3.56,0.05,4.19,0C88.7,149.11,88.97,149.08,89.29,148.99z M90.53,122.67c0.02-0.69-0.09-1.23-0.19-1.58
		c-0.16-0.55-0.32-0.76-0.39-0.85c-0.29-0.35-0.66-0.49-0.87-0.55c-0.22-0.01-0.43-0.01-0.65-0.02h-4.19v10.88h4.19
		c0.18-0.02,0.35-0.04,0.53-0.06c0.2-0.06,0.62-0.21,0.98-0.6c0.54-0.58,0.57-1.28,0.57-1.46l0.01-0.38c0-1.6,0-3.2,0-4.79
		L90.53,122.67z M67.17,129.46v-6.19l0-0.73c0-0.16-0.01-0.38-0.06-0.64c-0.05-0.28-0.17-0.9-0.64-1.42
		c-0.57-0.63-1.34-0.75-1.59-0.78l-0.21-0.02h-4.09v12.88h4.09l0.39-0.07c0.29-0.13,0.7-0.36,1.1-0.75c0.67-0.67,0.9-1.43,0.98-1.79
		L67.17,129.46z M65.47,114.28c-3.83,0-7.66,0-11.48,0v40.64h6.6v-16.58h2.68c0.29,0,0.59,0,0.88,0c0.31,0,0.86,0.06,1.42,0.37
		c1.15,0.64,1.45,1.85,1.5,2.08l0.09,0.64l-0.2,13.48h6.29v-13.48c0-0.2,0-0.4,0.01-0.6c0.06-1.24-0.32-2.08-0.53-2.47
		c-0.66-1.22-1.8-1.89-2.14-2.08c-0.83-0.47-1.59-0.63-1.56-0.87c0.02-0.15,0.35-0.2,0.72-0.31c0,0,0.8-0.25,1.92-1.14
		c1.37-1.1,1.55-3.8,1.57-4.15l0-0.4v-7.45c-0.01-0.28-0.03-0.56-0.04-0.84c-0.09-0.77-0.44-2.83-2.1-4.55
		c-0.26-0.27-1.19-1.19-2.71-1.79c-0.78-0.31-1.47-0.44-1.97-0.5C66.12,114.29,65.79,114.29,65.47,114.28z M19.78,138.82
		c-0.04-0.18-0.32-1.51-1.49-2.06c-0.39-0.18-0.77-0.22-1.04-0.22h-4.29v12.58h4.29l0.4-0.01c0.25,0.01,0.58-0.01,0.92-0.17
		c1.13-0.52,1.26-1.98,1.27-2.08l0-0.43v-7.09L19.78,138.82z M17.67,119.73c-0.17-0.05-0.33-0.06-0.43-0.06h-4.29v10.88h4.29
		c0.13,0,0.27,0,0.4,0c0.18-0.07,0.68-0.29,1.04-0.84c0.3-0.47,0.34-0.93,0.34-1.13c0-0.17,0.01-0.35,0.01-0.52v-5.89
		c0-0.07,0-0.14-0.01-0.2c-0.01-0.29-0.05-0.92-0.47-1.51C18.41,120.24,18.15,119.87,17.67,119.73z M18.24,114.28
		c-3.93,0-7.86,0-11.78,0v40.64h11.78l0.73-0.03c0.56-0.09,1.33-0.27,2.19-0.64c0.67-0.28,2.13-0.92,3.29-2.31
		c1.63-1.95,1.73-4.23,1.73-5.03l-0.06-0.49c0-2.36,0-4.73,0-7.09c-0.02-0.3-0.07-0.71-0.15-1.19c-0.11-0.58-0.17-0.92-0.35-1.35
		c-0.25-0.6-0.58-1-0.77-1.23c-0.12-0.14-0.46-0.55-0.92-0.89c-1.31-0.95-2.84-0.83-2.83-1.1c0-0.06,0.08-0.1,0.3-0.2
		c0.69-0.32,1.16-0.49,1.33-0.56c0.6-0.25,0.96-0.67,1.46-1.25c0.12-0.14,0.41-0.49,0.7-1c0.28-0.49,0.67-1.33,0.84-2.5v-5.89
		c0-0.57-0.07-1.37-0.35-2.29c-0.33-1.09-0.79-1.82-1.16-2.37c-0.77-1.13-1.31-1.93-2.37-2.54c-0.85-0.49-1.67-0.64-2.17-0.69
		C19.2,114.28,18.72,114.28,18.24,114.28z"/>
	<g>
		<polygon class="st0" points="35.55,41.61 35.55,105.99 63.27,105.99 63.27,97.26 45.35,97.26 45.35,78.64 60.57,78.64 
			60.59,69.39 45.35,69.39 45.35,51.62 63.27,51.62 63.27,41.61 		"/>
		<path class="st0" d="M101.83,41.6c1.24-0.03,3.07,0.05,5.18,0.61c1.75,0.46,4.67,1.24,6.96,3.62c2.61,2.72,3.06,6.13,3.52,9.49
			c0.13,0.97,0.14,2.83,0.16,6.56c0.02,5.05,0.03,7.61-0.32,9.12c-0.46,1.99-1.15,4.96-3.68,7.41c-2.42,2.35-5.29,3.04-7.31,3.52
			c-2.37,0.57-4.41,0.6-5.76,0.53l-0.9-0.01h-1.72v23.52h-10.3V41.61h10.51h1.5C100.4,41.61,101.12,41.6,101.83,41.6z M99.69,50.93
			h-1.5v21.02h1.5c0.59,0,1.18,0,1.77,0c0.76,0.08,2.07,0.12,3.54-0.42c0.73-0.27,1.3-0.6,1.54-0.77c1.59-1.11,1.54-3.58,1.66-9.18
			c0.05-2.44,0.18-8.09-1.45-9.55c-0.41-0.37-0.85-0.6-0.85-0.6c-0.44-0.23-0.95-0.39-2.66-0.47c-0.48-0.02-1.14-0.04-1.92-0.04
			C100.77,50.93,100.23,50.93,99.69,50.93z"/>
		<path class="st0" d="M149.96,92.5c-0.13,1.08-0.41,2.58-1.05,4.27c-0.47,1.23-1.33,3.43-3.25,5.39c-2.43,2.48-5.27,3.26-6.88,3.68
			c-1.6,0.42-5.82,1.45-10.51-0.53c-1.12-0.48-4.79-2.02-6.83-5.76c-1.57-2.87-1.73-6.22-1.79-7.31c-0.02-0.48-0.03-0.88-0.02-1.15
			V54.84l0-1.38c0.08-0.98,0.3-2.43,0.96-4.05c0.46-1.12,1.83-4.06,4.96-6.13c3-1.99,5.95-2.09,8.96-2.19
			c2.45-0.08,4.59-0.15,7.09,0.96c3.17,1.41,4.87,3.8,5.71,5.01c1.78,2.57,2.4,5.1,2.65,6.61v1.16v36.25V92.5z M139.8,53.57
			c0-0.2-0.03-0.47-0.11-0.78c0,0-0.15-0.55-0.49-1.03c-0.58-0.83-1.66-1.19-2.16-1.35c-2.1-0.69-3.9-0.18-4.62,0.04
			c-1.09,0.32-1.55,0.71-1.8,0.97c-0.48,0.5-0.69,1.06-0.73,1.16c-0.11,0.31-0.16,0.58-0.18,0.78c0,0.49,0,0.99,0,1.48v36.25
			c-0.01,0.27-0.02,0.54-0.03,0.81c-0.02,0.45-0.02,1.67,0.76,2.91c0.81,1.29,1.97,1.83,2.48,2.03c0.43,0.17,1.98,0.7,3.71,0
			c0.27-0.11,1.42-0.6,2.27-1.86c0.87-1.29,0.89-2.58,0.88-3.04c0-0.28,0-0.55,0.01-0.83c0-12.08,0-24.16,0-36.25
			C139.8,54.68,139.8,53.73,139.8,53.57z"/>
	</g>
	<path class="st1" d="M90.89,21.41c-0.09,0.19,1.18,0.62,2.03,1.88c0.48,0.72,0.72,1.54,0.8,2.82c0.22,3.54-0.97,6.72-1.08,7.02
		c-1.22,3.16-2.87,5.2-4.41,7.09c-1.38,1.69-4.33,5.28-8.39,7.38c-1.26,0.65-2.45,1.41-3.76,1.95c-0.16,0.07-2.17,0.89-3.47,1.95
		c-0.09,0.08-0.49,0.4-0.87,0.94c-0.39,0.55-0.7,0.99-0.58,1.3c0.27,0.67,2.26-0.21,3.25,0.72c1,0.94,0.13,2.91,0.72,3.18
		c0.56,0.26,1.75-1.28,2.82-2.6c3.05-3.77,0.78-0.46,5.64-6.51c2.34-2.91,3.51-4.37,4.41-5.57c1.43-1.9,2.7-3.68,4.99-5.28
		c1.11-0.77,1.93-1.14,2.82-1.3c1.44-0.27,2.34,0.12,3.83,0.36c0.44,0.07,3.18,0.52,5.35-0.07c4.09-1.12,5.87-5.85,6-6.22
		c0.36-1,1.35-3.89,0-7.09c-0.14-0.34-1.49-3.4-4.85-4.85c-2.02-0.87-3.87-0.77-4.56-0.72c-1.1,0.07-2.76,0.18-4.48,1.01
		c-0.55,0.26-1,0.55-1.74,0.58c-0.98,0.04-1.3-0.43-2.31-0.43c-0.95,0-2.02,0.41-2.03,0.8c-0.01,0.35,0.87,0.45,3.4,1.37
		c1.85,0.68,2.27,0.95,3.04,0.8c0.92-0.19,1.04-0.73,2.03-1.3c1.8-1.03,3.85-0.62,4.77-0.43c0.88,0.18,2.79,0.56,4.19,2.17
		c2.22,2.55,1.39,6.11,1.16,6.94c-0.13,0.49-1.24,4.28-4.99,5.64c-0.67,0.24-3.17,1.05-5.79-0.22c-0.41-0.2-2.58-1.25-3.4-3.54
		c-0.51-1.41-0.49-3.26-0.07-4.48c0.03-0.09,0.3-0.88,0.43-1.95c0.08-0.62,0.11-0.94,0-1.23c-0.2-0.51-0.69-0.76-2.17-1.3
		C92.06,21.63,90.97,21.23,90.89,21.41z"/>
	<polygon class="st1" points="67.16,60.03 60.59,109.64 61.75,111.26 75.04,66.68 	"/>
	<path class="st1" d="M64.92,18.3c0.02-0.15,0.08-0.63,0.43-0.87c0.36-0.25,0.83-0.11,0.94-0.07c0.54,0.18,0.93,0.73,0.94,1.23
		c0.01,0.58-0.49,1-0.8,1.3c-0.63,0.63-0.95,1.65-1.59,3.69c-0.84,2.66-0.57,6.42-0.36,9.69c0.56,8.53,0.42,8.34,0.72,9.69
		c0.11,0.47,1.37,5.85,4.19,8.46c0.76,0.7,1.66,1.54,3.04,1.81c0.8,0.16,1.15,0.01,1.88,0.29c0.06,0.02,1.54,0.62,2.17,2.03
		c0.48,1.08-0.1,1.53-0.65,5.28c0,0-0.17,1.19-0.26,3.12c-0.05,1.11-0.03,1.92,0.24,2.56c0.16,0.38,0.25,0.79,0.47,1.14
		c0.11,0.17,0.3,0.43,0.21,0.56c-0.03,0.04-0.07,0.05-0.29,0.11c-0.1,0.03-0.21,0.07-0.31,0.1c-1.52,0.42-3.01,0.94-4.51,1.41
		c-1.02,0.32-1.53,0.48-1.53,0.48c-0.05,0.04-0.21,0.15-0.37,0.11c-0.11-0.03-0.18-0.12-0.3-0.3c-0.17-0.27-0.26-0.41-0.32-0.6
		c-0.8-2.41-0.88-3.27-0.88-3.27c-0.19-1.94-1.24-3.64-2.07-6.73c-1.39-5.12-0.89-9.2-1.81-14.61c-0.19-1.13-0.33-1.62-0.58-2.17
		c-0.87-1.89-2.2-2.39-2.17-3.62c0.01-0.68,0.43-0.94,0.87-1.66c1.3-2.15,0.93-5.38-0.29-7.38c-0.75-1.22-1.97-1.92-4.41-3.33
		c-3.03-1.74-3.66-1.39-4.99-2.68c-2-1.93-2.42-4.46-2.53-5.21c-0.08-0.56-0.52-3.48,1.01-6.08c0.65-1.1,1.3-1.54,1.81-3.04
		c0.24-0.71,0.58-1.7,0.36-2.89c-0.32-1.74-1.6-2.78-2.46-3.47c-0.97-0.78-2.34-1.89-3.98-1.74c-0.74,0.07-1.39,0.39-1.88,0
		c-0.34-0.27-0.53-0.81-0.36-1.16c0.32-0.66,1.82-0.5,2.4-0.44c1.07,0.11,3.1,0.55,5.49,2.61c2.36,2.04,2,3.01,4.19,4.34
		c0.92,0.56,1.03,0.42,3.18,1.52c1.79,0.92,2.69,1.38,3.47,2.03c1.76,1.45,3.4,3.8,2.82,4.7c-0.15,0.23-0.46,0.39-0.72,0.36
		c-0.54-0.05-0.81-0.85-1.23-1.66c-0.71-1.37-1.59-2.25-1.81-2.46c-1.44-1.37-3.59-1.32-4.48-1.3c-1,0.02-2.98,0.07-4.48,1.52
		c-1.67,1.61-1.67,3.88-1.66,5.14c0,1.08,0.01,3.51,1.88,5.5c1.87,1.98,4.3,2.15,4.85,2.17c0.81,0.03,3.2,0.13,4.48-1.37
		C63.8,22.08,64.74,19.54,64.92,18.3z"/>
	<polygon class="st2" points="69.4,70.44 72.77,69.39 76.56,68.2 86.91,107.62 86.04,110.22 	"/>
	<polygon class="st1" points="86.6,108.55 72.77,69.39 69.4,70.44 86.04,110.22 	"/>
	<ellipse class="st1" cx="70.61" cy="64.07" rx="3.49" ry="3.42"/>
	<path class="st1" d="M67.85,49.51c-0.01,0.01,1.22,1.71,2.36,3.47c0.97,1.49,1.6,2.48,2.27,3.86c0.43,0.89,0.89,2.19,1.8,4.78
		c0.82,2.33,1.07,3.69,1.27,3.66c0.16-0.03,0.01-0.92,0.12-2.66c0.14-2.09,0.56-3.96,0.58-4.06c0.33-1.41,0.5-1.52,0.42-2.11
		c-0.13-1.06-0.86-2.08-1.81-2.65c-1.24-0.74-1.87-0.1-3.52-0.93c-0.79-0.39-1.32-0.88-1.71-1.24
		C68.46,50.57,67.85,49.5,67.85,49.51z"/>
	<path class="st1" d="M71.5,64.07c0,0.49-0.4,0.89-0.89,0.89c-0.49,0-0.89-0.4-0.89-0.89c0-0.41,0.3-0.74,0.62-0.85
		c0.14-0.05,0.25-0.04,0.28-0.04C70.98,63.2,71.5,63.52,71.5,64.07z"/>
</g>
</svg>
