<?xml version="1.0" encoding="utf-8"?>
<!-- Generator: Adobe Illustrator 23.0.2, SVG Export Plug-In . SVG Version: 6.00 Build 0)  -->
<svg version="1.1" id="Layer_1" xmlns="http://www.w3.org/2000/svg" xmlns:xlink="http://www.w3.org/1999/xlink" x="0px" y="0px"
	 viewBox="0 0 150 150" style="enable-background:new 0 0 150 150;" xml:space="preserve">
<style type="text/css">
	.st0{fill:none;stroke:#FFFFFF;stroke-width:1.5;stroke-miterlimit:10;}
	.st1{fill:#FFFFFF;}
	.st2{fill:#FFFFFF;stroke:#FFFFFF;stroke-miterlimit:10;}
</style>
<g>
	<circle class="st0" cx="75.4" cy="75.69" r="54.94"/>
	<circle class="st0" cx="75.4" cy="75.69" r="51.66"/>
	<circle class="st0" cx="75.4" cy="75.69" r="45.1"/>
	<path class="st0" d="M53.28,57.41c3.82-4.63,9.11-8.1,15.39-9.61c15.41-3.72,30.91,5.76,34.63,21.17s-5.76,30.91-21.17,34.63
		s-30.91-5.76-34.63-21.17c-1.75-7.27-0.57-14.56,2.79-20.62"/>
	<path class="st0" d="M51.64,56.82c4.06-5.12,9.8-8.97,16.65-10.63c16.29-3.93,32.68,6.09,36.61,22.38
		c3.93,16.29-6.09,32.68-22.38,36.61c-16.29,3.93-32.68-6.09-36.61-22.38c-1.89-7.85-0.55-15.73,3.18-22.22"/>
	<polygon class="st0" points="61.94,14.54 65.06,61.55 77.03,76.28 81.47,58.18 	"/>
	<polygon class="st0" points="15.41,90.27 62.42,87.15 77.15,75.18 59.05,70.73 	"/>
	<polygon class="st0" points="91.46,136.2 88.34,89.19 76.37,74.46 71.93,92.56 	"/>
	<polygon class="st0" points="138.02,60.18 91.01,63.29 76.28,75.27 94.38,79.71 	"/>
	<path class="st0" d="M39.41,52.3l20.51,17.96c5.54,1.61,11.07,3.23,16.61,4.84c-3.76-4.31-7.52-8.62-11.27-12.94L39.41,52.3z"/>
	<path class="st0" d="M53.58,112.71l17.96-20.51c1.54-5.35,3.09-10.7,4.63-16.05c-4.24,3.57-8.48,7.15-12.72,10.72L53.58,112.71z"/>
	<path class="st0" d="M114.47,98.52L93.96,80.56c-5.6-1.8-11.21-3.59-16.81-5.39c3.82,4.49,7.65,8.99,11.47,13.48L114.47,98.52z"/>
	<path class="st0" d="M99.74,37.36L81.78,57.87c-1.59,5.63-3.18,11.26-4.77,16.89c4.29-3.85,8.57-7.7,12.86-11.56L99.74,37.36z"/>
	<g>
		<polygon class="st1" points="24.75,43.68 7.17,32.06 25.53,42.4 		"/>
	</g>
	<g>
		<polygon class="st1" points="127.95,105.67 145.52,117.29 127.17,106.95 		"/>
	</g>
	<g>
		<polygon class="st1" points="44.78,128.38 33.16,145.95 43.5,127.6 		"/>
	</g>
	<g>
		<polygon class="st1" points="106.85,23.45 118.47,5.88 108.13,24.23 		"/>
	</g>
	<g>
		<path class="st1" d="M11.78,55.99c0.93-0.05,1.83-0.02,2.74,0.02l2.52,0.75l5.05,1.49l5.05,1.49l2.52,0.74
			c0.78,0.47,1.56,0.93,2.31,1.46c-0.93,0.04-1.83,0-2.74-0.03l-2.52-0.74l-5.05-1.49l-5.05-1.49l-2.53-0.74
			C13.31,57,12.53,56.54,11.78,55.99z"/>
	</g>
	<g>
		<path class="st1" d="M8.73,73.2c0.88-0.29,1.77-0.49,2.65-0.69l2.63,0.07l5.26,0.13l5.26,0.13l2.63,0.07
			c0.87,0.25,1.74,0.49,2.61,0.82c-0.88,0.28-1.77,0.48-2.65,0.68l-2.63-0.07l-5.26-0.13l-5.26-0.13l-2.63-0.06
			C10.47,73.78,9.6,73.53,8.73,73.2z"/>
	</g>
	<g>
		<path class="st1" d="M77.56,30.61c-0.29-0.88-0.49-1.77-0.69-2.65l0.07-2.63l0.13-5.26l0.13-5.26l0.07-2.63
			c0.25-0.87,0.49-1.74,0.82-2.61c0.28,0.88,0.48,1.77,0.68,2.65l-0.07,2.63l-0.13,5.26l-0.13,5.26L78.38,28
			C78.13,28.87,77.89,29.74,77.56,30.61z"/>
	</g>
	<g>
		<path class="st1" d="M88.8,32.75c-0.05-0.93-0.02-1.83,0.02-2.74l0.75-2.52l1.49-5.05l1.49-5.05l0.74-2.52
			c0.47-0.78,0.93-1.56,1.46-2.31c0.04,0.93,0,1.83-0.03,2.74l-0.74,2.52l-1.49,5.05l-1.49,5.05l-0.74,2.53
			C89.8,31.22,89.34,32,88.8,32.75z"/>
	</g>
	<g>
		<path class="st1" d="M75.53,141.88c-0.29-0.88-0.49-1.77-0.69-2.65l0.07-2.63l0.13-5.26l0.13-5.26l0.07-2.63
			c0.25-0.87,0.49-1.74,0.82-2.61c0.28,0.88,0.48,1.77,0.68,2.65l-0.07,2.63l-0.13,5.26l-0.13,5.26l-0.06,2.63
			C76.1,140.14,75.86,141.01,75.53,141.88z"/>
	</g>
	<g>
		<path class="st1" d="M58.14,139.58c-0.05-0.93-0.02-1.83,0.02-2.74l0.75-2.52l1.49-5.05l1.49-5.05l0.74-2.52
			c0.47-0.78,0.93-1.56,1.46-2.31c0.04,0.93,0,1.83-0.03,2.74l-0.74,2.52l-1.49,5.05l-1.49,5.05l-0.74,2.53
			C59.15,138.04,58.69,138.82,58.14,139.58z"/>
	</g>
	<g>
		<path class="st1" d="M120.3,76.45c0.88-0.29,1.77-0.49,2.65-0.69l2.63,0.07l5.26,0.13l5.26,0.13l2.63,0.07
			c0.87,0.25,1.74,0.49,2.61,0.82c-0.88,0.28-1.77,0.48-2.65,0.68l-2.63-0.07l-5.26-0.13l-5.26-0.13l-2.63-0.06
			C122.04,77.03,121.17,76.78,120.3,76.45z"/>
	</g>
	<g>
		<path class="st1" d="M118.99,87.72c0.93-0.05,1.83-0.02,2.74,0.02l2.52,0.75l5.05,1.49l5.05,1.49l2.52,0.74
			c0.78,0.47,1.56,0.93,2.31,1.46c-0.93,0.04-1.83,0-2.74-0.03l-2.52-0.74l-5.05-1.49l-5.05-1.49l-2.53-0.74
			C120.53,88.73,119.75,88.27,118.99,87.72z"/>
	</g>
	<g>
		<path class="st1" d="M121.52,122.91c-0.83-0.42-1.6-0.9-2.36-1.39l-1.81-1.91l-3.63-3.81l-3.63-3.81l-1.81-1.91
			c-0.44-0.79-0.88-1.58-1.27-2.42c0.82,0.43,1.59,0.91,2.36,1.39l1.81,1.91l3.63,3.81l3.63,3.81l1.82,1.9
			C120.7,121.27,121.14,122.06,121.52,122.91z"/>
	</g>
	<g>
		<path class="st1" d="M45.25,42c-0.83-0.42-1.6-0.9-2.36-1.39l-1.81-1.91l-3.63-3.81l-3.63-3.81l-1.81-1.91
			c-0.44-0.79-0.88-1.58-1.27-2.42c0.82,0.43,1.59,0.91,2.36,1.39l1.81,1.91l3.63,3.81l3.63,3.81l1.82,1.9
			C44.42,40.36,44.87,41.15,45.25,42z"/>
	</g>
	<g>
		<path class="st1" d="M107.35,133.37c-0.69-0.62-1.31-1.29-1.92-1.95l-1.25-2.32l-2.52-4.62l-2.52-4.62l-1.26-2.31
			c-0.22-0.88-0.44-1.76-0.6-2.67c0.68,0.63,1.3,1.29,1.92,1.95l1.26,2.31l2.52,4.62l2.52,4.62l1.26,2.31
			C106.98,131.57,107.2,132.45,107.35,133.37z"/>
	</g>
	<g>
		<path class="st1" d="M54.85,35.36c-0.69-0.62-1.31-1.29-1.92-1.95l-1.25-2.32l-2.52-4.62l-2.52-4.62l-1.26-2.31
			c-0.22-0.88-0.44-1.76-0.6-2.67c0.68,0.63,1.3,1.29,1.92,1.95l1.26,2.31l2.52,4.62L53,30.38l1.26,2.31
			C54.48,33.57,54.71,34.44,54.85,35.36z"/>
	</g>
	<g>
		<path class="st1" d="M123.61,30.2c-0.42,0.83-0.9,1.6-1.39,2.36l-1.91,1.81L116.5,38l-3.81,3.63l-1.91,1.81
			c-0.79,0.44-1.58,0.88-2.42,1.27c0.43-0.82,0.91-1.59,1.39-2.36l1.91-1.81l3.81-3.63l3.81-3.63l1.9-1.82
			C121.97,31.03,122.76,30.58,123.61,30.2z"/>
	</g>
	<g>
		<path class="st1" d="M43.19,106.87c-0.42,0.83-0.9,1.6-1.39,2.36l-1.91,1.81l-3.81,3.63l-3.81,3.63l-1.91,1.81
			c-0.79,0.44-1.58,0.88-2.42,1.27c0.43-0.82,0.91-1.59,1.39-2.36l1.91-1.81l3.81-3.63l3.81-3.63l1.9-1.82
			C41.55,107.69,42.34,107.25,43.19,106.87z"/>
	</g>
	<g>
		<path class="st1" d="M133.99,43.75c-0.62,0.69-1.29,1.31-1.95,1.92l-2.32,1.25l-4.62,2.52l-4.62,2.52l-2.31,1.26
			c-0.88,0.22-1.76,0.44-2.67,0.6c0.63-0.68,1.29-1.3,1.95-1.92l2.31-1.26l4.62-2.52l4.62-2.52l2.31-1.26
			C132.2,44.12,133.07,43.89,133.99,43.75z"/>
	</g>
	<g>
		<path class="st1" d="M35.73,97.37c-0.62,0.69-1.29,1.31-1.95,1.92l-2.32,1.25l-4.62,2.52l-4.62,2.52l-2.31,1.26
			c-0.88,0.22-1.76,0.44-2.67,0.6c0.63-0.68,1.29-1.3,1.95-1.92l2.31-1.26l4.62-2.52l4.62-2.52l2.31-1.26
			C33.94,97.74,34.81,97.52,35.73,97.37z"/>
	</g>
	<circle class="st1" cx="26.94" cy="44.44" r="1.64"/>
	<circle class="st1" cx="106.03" cy="26.06" r="1.64"/>
	<circle class="st1" cx="45.39" cy="125.51" r="1.64"/>
	<circle class="st1" cx="124.96" cy="105.15" r="1.64"/>
	<polygon class="st1" points="61.75,14.47 76.84,76.21 81.28,58.11 	"/>
	<polygon class="st1" points="15.74,90.13 77.49,75.04 59.38,70.6 	"/>
	<polygon class="st1" points="91.68,137.22 76.59,75.48 72.15,93.58 	"/>
	<polygon class="st1" points="138.19,60.29 76.45,75.38 94.55,79.82 	"/>
	<path class="st1" d="M99.9,36.94c0,0-21.13,31.77-22.72,37.4c4.29-3.85,8.57-7.7,12.86-11.56L99.9,36.94z"/>
	<path class="st1" d="M38.65,51.81c0,0,31.77,21.13,37.4,22.72c-3.85-4.29-7.7-8.57-11.56-12.86L38.65,51.81z"/>
	<path class="st1" d="M53.42,112.44c0,0,21.13-31.77,22.72-37.4c-4.29,3.85-8.57,7.7-12.86,11.56L53.42,112.44z"/>
	<path class="st1" d="M114.59,98.63c0,0-31.77-21.13-37.4-22.72c3.85,4.29,7.7,8.57,11.56,12.86L114.59,98.63z"/>
	<g>
		<path class="st1" d="M62.89,0.36c-0.63,0.19-0.84,0.42-0.79,0.9c0.04,0.37,0.13,0.93,0.38,1.96l1.13,4.7l-0.55,0.13l-6.13-4.77
			L56.91,3.3l0.66,2.73c0.24,1,0.43,1.54,0.55,1.88c0.18,0.51,0.47,0.62,1.29,0.47l0.11,0.44l-2.87,0.69l-0.11-0.44
			c0.64-0.2,0.88-0.44,0.81-0.95c-0.04-0.39-0.13-0.96-0.37-1.95l-0.61-2.51c-0.19-0.79-0.24-0.93-0.52-1.16
			c-0.29-0.23-0.59-0.25-1.1-0.18l-0.1-0.42l1.99-0.48l5.78,4.36l0.04-0.01l-0.58-2.4c-0.25-1.03-0.43-1.57-0.55-1.91
			c-0.17-0.45-0.48-0.56-1.3-0.41l-0.1-0.42l2.86-0.69L62.89,0.36z"/>
	</g>
	<g>
		<path class="st1" d="M95.31,143.54c-0.41-0.68-0.94-1.42-1.9-1.19c-0.75,0.18-1.07,0.83-0.92,1.47c0.18,0.73,0.77,1,1.86,1.25
			c1.21,0.27,2.32,0.67,2.61,1.91c0.31,1.3-0.54,2.57-2.18,2.97c-0.45,0.11-0.85,0.12-1.19,0.11c-0.34-0.01-0.57-0.05-0.72-0.08
			c-0.19-0.28-0.55-1.15-0.8-1.83l0.43-0.24c0.37,0.67,1.24,1.77,2.41,1.49c0.77-0.18,1.13-0.81,0.94-1.59
			c-0.18-0.75-0.87-1.05-1.84-1.3c-1.14-0.26-2.26-0.66-2.55-1.87c-0.3-1.23,0.42-2.43,2.03-2.82c0.65-0.16,1.28-0.11,1.63-0.08
			c0.15,0.41,0.35,0.88,0.63,1.61L95.31,143.54z"/>
	</g>
	<g>
		<path class="st1" d="M11.25,87.47c-0.75,0.29-0.88,0.44-0.98,1.45c-0.07,0.88-0.26,3.11-0.42,6.63l-0.56,0.14
			c-1.04-1.63-2.14-3.34-3.2-4.99L6.06,90.7c-0.16,2.03-0.34,3.97-0.47,5.87l-0.55,0.13c-1.13-1.95-2.21-3.82-3.36-5.76
			c-0.5-0.84-0.72-0.92-1.41-0.83l-0.11-0.44l3.16-0.76l0.11,0.44c-0.83,0.29-0.82,0.42-0.53,0.95c0.76,1.36,1.51,2.69,2.3,4.04
			l0.02-0.01c0.13-1.96,0.29-3.94,0.41-5.9l0.52-0.13c1.07,1.68,2.16,3.34,3.25,5.04l0.04-0.01c0.09-1.58,0.16-3.68,0.15-4.52
			c-0.01-0.72-0.1-0.86-1.04-0.72l-0.11-0.44l2.69-0.65L11.25,87.47z"/>
	</g>
	<g>
		<path class="st1" d="M150.1,59.04c0.04,0.47,0.08,1.66,0.05,2.02l-5.8,1.4l-0.11-0.44c0.98-0.33,1.07-0.42,0.84-1.39l-1.09-4.53
			c-0.24-1-0.37-1.03-1.24-0.89l-0.11-0.44l5.38-1.3c0.07,0.21,0.32,1.04,0.54,1.71l-0.45,0.17c-0.21-0.42-0.42-0.69-0.65-0.88
			c-0.2-0.18-0.55-0.2-1.26-0.03l-0.72,0.17c-0.4,0.1-0.44,0.13-0.35,0.52l0.6,2.5l0.91-0.22c0.98-0.24,1.08-0.34,1.04-1.18
			l0.44-0.11l0.57,2.36l-0.44,0.11c-0.36-0.82-0.49-0.84-1.47-0.61l-0.91,0.22l0.5,2.08c0.13,0.55,0.28,0.8,0.52,0.86
			c0.23,0.06,0.64-0.01,1.14-0.13c0.69-0.17,1.05-0.33,1.24-0.69c0.16-0.3,0.27-0.72,0.34-1.27L150.1,59.04z"/>
	</g>
	<g>
		<ellipse class="st2" cx="40.47" cy="28.04" rx="9.68" ry="11.01"/>
		<path class="st2" d="M33.8,51.92h13.86v79.57H33.63C33.63,131.49,33.8,51.4,33.8,51.92z"/>
		<path class="st2" d="M56.39,51.1h11.64V28.51c0.37-1.29,1.13-3.23,2.77-5.03c2.43-2.67,5.11-3.22,5.53-3.22c0,0,0,0,0.51,0
			c0,0,0.83,0,0.83,0c1.24,0,2.48,0,3.72,0c0.54,0,7.25,0,7.25,0c2.64,0,6.97-0.01,14.29-0.04c-0.02,5.2-0.03,10.41-0.05,15.61
			c-6.32,0-12.63,0-18.95,0c-0.47-0.06-1.31-0.09-1.81,0.43c-0.38,0.4-0.4,0.95-0.41,1.2c-0.03,1.33-0.04,6.4,0,13.3h15.91
			c-0.02,4.71-0.05,9.43-0.07,14.14c-5.05,0-10.1,0-15.14,0c-0.01,21.98-0.01,43.96-0.02,65.95H68.36
			c-0.02-21.98-0.04-43.96-0.06-65.95c-4.02,0-8.04,0-12.06,0c0.05-4.37,0.1-8.74,0.15-13.11V51.1z"/>
		<rect x="111.83" y="20.6" class="st2" width="13.52" height="111.06"/>
	</g>
</g>
</svg>
