<?xml version="1.0" encoding="utf-8"?>
<!-- Generator: Adobe Illustrator 23.0.2, SVG Export Plug-In . SVG Version: 6.00 Build 0)  -->
<svg version="1.1" id="Layer_1" xmlns="http://www.w3.org/2000/svg" xmlns:xlink="http://www.w3.org/1999/xlink" x="0px" y="0px"
	 viewBox="0 0 150 147.8" style="enable-background:new 0 0 150 147.8;" xml:space="preserve">
<style type="text/css">
	.st0{fill:none;stroke:#FFFFFF;stroke-miterlimit:10;}
	.st1{fill:#FFFFFF;}
	.st2{fill:#E53E56;}
	.st3{font-family:'ArialMT';}
	.st4{font-size:3.3913px;}
	.st5{enable-background:new    ;}
	.st6{font-family:'MrSandsfort';}
	.st7{font-size:19.2px;}
	.st8{fill:none;stroke:#FFFFFF;stroke-width:2;stroke-miterlimit:10;}
	.st9{fill:#256936;}
	.st10{fill:none;stroke:#FFFFFF;stroke-width:0.75;stroke-miterlimit:10;}
	.st11{fill:#246935;stroke:#000000;stroke-width:0.75;stroke-miterlimit:10;}
</style>
<g>
	<path class="st0" d="M73.9,80.6c-0.6,0-1.5,0.1-2.4,0.5c-0.1,0-0.3,0.1-0.5,0.3c-1.3,0.9-1.8,2.3-1.9,2.6c-0.6,1.6-0.2,3.1,0,4.2
		c0.5,2.5,0.8,5.1,1.3,7.7c0.4,2,0.7,4,1.3,7.9c1,6.7,1.5,10,1.6,13.2c0,1,0.1,3.5,0.5,6.9c0.3,1.9,0.7,4.7,1.3,4.7
		c0.7,0,1.2-3.1,1.6-5c0.3-1.9,0.5-3.2,0.8-7.1c0.4-5.2,0.4-5,0.5-6.3c0.4-4.4,0.6-4.3,0.8-7.1c0.3-4.1-0.1-3.9,0.3-7.9
		c0.2-1.8,0.3-3.5,0.5-6.9c0.2-2.5,0.2-3.7-0.5-5c-1-1.7-2.8-2.3-2.9-2.4C75.3,80.5,74.4,80.6,73.9,80.6z"/>
</g>
<g>
	<g>
		<g>
			<g>
				<path class="st1" d="M75.1,0.2c0.2,0,0.1,0-0.6,0l-0.5,0.1L75.1,0.2z"/>
				<path class="st1" d="M70.6,0.3c-0.8,0.1-1.7,0.2-1.2,0.2c0.8-0.1,1-0.1,1.8-0.2c0.7,0,1.2,0,1.1,0c0.2,0,1,0,1.4-0.1
					c-0.4,0-0.9,0-1.5,0c-0.3,0-0.5,0-0.8,0C71.1,0.2,70.8,0.3,70.6,0.3C70.3,0.3,70.5,0.3,70.6,0.3z"/>
				<path class="st1" d="M14.8,30.7l0.3-0.3C15,30.4,14.9,30.5,14.8,30.7z"/>
				<path class="st1" d="M0.8,68.6c0-0.3,0-0.4-0.1-0.5C0.8,68.5,0.8,68.7,0.8,68.6z"/>
				<path class="st1" d="M0.1,75.7c0-0.2,0-0.3,0-0.4C0.1,75.4,0.1,75.6,0.1,75.7z"/>
				<path class="st1" d="M14.8,30.7l-0.7,0.8C14.1,31.6,14.5,31.1,14.8,30.7z"/>
				<path class="st1" d="M61.7,1.5c0.2,0,0.4-0.1,0.6-0.1C62.1,1.4,61.9,1.5,61.7,1.5C61.7,1.5,61.7,1.5,61.7,1.5z"/>
				<path class="st1" d="M26.9,17.4l0.3-0.2c0-0.1,0.1-0.2,0.1-0.3L26.9,17.4z"/>
				<path class="st1" d="M38.2,9.5C38,9.7,38,9.9,37.9,10c0.1-0.1,0.3-0.3,0.5-0.4C38.4,9.5,38.3,9.5,38.2,9.5z"/>
				<path class="st1" d="M58.6,1.9L59,1.8C58.9,1.8,58.7,1.9,58.6,1.9z"/>
				<path class="st1" d="M19.7,24.1c0,0-0.1,0-0.2,0C19.5,24.2,19.6,24.2,19.7,24.1z"/>
				<path class="st1" d="M90.8,2.1C90.8,2.1,90.8,2.1,90.8,2.1C90.8,2,90.7,2,90.8,2.1z"/>
				<path class="st1" d="M75.1,0.1h0.2c0,0,0.1,0,0.1,0L75.1,0.1z"/>
				<path class="st1" d="M1,88.6C1,88.6,1,88.6,1,88.6C0.9,88.2,1,88.4,1,88.6z"/>
				<path class="st1" d="M90.8,146.1c-1.3,0.2,2.1-0.7,0.1-0.4C91.1,145.7,89.2,146.3,90.8,146.1z"/>
				<path class="st1" d="M61.3,1.6c-0.2,0-0.4,0.1-0.5,0.1C61,1.6,61.2,1.6,61.3,1.6z"/>
				<path class="st1" d="M90.9,145.7L90.9,145.7l-0.2,0C90.8,145.7,90.8,145.7,90.9,145.7z"/>
				<path class="st1" d="M13,115.9c0-0.1,0-0.2,0-0.3C12.9,115.6,12.9,115.7,13,115.9z"/>
				<path class="st1" d="M3.8,95.8l0.1,0.5C3.9,96.1,3.8,95.9,3.8,95.8z"/>
				<path class="st1" d="M20.6,124.5c0.2,0.2,0.2,0.3,0.5,0.6c0,0,0-0.1,0-0.1C21,124.9,20.8,124.8,20.6,124.5z"/>
				<path class="st1" d="M29.5,132.5c0-0.1-0.1-0.1-0.1-0.2c-0.1-0.1-0.2-0.1-0.3-0.2L29.5,132.5z"/>
				<path class="st1" d="M122,18.2c-0.2-0.2-0.2-0.4-0.3-0.5C121.7,18,120.4,16.9,122,18.2z"/>
				<path class="st1" d="M61.7,1.5c-0.1,0-0.2,0-0.3,0.1C61.5,1.5,61.6,1.5,61.7,1.5C61.7,1.5,61.7,1.5,61.7,1.5z"/>
				<path class="st1" d="M23.1,122.8l1.2,1.4C24,123.7,23.6,123.2,23.1,122.8z"/>
				<path class="st1" d="M144.7,93.6l0.1-0.4C144.7,93.3,144.7,93.5,144.7,93.6z"/>
				<path class="st1" d="M28.3,127.8c0.2,0.3,0.4,0.6,0.6,0.9c0.1,0,0.2,0.1,0.2,0.1L28.3,127.8z"/>
				<path class="st1" d="M121.7,17.7C121.7,17.7,121.7,17.7,121.7,17.7C121.7,17.7,121.7,17.7,121.7,17.7z"/>
				<path class="st1" d="M111.7,10.8c1.5,0.9,0.8,0.3,1.2,0.4c1.8,1.1,0.7,0.7,1.3,1.2c0.6,0.4,1.1,0.6,1.6,0.9
					c0.5,0.3,0.9,0.5,1.3,0.8c0,0.1,0.2,0.2,0,0.1c0.3,0.2,0.7,0.4,1.1,0.7c0.2,0.1,0.4,0.3,0.6,0.4c0.2,0.2,0.4,0.3,0.6,0.5
					c0.8,0.7,1.7,1.3,2.4,1.7c0.1,0.1,0.1,0.2,0.1,0.2c-0.1-0.3,0-0.4,0.1-0.5c0.6,0.5,1.2,0.8,1.3,1.2c-0.4-0.3-0.4-0.3-0.7-0.4
					l0.7,0.5c0.4,0.7-0.9-0.7-1-0.5c0.6,0.5,1.3,1,2,1.5c0.6,0.5,1.2,1,1.6,1.5c0,0.4-2.1-2-1.1-0.6c-0.2-0.2-0.4-0.5-0.6-0.7
					l-0.7-0.7c0.8,1.3-0.8-0.8-0.2,0.5c0.2,0.2,0.4,0.4,0.6,0.6c0.2,0.2,0.3,0.3,0.5,0.5c0.3,0.3,0.6,0.5,0.8,0.8s0.5,0.5,0.8,0.8
					c0.3,0.3,0.6,0.6,1,1.1c0.5,0.3,0.1-0.3,0.6,0c0.7,0.6,1.1,1.1,1.4,1.5c0.3,0.4,0.4,0.7,0.5,1c0.2,0.6,0.4,1,1.4,1.9
					c0.6,0.4,1.1,0.3,2.1,1.9l-0.7-0.3c0.7,1,1.1,1.2,1.3,1.4c0.3,0.2,0.6,0.5,1.2,1.6c-0.4-0.3-1.2-1.5-1-1.2
					c0.7,1.5,0.9,0.8,1.6,1.9c-0.1,0.1-0.1,0.3-0.2,0.4c0.4,0.5,0.7,1.1,1.1,1.6c0.4,0.5,0.8,1.1,1.2,1.7c0.8,1.2,1.6,2.3,2.2,3.6
					c-0.2-0.1-0.5-0.5-0.3,0.2c0.2,0.4,0.4,0.8,0.7,1.2c0.1,0.2,0.2,0.4,0.3,0.6c0.1,0.2,0.2,0.4,0.3,0.6c0.4,0.9,0.8,1.7,1.1,2.6
					c0.3,0.9,0.6,1.8,0.9,2.7c0.1,0.2,0.1,0.4,0.2,0.7c0.1,0.2,0.1,0.4,0.2,0.7c0.1,0.4,0.2,0.9,0.3,1.3l0.8,1.1
					c0.1,0.3,0,0.6-0.2,0.3c0.2,1.3,0.3,0,0.6,0.6c0.2,0.7,0.1,1-0.2,0.6c1.1,2.2,2.3,6.5,2.3,9l-0.2-0.5c0,0.2,0.1,0.5,0.1,0.7
					c0,0.2,0.1,0.4,0.1,0.5c0.1,0.3,0.2,0.6,0.3,0.8c0.2,0.5,0.4,1,0.4,1.9l-0.1-0.3c0.1,2.1,0.4,4.4,0.4,6.5c0,0.5,0,1.1,0,1.6
					c0,0.5,0,1-0.1,1.5c0,0.5-0.1,0.9-0.1,1.4c0,0.2-0.1,0.4-0.1,0.7s-0.1,0.4-0.1,0.6c0.2,0.3,0.1,1.4,0,2.4c0,0.3-0.1,0.5-0.1,0.7
					c0,0.2,0,0.4-0.1,0.7c0,0.4,0,0.7,0.2,0.8c-0.3,1.2-0.4,1.6-0.6,2.2c-0.2,0.5-0.4,1.2-0.7,2.9c-0.1,0.9,0.1,1.4-0.1,2.5l-0.3,0
					l0,1.6c-0.2,0.2-0.4,0.5-0.5,0.7l-0.2,1.1c0.1-0.4,0.4-0.8,0.4-0.8c-0.1,0.8-0.5,1.8-0.8,2.6c-0.3,0.8-0.6,1.3-0.7,1.3l-0.5,1.9
					c-0.2,0.6-0.4,1.3-0.6,1.9c-0.1-0.1,0.1-0.8,0.3-1.3c-0.5,2.1-0.4,0.3-0.8,2.2c0.1-0.2,0.1,0.2,0.1,0.3
					c-0.1,0.2-0.2,0.5-0.4,0.8c-0.2,0.3-0.3,0.7-0.5,1.1c-0.2,0.4-0.4,0.8-0.5,1.2c-0.1,0.2-0.2,0.4-0.3,0.6s-0.2,0.4-0.3,0.6v-0.3
					c-0.3,0.7-0.7,1.3-1,2c-0.2,0.3-0.3,0.7-0.5,1c-0.2,0.3-0.4,0.7-0.6,1c-0.4,0.7-0.7,1.4-1.1,2.1c-0.4,0.7-0.9,1.4-1.3,2.1
					c0.7-1,0.7-0.6,0.2,0.2l-0.4,0.2c-0.2,0.6,0.6-0.8,0,0.3c-0.7,1-0.6,0.6-0.3-0.1l-0.8,1.3c-0.1,0,0.1-0.3,0.1-0.4
					c-0.3,0.6-1.6,2-2,2.8l-0.1,0c-0.5,0.7-0.9,1.2-1.3,1.7c-0.4,0.5-0.8,0.9-1.1,1.4c-0.4,0.4-0.7,0.8-1.1,1.3
					c-0.4,0.4-0.8,0.9-1.2,1.3c0.1,0.1-0.7,0.9-1.2,1.5c-0.7,0.7-1.5,1.4-2.3,2.1c-0.8,0.7-1.7,1.4-2.6,2.2
					c-0.3,0.3-0.5,0.4-0.6,0.5s-0.1,0.1-0.1,0.1c0,0,0.1,0-0.2,0.2c-0.2,0-2,1.5-1.1,0.6c-0.6,0.4-1,0.8-1.4,1.1
					c-0.4,0.3-0.8,0.6-1.2,0.9s-0.8,0.6-1.3,1c-0.5,0.4-1.1,0.8-1.9,1.3c0.3-0.2,0.7-0.4,0.6-0.2c-0.5,0.4-1.3,0.8-1.2,0.7l0.1-0.1
					c-1.7,1.1-3.8,2.2-5.8,3.1c-1,0.5-2,0.9-2.9,1.3c-0.5,0.2-0.9,0.4-1.3,0.6c-0.4,0.2-0.8,0.4-1.2,0.5l0.2-0.1l-1.5,0.7
					c-0.3,0.1-0.5,0.2-0.8,0.3l-0.8,0.3c-1.5,0.5,0.8-0.4-0.3-0.1c-0.8,0.3-1.6,0.6-2.3,0.9c-0.7,0.2-1.4,0.4-2,0.6
					c-0.3,0.1-0.6,0.2-1,0.3l-0.5,0.1c-0.2,0-0.3,0.1-0.5,0.1c-0.7,0.1-1.3,0.3-2,0.5c-0.3,0-0.6,0-1,0.1c-0.4,0-0.8,0.1-1.3,0.1
					c-0.4,0.1-0.9,0.1-1.4,0.2s-1,0.2-1.6,0.2c-1.1,0.1-2.1,0.3-3.2,0.4c-1,0.1-2,0.1-2.7,0.1l0.2,0.1c-0.8,0.2-1,0-1.6,0
					c0.1,0.1,0.9,0.1,0.4,0.2c-0.8,0-1.7,0.1-2.6,0.1c-0.4,0-0.9,0-1.3,0c-0.4,0-0.9,0-1.3-0.1s-0.9-0.1-1.3-0.1
					c-0.4,0-0.9,0-1.3-0.1c-0.9-0.1-1.7-0.2-2.6-0.3l-0.7-0.1l-0.7-0.1l-1.3-0.2c-0.9-0.2-1.7-0.3-2.6-0.5c-0.8-0.2-1.7-0.4-2.5-0.6
					c-0.8-0.2-1.7-0.5-2.5-0.7c-1.2-0.3-1.6-0.2-2.1-0.2s-1,0.1-2.5-0.6l1-0.1c-0.3-0.1-0.6-0.1-0.9-0.2c-0.3-0.1-0.6-0.2-0.9-0.3
					c-0.6-0.2-1.2-0.4-1.8-0.6c-0.6-0.2-1.2-0.4-1.8-0.7l-1.8-0.7c-1.2-0.5-2.3-1.1-3.5-1.6c-0.6-0.3-1.1-0.6-1.7-0.8
					c-0.3-0.1-0.6-0.3-0.9-0.4c-0.3-0.1-0.6-0.3-0.8-0.4c0.3,0.1,0.4,0,0.8,0.2c-0.2-0.2-0.5-0.4-0.8-0.6s-0.7-0.4-1.1-0.6
					c-0.8-0.4-1.4-0.6-1.5-0.5c-0.6-0.4,0-0.3-0.4-0.6c-0.4-0.4-1-0.6-1.5-0.9c-0.5-0.3-1-0.5-1.2-0.8c0-0.1,0.3,0.1,0.5,0.2
					c-0.6-0.3-2.5-1.9-2.2-1.2c-0.7-0.6-1.4-1.1-2.1-1.6c-0.3-0.3-0.7-0.5-1-0.7c-0.2-0.1-0.3-0.3-0.5-0.4c-0.1-0.1-0.3-0.3-0.4-0.4
					c-1-0.3-2.3-2.2-2.9-2.1c0.5-0.4-2-2.6-3-3.3c0.4,0.2-0.6-0.9-0.1-0.7c-0.9-0.9-1.8-1.8-1.9-1.4c-0.5-1.2-1.5-2-2.2-2.8
					c-0.4-0.4-0.8-0.8-1-1.2c-0.1-0.2-0.3-0.4-0.3-0.6c-0.1-0.2-0.1-0.4-0.1-0.6c-0.6-0.8-1.3-1.5-1.9-2.3c-0.6-0.8-1.1-1.5-1.7-2.3
					c-0.1-0.2-0.3-0.4-0.4-0.6s-0.3-0.4-0.4-0.6c-0.3-0.4-0.5-0.8-0.8-1.2c-0.3-0.4-0.5-0.8-0.7-1.2c-0.2-0.4-0.4-0.8-0.7-1.2
					c0.2-0.1,0.4,0.2,0.6,0.5c0.1,0.2,0.2,0.3,0.3,0.5c0.1,0.2,0.2,0.4,0.4,0.6c0.5,0.8,1,1.6,1.2,1.4c-0.5-0.7-0.9-1.3-1.4-1.9
					c-0.4-0.6-0.8-1.2-1.2-1.7c-0.2-0.3-0.4-0.6-0.6-0.8c-0.1-0.2-0.2-0.3-0.3-0.4c-0.1-0.2-0.2-0.3-0.3-0.5
					c-0.3-0.6-0.6-1.3-0.9-2.1c-0.3-0.8,0.5,0.3,0.7,0.6c-0.2-0.4-0.4-0.8-0.6-1.1c-0.2-0.4-0.3-0.8-0.5-1.1
					c-0.3-0.8-0.6-1.5-0.9-2.3c-0.3-0.8-0.5-1.5-0.8-2.2c-0.1-0.4-0.3-0.7-0.4-1.1C6.2,94.7,6.1,94.3,6,94c0.1,0,0.2,0.3,0.3,0.6
					C6.1,94,6,93.2,5.8,93.3L6,93.9c-0.2,1.1-1.6-2-1.8-2.1c1.1,0.8-0.5-3,1-1.7c-0.1-0.4-0.4-0.8-0.6-0.7c-0.1-0.6,0-0.8,0.4-0.3
					c-0.2-0.5-0.3-0.8-0.4-1.1c-0.1-0.3-0.2-0.4-0.3-0.6C4.2,87.2,4,86.9,3.9,86c0.1,0,0.3,0.4,0.5,0.5c-0.2-0.4-0.5-0.9-0.7-1.5
					c0-0.1-0.1-0.3-0.1-0.4c0-0.2-0.1-0.3-0.1-0.5c-0.1-0.3-0.1-0.7-0.1-1.1c0.1,0.1,0.2-0.1,0.3,0.4c-0.1-0.7-0.2-1.3-0.4-2
					c0-0.2-0.1-0.3-0.1-0.5S3,80.6,3,80.5c-0.1-0.3-0.1-0.6-0.2-0.9c-0.1-0.6-0.2-1.2-0.3-1.9c0-0.3,0-0.7,0-1s0-0.7,0-1.1
					c0.7,0.9,0.2-1.1,0.8-1.2c0-0.3-0.1-0.6-0.1-0.8l-0.1-0.8l-0.3,0.7c0-0.7-0.1-1.4-0.1-2.1s-0.1-1.3,0-1.9l0.1,0.6l0.1,0.6
					c0-0.5,0-0.9,0-1.4l0-1.4l-0.3,1.5c-0.2-1.5-0.7,0.1-0.4-1.8c0,0.4,0.1-1.5,0.5-2.2v0c-0.1-0.7-0.2-1.5,0.1-2.6
					c0.2-0.3,0.6,0.3,0.7,0.2c-0.2-0.4,0-1.2,0.1-2.1c0.1-0.9,0.2-1.8,0.1-2.3c0,0.3,0.3,0.4,0.4,0.3L3.9,58
					c0.3-0.6,0.3-0.7,0.5-0.6c0.5-2-0.8,0.5,0-1.8c0,0.2,0.1,0.1,0,0.5c0.1-0.3,0.2-0.6,0.2-0.9c0.1-0.3,0.2-0.6,0.2-0.9
					c0.2-0.6,0.3-1.1,0.4-1.7c0.1-0.3,0.1-0.6,0.2-0.8c0.1-0.3,0.2-0.5,0.3-0.8C6,50.5,6.1,50,6.4,49.5c0.7-0.5-0.5,1.9,0.2,1.3
					c0.8-3.1,1.7-6.5,3.2-9.3L9.4,42c-0.2-0.3,0.1-0.8,0.6-1.4c0.2-0.3,0.5-0.6,0.7-1c0.2-0.3,0.4-0.7,0.5-1.1
					c-0.1,0.4,0.1,0.6,0.1,0.5c0.6-0.9,1.1-1.9,1.6-3c0.3-0.5,0.6-1.1,0.9-1.7c0.2-0.3,0.3-0.6,0.5-1c0.1-0.2,0.2-0.3,0.3-0.5
					c0.1-0.2,0.2-0.3,0.3-0.5l-0.1,0.4c0.4-0.5,0.9-1.1,1.4-1.8c0.3-0.3,0.5-0.7,0.7-1c0.3-0.3,0.5-0.6,0.7-0.9
					c0.1-0.4,0.6-1,0.2-0.8c0.4-0.4,0.8-0.7,1.1-1.1c0.4-0.4,0.7-0.7,1-1.1c0.3-0.4,0.6-0.8,0.9-1.2l0.2-0.3l0.2-0.3
					c0.2-0.2,0.3-0.4,0.5-0.6c0.3-0.4,0.6-0.8,0.9-1.1s0.6-0.7,1-1.1c0.7-0.7,1.4-1.3,2.1-1.8c-0.3,0.3-0.7,0.8-0.4,0.6l0.5-0.6
					c0.2-0.2,0.4-0.4,0.6-0.5l1.1-1.1c-0.3,0-0.4,0.2-1,0.5c0.2-0.4,0.9-1,1.5-1.5c-0.5,0.5-0.5,0.6-0.2,0.5s0.7-0.4,1-0.6
					c-0.1,0,0-0.2-0.1-0.2c1.5-0.8,0-0.5,1.9-1.7l0,0.1c0.2-0.1,0.3-0.3,0.5-0.4s0.3-0.3,0.5-0.4c0.3-0.3,0.7-0.5,1-0.8
					c0.4-0.1-0.7,0.6-0.7,0.8c1-0.8,1.9-1.8,3-2.3c-0.4,0.3-1.1,0.8-1.5,1.1c0.3-0.1,0.5-0.3,0.7-0.4c0.2-0.1,0.3-0.2,0.5-0.3
					c0.3-0.2,0.5-0.3,0.9-0.6l-0.1,0.1c0.6-0.4,1.2-0.8,1.9-1.1c-0.2,0.1-0.3,0.2-0.5,0.3c0.3-0.3,0.6-0.6,1-0.8s0.7-0.4,1.1-0.7
					c0.4-0.2,0.8-0.5,1.2-0.7c0.4-0.2,0.9-0.5,1.3-0.8c-1.8,1.2-0.3,0.3-0.3,0.5c0.5-0.2,1.3-0.6,1.1-0.4C42.7,8,43,7.9,43.5,7.7
					c0.4-0.2,0.9-0.4,1.5-0.8c0.1,0,1-0.5,0.8-0.3c1.2-0.6-0.3,0.1-0.2,0c0.9-0.5,2-0.9,3.3-1.4c0.3-0.1,0.6-0.2,1-0.4
					c0.3-0.1,0.7-0.2,1-0.3c0.7-0.2,1.4-0.5,2-0.8c0.3-0.1,0.6-0.2,0.8-0.3s0.5-0.2,0.7-0.2c0.4-0.1,0.8-0.3,1.1-0.4
					s0.7-0.2,1.1-0.4c0.4-0.1,0.9-0.2,1.4-0.4c0.8-0.1-0.6,0.2-0.6,0.2c0.6-0.1,1.2-0.3,1.7-0.4c0.5-0.1,1.1-0.3,1.7-0.4
					c-0.2,0.1,0,0,0.4,0c1-0.2,0.6-0.2,1.9-0.4c-0.2,0.1-0.5,0.1-1,0.3c0.6-0.1,1.1-0.2,1.7-0.3C64.5,1,65,0.9,65.6,0.8
					c0.3,0-0.7,0.1-1.1,0.2c1.3-0.2,3.4-0.5,3.9-0.5l-0.8,0c0.5,0,0.3,0-0.1,0.1c-1.1,0.2-1.7,0.2-1.7,0.2l0.8-0.1
					c-0.4,0-1.3,0.1-2.2,0.3c-0.5,0.1-1,0.2-1.5,0.3c-0.5,0.1-1,0.2-1.4,0.3l0.7-0.2l-1.7,0.4c-0.2,0-0.3,0-0.3,0s0.1-0.1,0.5-0.1
					c-0.3,0-0.5,0.1-0.7,0.1c-0.2,0-0.3,0.1-0.4,0.1c-0.2,0.1-0.5,0.1-1,0.2c-0.1,0-0.1,0,0,0l-1.2,0.3c0.2-0.1-0.2,0,0.5-0.2
					c-0.5,0.1-1,0.2-1.4,0.3c-0.4,0.1-0.8,0.2-1.1,0.3c-0.7,0.2-1.2,0.4-1.6,0.4L53.9,3c-0.4,0.1-0.6,0.2-0.8,0.3
					c-0.2,0.1-0.3,0.1-0.4,0.2c-0.2,0.1-0.2,0.1-0.2,0.1c0,0,0.2,0-0.9,0.4c-0.5,0.1-1,0.2-1.5,0.3l-0.3,0.2
					c-0.3,0.1-0.9,0.3-0.8,0.2c-1,0.5,0.2,0-0.4,0.3c-0.7,0.2-1.7,0.6-2.5,0.9c-0.8,0.4-1.5,0.7-1.7,0.6C44,6.8,45.8,6,44.4,6.7
					c-0.3,0-0.7,0.2-1.2,0.4c-0.5,0.3-1.1,0.6-1.7,0.9c0.3-0.3,1.5-0.8,0.2-0.3c-0.3,0.3-0.9,0.6-1.6,0.8c-0.6,0.3-1.3,0.6-1.8,0.9
					c0,0.1-0.5,0.4-1.3,0.9c-0.7,0.4-1.7,1-2.5,1.6c0-0.2-3.1,1.9-4.6,2.9l0-0.1c-0.1,0.2-0.5,0.6-1,1c-0.3,0.2-0.5,0.5-0.8,0.7
					c-0.3,0.2-0.5,0.5-0.8,0.7c-0.1-0.2,0.1-0.4,0.6-0.9c-0.3,0.3-0.6,0.5-1,0.8c-0.2,0.3-0.4,0.6-1,1.1l0.1-0.4
					c-0.3,0.3-0.6,0.6-1,0.9c-0.3,0.3-0.6,0.6-0.9,1s-0.6,0.7-1,1c-0.2,0.2-0.4,0.3-0.6,0.5c-0.2,0.2-0.4,0.4-0.6,0.5
					c0.1,0.3,1.7-0.8,0.2,1c-0.2,0-0.4-0.1,0-0.6c-0.1,0.1-0.4,0.6-0.7,0.8l0.5-0.8c-0.8,0.6-0.2,0.5-0.8,1.1
					c-0.1-0.1-0.5,0.3-0.5,0.1c0.1-0.2,0.5-0.4,0.7-0.7c-0.3,0.3-0.7,0.6-1,0.9c-0.3,0.3-0.6,0.5-0.8,0.6c0.1,0,0.2,0.2-0.2,0.7
					c-1.1,1.3-0.6,0.3-1.3,0.9c-0.2,0.4-1,1.1-0.7,1.4c-0.3,0.4-0.5,0.4-0.7,0.5c-0.2,0.4-0.9,1.2-1.3,1.8s-0.7,1.1-0.3,0.9l0.1-0.2
					c0,0-0.1,0.1-0.1,0.1c0,0,0,0,0,0v0c-0.4,0.6-0.8,1.2-1.2,1.8c-0.4,0.6-0.8,1.2-1.3,1.8c-0.9,1.2-1.7,2.4-2.4,3.7l-0.1-0.1
					c-0.4,0.8-0.8,1.6-1.1,2.4c-0.4,0.8-0.7,1.5-0.8,2.2c-0.2,0.5-0.7,1-0.8,0.7c-0.2,0.6-0.3,1-0.5,1.4c-0.2,0.4-0.4,0.9-0.8,1.7
					c0.3-1.3-0.4,0.3,0.3-1.3c-0.7,1.5-1.1,1.8-1.4,3.6c-0.1-0.7-0.8,1.1-1,1.9l0.6-1c-0.3,0.9-0.5,1.6-0.8,2.4l-0.3-0.6
					c-0.2,0.4-0.4,0.8-0.5,1.2c-0.1,0.4-0.2,0.8-0.3,1.2c-0.2,0.8-0.3,1.5-0.3,2.3c-0.1,0.7-0.2,1.5-0.3,2.1c0,0.4-0.1,0.7-0.3,1
					c-0.1,0.3-0.3,0.6-0.4,0.9c0.2,1,0.6-1.8,0.8-0.9c-0.3,1.5-1.4,3.1-1.4,3.6c-0.3,1.1-0.2,1.6-0.1,2.2c0.1,0.3,0.1,0.6,0.1,0.9
					c0,0.2,0,0.4,0,0.6s0,0.5-0.1,0.8c0.2-0.3,0.7-0.5,0.7,1.2c-0.2,1.6-0.9,1.9-1,0.9c0-0.4,0.1-0.6,0.1-0.6c0-0.5-0.1-1.2-0.3-0.6
					l0.2,0.2c-0.1,0.4-0.2,1.1-0.3,1.7c-0.1,0.6-0.2,1-0.3,0.7c0.1,1.2,0.3,0.5,0.4-0.4c-0.2,1-0.2,1.8-0.2,2.7c0,0.4,0,0.8,0,1.3
					c0,0.4,0,0.9,0,1.4c0.1-0.3,0.3-0.7,0.3-0.3c-0.1,1.6,0,1.9,0.1,2.1c0.1,0.1,0.1,0.2,0.2,0.4c0.1,0.2,0.1,0.5,0.2,1
					c-0.2,1.2-0.7-0.4-0.3,1.7c-0.1,1.3-0.4,0.3-0.6-0.2c0.1,0.5,0.2,0.9,0.2,1.4c0.1,0.4,0.1,0.9,0.1,1.3c0,0.8-0.1,1.5,0,2.1
					l-0.3-1c0.2,0.6,0.2,1.1,0.3,1.6c0.1-0.2,0.2-0.4,0.3-0.6c0,0.3,0,0.6,0,0.8c0,0.2,0,0.3-0.1,0.3c0.3,0.6,0.5-0.6,1,0.6
					c0,0.4,0.1,1,0.2,1.5c0,0.3,0.1,0.5,0.1,0.7c0,0.2,0,0.4-0.1,0.5c0-0.3-0.1-0.5-0.1-0.7c0-0.2-0.1-0.3-0.1-0.3
					c-0.1-0.1-0.1-0.1-0.2,0c-0.1,0.1-0.3,0.3-0.5-0.7c0.1,0.4,0.2,0.9,0.3,1.5c0,0.1-0.1-0.1-0.2-0.2c0.1,2.5,0.8,1,1.3,3.4
					c-0.2-0.1-0.3,0.1-0.3,0.3s0,0.6,0.1,0.8c-0.3-1,0.3-0.6,0.8,0.3c0.2,1.6,0.6,1.6,0.8,2.4l-0.2-0.9c0.2,0.1,0.3,0.4,0.4,0.7
					c0.1,0.3,0.3,0.8,0.5,1.3c-0.2,0.2-0.5-0.9-0.4-0.5c0.4,0.5,0.5,1.2,0.6,2c0.1,0.4,0.1,0.8,0.2,1.2s0.3,0.8,0.5,1.2
					c0.1,0.8-0.4,0.3-0.3,0.9c0.5,0.8,0.6,1.4,0.8,1.9c0.1,0.5,0.3,1.1,0.8,1.9c0.1-0.7-0.1-0.7,0.9,0.4L6,102.9l1.3,1.7
					c-0.2-0.5-0.5-0.9-0.7-1.3c-0.3-0.4-0.5-0.8-0.5-1.1c0.3,0.4,0.5,0.6,0.5,0.6c0.1,0,0.1-0.1,0.1-0.4c0,0.7,0.4,1.3,0.8,1.9
					c0.4,0.6,0.8,1.2,1,2l-0.8,0.3c0.2,0.6,0.4,1.1,0.7,1.6c0.1,0.3,0.3,0.5,0.4,0.7c0.1,0.1,0.2,0.2,0.2,0.4
					c0.1,0.1,0.2,0.2,0.3,0.3c0.4,0.5,0.7,0.9,1.1,1.5s0.7,1.2,1.1,1.8c-0.1-0.3-0.3-0.6-0.4-0.9c0.5,0.2,1.1,1.6,1.7,2.4
					c-0.3,0.1,0,0.7,0.1,1.1c0.1-0.2,1.3,1.9,1.9,1.8c0.2,0.4,0.3,0.9,0.5,1.3c1.5,2.1,2.4,1.8,3.9,3.6c-0.7-0.3-0.1,0.6-1.3-0.5
					c0.5,0.6,1,1.2,1.1,1.1c0.1,0.2,0.5,0.6,1,1c0.5,0.4,1,0.8,1.1,1.1c0.3,0.2,0.6,0.1,1.2,0.7c0,0.1-0.1,0.1-0.1,0.1
					c0-0.1,0.3,0.2,0.5,0.3s0.4,0.2,0.2-0.2c0.3,0.6,0.8,1.1,1.3,1.7c0.3,0.3,0.6,0.6,0.9,0.9c0.3,0.3,0.6,0.6,1,0.8
					c0.6,0.5,1.3,1.1,1.8,1.6c0.6,0.5,1.1,1,1.4,1.4c0.4,0.3,0.7,0.5,1.1,0.8c0.4,0.3,0.8,0.5,1.2,0.8c0.8,0.5,1.5,1,2.2,1.5
					c-0.1,0-0.1,0.1-0.3-0.1c1.7,1.4,1.5,0.1,3.5,1.7c0.5,0.5,0.1,0.4-0.2,0.2c-0.3-0.2-0.7-0.4-0.4-0.2c-0.1,0.4,0.6,0.8,1.4,1.2
					c0.8,0.4,1.8,0.9,2.5,1.4l-0.4-0.1c1,0.8,2.9,1.2,4.8,2.1c0,0-0.1,0-0.1,0.1c0.4,0.1,0.8,0.2,1.3,0.3s1,0.3,1.5,0.4
					c0.5,0.2,1.1,0.3,1.6,0.5c0.3,0.1,0.5,0.2,0.8,0.3s0.5,0.1,0.8,0.2c-0.7,0.1-0.9-0.1-0.7,0.2c0.9,0.3-0.1-0.5,1.6,0
					c0.5,0.3,1.7,0.9,1.8,1.2c-0.5-0.1-1.1-0.3-1.6-0.5c0.3,0.3,0.9,0.5,1.4,0.6c0.5,0.1,1.1,0.2,1.5,0.3l-0.2,0.1
					c2.5,0.6,2.7,0.2,5.4,0.9l-0.3-0.2c0.8,0,1.1,0.1,1.4,0.2c0.3,0.1,0.6,0.3,1.4,0.2l0.4,0.4c0.3,0,0.6,0.1,1,0.1
					c0.4,0,0.9,0,1.4,0c0.5,0,1,0,1.5,0.1c0.5,0,1,0.1,1.4,0.1c-0.5,0.1-1.3,0.1-2.1,0.1c-0.8,0-1.7,0-2.3,0c1,0.1,3.4,0.4,3.9,0.3
					c-0.4,0-0.9,0-1.3-0.1c1.3-0.1,2.8-0.1,4.8,0c-0.2,0.3,1.1,0.4,2.6,0.4c0.4,0,0.8,0,1.2,0c0.4,0,0.8,0,1.1,0
					c0.7,0,1.3,0,1.7,0.1c0.4-0.1,0.9-0.1,1.3-0.1c0.4-0.1,0.9-0.1,1.3-0.1c0.9-0.1,1.8-0.1,2.7-0.2c0.9-0.1,1.8-0.2,2.8-0.3
					c0.2,0,0.5-0.1,0.7-0.1c0.2,0,0.5-0.1,0.7-0.1c0.5-0.1,1-0.2,1.5-0.3c-1.5-0.1,1.2-0.2,0.9-0.6c0.5-0.1,0.8-0.2,1-0.2
					c0.2-0.1,0.3-0.1,0.4-0.1c0.9-0.2,1.9-0.3,2.8-0.5c0.3-0.1,0.1,0-0.2,0.1c-0.3,0.1-0.7,0.2-0.6,0.2c0.3-0.1,0.5-0.1,0.6-0.1
					s0.3-0.1,0.4-0.1c0.2,0,0.3-0.1,0.4-0.1c0.1,0,0.2,0,0.9-0.1c-0.3,0,0.7-0.4,1.8-0.7l-1.7,0.3c0.7-0.3,1.2-0.4,1.6-0.5
					c0.4-0.1,0.7-0.2,1-0.3c0.6-0.1,1.2-0.3,2.6-0.9l-0.8,0.4c0.7-0.3,2-0.8,3.3-1.3c0.3-0.1,0.6-0.3,0.9-0.4
					c0.3-0.1,0.6-0.3,0.9-0.4c0.6-0.3,1-0.5,1.3-0.7c0.3-0.1,0.6-0.2,0,0.1c3.3-1.5,7-3.9,9.4-5.4l-0.2,0.2c0.6-0.4,0.9-0.7,1.6-1.2
					c0,0.1-0.2,0.2,0.1,0c0.3-0.2,1.4-1.1,2.1-1.6l-0.6,0.5c0.7-0.5,1.3-1,1.9-1.4c0.6-0.4,1.1-0.9,1.5-1.3c0.5-0.4,0.9-0.9,1.4-1.3
					c0.5-0.4,1-0.9,1.5-1.4c0.1,0.1,0.6-0.3,1.3-0.9c0.7-0.6,1.4-1.3,1.9-1.7l0,0.1c0.7-0.7,1.4-1.4,2-2.1c0.6-0.7,1.1-1.3,1.7-2
					c0.6-0.6,1-1.3,1.6-2c0.5-0.7,1.1-1.4,1.6-2.2c0.4-0.4,0.9-1.1,1.5-1.8c0.6-0.7,1.1-1.6,1.7-2.5c0.1-0.2,0.3-0.4,0.5-0.7
					c0.1-0.2,0.3-0.5,0.4-0.7c0.3-0.5,0.6-0.9,0.9-1.4c0.6-0.9,1.1-1.9,1.6-2.7c-0.3,0.5-0.2-0.2,0.1-0.8c0.5-0.8,0.9-2.3,1.1-2.1
					l-0.1,0.3c0.5-0.5,1.3-2.2,1.8-3.5l-0.3-0.4c0.5-0.8,1-1.8,1.4-2.8c0.2-0.5,0.4-1.1,0.6-1.6c0.1-0.3,0.2-0.5,0.3-0.8
					c0.1-0.3,0.1-0.6,0.2-0.8c0.1-0.5,0.3-1.1,0.4-1.6s0.3-1,0.4-1.4c0.2-0.9,0.5-1.6,0.8-2.1c0-0.4,0.1-0.9,0.2-1.4
					c0.1-0.5,0.1-1,0.1-1.5l0.3,0.1c0.1-0.6,0.3-1.2,0.4-1.7c0.1-0.5,0.2-1,0.3-1.5c0.1-0.5,0.1-1,0.2-1.6c0-0.3,0.1-0.6,0.1-0.9
					c0-0.3,0.1-0.7,0.1-1.1l0.2,0.7c0.1-0.9-0.1-1.4-0.3-2c-0.1-0.3-0.2-0.6-0.3-0.8c-0.1-0.3-0.1-0.6-0.1-1l0.5-0.5
					c0-0.8,0.1-1.5,0.1-2.3l0.1-0.6l0-0.6l0-1.2c0-0.8,0-1.5,0-2.3c-0.1-0.8-0.2-1.5-0.4-2.3c0.1,0,0.2,0.1,0.3,0.6
					c0-1.4-0.2-5.6-0.9-5c0.5-0.1-0.4-3.1-1-4.7l0.4,0.2c-0.8-1.3-0.9-1.3-1.4-3.1c-0.1-0.5,0.2-0.5,0.2,0.2c0-0.4-0.1-0.6-0.2-0.8
					s-0.2-0.3-0.3-0.5c-0.2-0.3-0.4-0.6-0.5-1.6l0.4,0.6c-0.4-1.5-0.5-1.4-1-2.1c-0.4-0.9-0.9-2.8-0.7-3.2c-0.3-0.1-0.8-0.8-1.1-1.7
					c0.1-0.2,0.3,0.1,0.4,0.3c-0.2-0.6-0.4-1.2-0.6-1.6c-0.2-0.5-0.5-0.9-0.7-1.3c-0.4-0.8-0.8-1.4-1.1-2.3c0.1-0.1,0.1-0.2,0-0.4
					c0.3,0.5,0.4,0.9,0.6,1.3c0.2,0.4,0.4,0.8,0.5,1.1c0.3,0.6,0.4,1,0.4,0.9c0.3-0.1-0.4-1.7,0.6-0.6c-0.4-0.6-1-1.3-1.5-2.2
					c-0.6-0.8-1.1-1.6-1.4-2.4c0-0.1,0-0.2,0-0.2l0.1,0.1c-0.1-0.3-0.3-0.6-0.5-0.9c-0.2-0.5-0.4-0.8-0.6-1.2
					c0.1-0.2-0.2-0.6-0.4-1.1c-0.1-0.3-0.3-0.5-0.4-0.8c-0.1-0.2-0.3-0.5-0.4-0.6c-0.2,0.2-0.8-0.7-0.5,0.3
					c-0.1-0.1,0.1,0.1,0.4,0.6c0.1,0.1,0.1,0.2,0.2,0.3c0,0,0,0-0.1,0c0.3,0.5,0.7,1.1,1.1,1.8c-0.5-0.5-0.9-1-1.3-1.9
					c-0.4-0.3-0.9-0.5-1.1-0.7c-0.1-0.6-0.4-1.4-0.7-2.1c-0.1-0.3-0.3-0.7-0.4-0.9c-0.1-0.3-0.2-0.5-0.2-0.5c-0.4-0.5-0.9-1-1.3-1.6
					c-0.2-0.3-0.4-0.6-0.7-0.8c-0.2-0.3-0.5-0.5-0.7-0.8c-0.5-0.5-0.9-1-1.4-1.4c-0.4-0.4-0.9-0.7-1.2-0.9c-0.5-0.5-0.4-0.7-0.6-1
					c0.3,0.3,0.6,0.7,0.9,0.8c-0.3-0.3-0.6-0.6-0.9-0.9c-0.2-0.2-0.3-0.4-0.5-0.5c-0.2-0.2-0.4-0.3-0.5-0.5
					c-0.7-0.6-1.3-1.2-1.5-1.2c-0.6-0.7-0.3-0.6-0.2-0.5c0.1,0,0.1,0.1,0.1,0s-0.3-0.3-0.8-0.7l0.3,0.2c-0.8-0.9-1.6-1.7-2.5-2.4
					c-0.8-0.7-1.7-1.3-2.6-1.9c-0.9-0.6-1.8-1.2-2.7-1.8c-0.4-0.4-0.9-0.7-1.4-1.1s-1-0.8-1.5-1.2c0.3,0.2,0.4,0.4,0.5,0.4
					c-0.3-0.2-0.6-0.5-0.9-0.7c-0.3-0.2-0.7-0.4-1-0.6c-0.7-0.4-1.3-0.9-2-1.3c-0.7-0.4-1.4-0.8-2.1-1.2c-0.3-0.2-0.7-0.4-1.1-0.6
					L109,8.2c-0.7-0.3-1.4-0.7-2.2-1.1c-0.7-0.3-1.5-0.6-2.2-1c-0.4-0.2-0.7-0.3-1.1-0.5c-0.4-0.1-0.7-0.3-1.1-0.4
					c-0.7-0.3-1.4-0.6-2.2-0.9c-1.7-0.6-1.9-0.6-2.9-0.9l-0.3-0.2c-0.6-0.2-1.2-0.3-1.8-0.4c-0.6-0.2-1.2-0.3-1.8-0.5
					C93,2.2,92.4,2.1,91.8,2S90.7,1.7,90,1.5c-0.7-0.1-1.4-0.2-2.2-0.4l0.4,0.1C87.6,1.2,86.7,1,86,0.9c-0.8-0.1-1.3-0.2-1.2-0.2
					c-0.1,0-0.4,0-0.8-0.1l0,0c-0.5-0.1-1-0.1-1.4-0.2L81,0.3c-1.1-0.1-1-0.1-1.1-0.1c0,0-0.1,0-0.3,0s-0.7-0.1-1.5-0.1
					c-1.2,0-3.5,0-3,0c0.5,0,1.3,0.1,1.3,0.1l-1.1,0c-0.2,0.1-1.1,0.1,1.7,0.2l1.9,0l0.6,0.1c-0.5-0.1-1.1-0.1-1.6-0.1
					c0.4,0,0.8,0,1.2,0.1c0.3,0,0.6,0,1,0.1c0.2,0,0.4,0.1,0.8,0.1l1.9,0.1c0.1,0-0.1,0-0.2,0s0,0,0.6,0.1c0.9,0.1-0.8-0.2,0.6,0
					c0.9,0.2,0.6,0.1,1.7,0.2c0.1,0-0.1,0-0.5,0c0.5,0.1,1.1,0.1,1.7,0.2c0.6,0.1,1.1,0.2,1.3,0.2c0.5,0.1,1.2,0.3,1.9,0.4
					c0.7,0.1,1.2,0.3,1.1,0.3c0.3,0,1.6,0.3,2.5,0.5c-0.8-0.1,0,0,0.9,0.3c0.9,0.3,2,0.6,1.8,0.6c0.3,0.1,0.7,0.1,1.2,0.3
					c0.5,0.2,1,0.3,1.5,0.5c0.6,0.2,1.1,0.4,1.7,0.6c0.6,0.2,1.1,0.4,1.6,0.6c-0.1,0-0.3-0.1-0.5-0.2c1.1,0.5,1.4,0.6,2.1,1
					c0.2-0.1,1.8,0.7,2.8,1c1.2,0.8-0.9-0.2-0.5,0.1c0-0.1,0.6,0.2,1.1,0.4c0.5,0.2,1,0.5,0.8,0.3c0.9,0.6,0.8,0.5,1.2,0.9
					c0.3-0.1,0.9,0.4,1.8,0.8c1.3,0.9,0.2,0.4,1.8,1.3C113,11.6,111.7,10.8,111.7,10.8z M139.6,40.3
					C139.6,40.3,139.6,40.3,139.6,40.3c-0.2-0.3-0.3-0.6-0.4-0.8C139.2,39.7,139.4,39.9,139.6,40.3z M141.1,43.4
					c-0.2-0.4-0.4-0.9-0.6-1.4c0.1-0.2,0.2-0.1,0.4,0.2C140.7,42.1,140.9,42.8,141.1,43.4z M139.7,35.7c0.3,0.5,0.4,0.7,0.4,0.8
					c-0.1-0.2-0.3-0.5-0.5-0.8c0,0-0.1,0-0.1,0C139.5,35.6,139.6,35.6,139.7,35.7z"/>
				<path class="st1" d="M138.8,35.1c-0.1-0.1-0.1-0.1-0.1-0.2c0,0.1,0.1,0.2,0.1,0.3c0.1,0,0.1,0.1,0.2,0.1
					C138.9,35.2,138.9,35.1,138.8,35.1z"/>
				<path class="st1" d="M15.1,30.3L15.1,30.3C15.1,30.3,15.2,30.3,15.1,30.3C15.2,30.3,15.2,30.3,15.1,30.3z"/>
				<polygon class="st1" points="145.5,89.8 145.5,89.8 145.5,89.5 				"/>
				<path class="st1" d="M29,17c0,0,0.1,0,0.2-0.1C29.2,16.8,29.1,16.9,29,17z"/>
				<path class="st1" d="M35.6,12.1l1-0.6C36.2,11.7,35.9,11.9,35.6,12.1z"/>
				<path class="st1" d="M41.1,8.9c0.1-0.1,0.1-0.1,0.1-0.1C41.2,8.7,41.2,8.7,41.1,8.9L41.1,8.9z"/>
				<path class="st1" d="M6.3,94.5c0,0.1,0.1,0.2,0.1,0.2C6.7,95.3,6.5,94.9,6.3,94.5z"/>
				<path class="st1" d="M2.8,65.2c0,0.3,0.1,0.6,0.1,1C2.9,65.6,3,65.2,2.8,65.2z"/>
				<path class="st1" d="M23,122.6C23,122.6,23,122.6,23,122.6c0,0.1,0.1,0.1,0.1,0.2L23,122.6z"/>
				<path class="st1" d="M2.7,67.5c0.1-0.5,0.1-1,0.1-1.4C2.8,66.6,2.7,67.1,2.7,67.5z"/>
				<path class="st1" d="M67.3,0.7l0.3,0c0,0,0,0,0,0L67.3,0.7z"/>
				<path class="st1" d="M67.6,0.6l0.3,0C67.8,0.6,67.7,0.6,67.6,0.6z"/>
				<path class="st1" d="M68.7,0.5L68,0.6C68.2,0.6,68.5,0.5,68.7,0.5z"/>
				<path class="st1" d="M59,2.1L59,2.1C58.9,2.1,59,2.1,59,2.1z"/>
				<path class="st1" d="M56.5,2.7c0.6-0.2,1.5-0.3,2.3-0.5l0.1,0c-0.2,0.1-0.7,0.2-1.1,0.3C57.3,2.5,56.8,2.6,56.5,2.7z"/>
				<path class="st1" d="M46.2,5.8c0.7-0.3,1.3-0.5,2-0.8c-0.4,0.1-0.8,0.2,0.1-0.1C45.7,5.8,48.8,4.8,46.2,5.8z"/>
				<path class="st1" d="M40.1,8.6c1-0.5,0-0.1,0-0.1c-0.3,0.2-0.5,0.3-0.5,0.3C39.6,8.8,39.7,8.7,40.1,8.6z"/>
				<path class="st1" d="M7.2,43.3L6.9,43C6.6,43.8,7.1,43.1,7.2,43.3z"/>
				<path class="st1" d="M5.7,52.5C5.8,52.3,6,52,6.2,51.8L6,51.3C5.9,51.7,5.8,52.1,5.7,52.5z"/>
				<polygon class="st1" points="1.8,57.2 1.8,56.8 1.6,58.3 				"/>
				<path class="st1" d="M27.6,131.4c0-0.2,0-0.3,0-0.5C27.1,130.6,26.7,130.9,27.6,131.4z"/>
				<path class="st1" d="M59.5,146.1c0.3,0.3,1.3,0.5,1.9,0.5c-0.4-0.1-0.8-0.2-1.1-0.3S59.7,146.1,59.5,146.1z"/>
				<path class="st1" d="M145,99.4l-0.2,0.7c0.1-0.4,0.3-0.8,0.4-1.3C145.2,99,145.1,99.2,145,99.4z"/>
			</g>
		</g>
	</g>
</g>
<g>
	<text transform="matrix(1 0 0 1 17.7607 62.8787)" class="st2 st3 st4"> </text>
	<g class="st5">
		<path class="st1" d="M27.6,46.6c0.7,0.3,1.3,0.6,1.8,1.1c0.5,0.5,0.9,1.1,1.2,1.7c0.3,0.7,0.5,1.4,0.6,2.2
			c0.1,0.8,0.2,1.6,0.2,2.4c0,0.8,0,1.7-0.1,2.5c-0.1,0.8-0.2,1.6-0.4,2.4c-0.1,0.8-0.3,1.5-0.5,2.2c-0.2,0.7-0.4,1.2-0.5,1.7
			c-0.1,0.2-0.2,0.5-0.4,0.8c-0.2,0.4-0.4,0.8-0.7,1.2c-0.3,0.5-0.6,0.9-1,1.4c-0.4,0.5-0.8,0.8-1.3,1.1c-0.5,0.3-1,0.5-1.6,0.6
			c-0.6,0.1-1.2,0-1.8-0.2c-1.1-0.4-2-1-2.7-1.8c-0.7-0.8-1.4-1.8-1.8-2.9c-0.5-1.1-0.8-2.2-1.1-3.4c-0.2-1.2-0.4-2.4-0.5-3.5
			c-0.1-1.1-0.1-2.1,0-3.1s0.2-1.7,0.4-2.2c0.1-0.3,0.3-0.7,0.5-0.9c0.2-0.3,0.4-0.5,0.6-0.7c0.2-0.2,0.4-0.3,0.7-0.3
			c0.2-0.1,0.4-0.1,0.7,0c0.5,0.2,0.8,0.5,1,1c0.2,0.5,0.3,1,0.4,1.5c0,0.6,0,1.1,0,1.6c-0.1,0.5-0.1,0.9-0.2,1.1
			c-0.1,0.1-0.1,0.2-0.2,0.3c-0.1,0.1-0.1,0.1-0.2,0.2c-0.1,0-0.2,0.1-0.3,0c-0.2-0.1-0.3-0.2-0.3-0.3c-0.1-0.2-0.1-0.4-0.2-0.6
			c0-0.2,0-0.4,0-0.7c0-0.2,0-0.4,0-0.6c0-0.2,0-0.3,0-0.5c0-0.2,0-0.3-0.1-0.5c0-0.2-0.1-0.3-0.1-0.4c0-0.1-0.1-0.2-0.2-0.2
			c-0.1-0.1-0.3,0-0.4,0.1c-0.1,0.1-0.2,0.3-0.2,0.4c-0.2,0.4-0.3,1.1-0.4,1.9c-0.1,0.8-0.1,1.7-0.1,2.7s0.2,2,0.3,3
			c0.2,1,0.5,2,0.8,2.9c0.4,0.9,0.9,1.7,1.4,2.4c0.6,0.7,1.3,1.2,2.2,1.5c0.5,0.2,1,0.2,1.4,0c0.4-0.2,0.9-0.5,1.2-1
			c0.4-0.4,0.7-1,1-1.6c0.3-0.6,0.6-1.2,0.8-1.9c0.3-0.8,0.5-1.6,0.7-2.5c0.2-0.9,0.4-1.8,0.5-2.8c0.1-0.9,0.1-1.8,0.1-2.7
			s-0.1-1.7-0.3-2.4c-0.2-0.7-0.4-1.4-0.7-1.9c-0.3-0.5-0.7-0.9-1.2-1c-0.3-0.1-0.6-0.1-1,0c-0.4,0.1-0.8,0.3-1.1,0.5
			s-0.7,0.6-1.1,0.9c-0.3,0.4-0.6,0.8-0.7,1.2c-0.2,0.4-0.3,0.8-0.4,0.9c-0.1,0.2-0.3,0.2-0.5,0.2c-0.2-0.1-0.3-0.2-0.3-0.5
			c0-0.2,0.1-0.5,0.2-0.9c0.4-1,0.8-1.8,1.3-2.4c0.5-0.6,1-1.1,1.6-1.4c0.5-0.3,1.1-0.5,1.6-0.5C26.7,46.4,27.2,46.4,27.6,46.6z"/>
	</g>
	<g class="st5">
		<path class="st1" d="M28.7,41.1c0.1,0.1,0.1,0.1,0.2,0.2c0,0.1,0,0.2,0,0.3c0,0.1-0.1,0.2-0.2,0.3c-0.1,0.2-0.3,0.3-0.5,0.4
			c-0.2,0.1-0.4,0.1-0.6,0.1c-0.2,0-0.4,0-0.5,0c-0.1,0-0.2,0-0.2,0c0,0,0,0.1,0.1,0.2c0.1,0.1,0.2,0.2,0.4,0.4
			c0.1,0.1,0.3,0.3,0.5,0.5c0.2,0.2,0.4,0.3,0.6,0.5c0.3,0.2,0.6,0.4,0.8,0.5c0.3,0.1,0.5,0.3,0.7,0.4c0.1,0.1,0.2,0.2,0.2,0.3
			c0,0.1,0,0.3-0.1,0.4c-0.1,0.2-0.3,0.3-0.6,0.3c-0.3,0.1-0.6,0.1-0.9,0s-0.7-0.1-1.1-0.3c-0.4-0.1-0.7-0.3-1.1-0.4
			c-0.3-0.2-0.7-0.3-1-0.5c-0.3-0.2-0.5-0.3-0.7-0.4c-0.2-0.1-0.3-0.3-0.5-0.5c-0.1-0.2-0.2-0.4-0.1-0.5c0.1-0.1,0.2-0.2,0.4-0.2
			c0.2,0,0.3,0,0.3,0c0,0,0.1,0,0.3,0.1c0.2,0.1,0.4,0.2,0.7,0.2c0.2,0.1,0.5,0.2,0.7,0.3c0.2,0.1,0.3,0.1,0.3,0.1
			c0.1,0.1,0.1,0.1,0.2,0c0,0-0.1-0.1-0.2-0.3c-0.2-0.2-0.4-0.3-0.6-0.5c-0.2-0.2-0.4-0.4-0.6-0.6c-0.2-0.2-0.3-0.3-0.3-0.3
			c-0.1-0.1-0.2-0.2-0.3-0.4c-0.1-0.1-0.1-0.2-0.1-0.3c0-0.1,0-0.2,0-0.3c0.1-0.2,0.3-0.3,0.4-0.3c0.5,0,1-0.1,1.4-0.1
			c0.4,0,0.7,0,1.1,0C28.3,40.9,28.6,41,28.7,41.1z"/>
	</g>
	<g class="st5">
		<path class="st1" d="M43.3,38.5c0,0.1,0.1,0.2,0,0.3c0,0.1-0.1,0.2-0.1,0.3s-0.1,0.1-0.2,0.2c-0.1,0.1-0.1,0.1-0.2,0.1
			c-0.7,0.3-1.4,0.7-2.2,1s-1.5,0.8-2.2,1.1c-0.7,0.4-1.3,0.7-1.8,0.9c-0.5,0.3-0.8,0.4-1,0.5c-0.9,0.4-1.7,0.6-2.3,0.5
			c-0.6-0.1-1.1-0.4-1.4-1c-0.2-0.3-0.2-0.7-0.2-1.1c0-0.4,0.1-0.8,0.3-1.2c0.2-0.4,0.3-0.8,0.6-1.2c0.2-0.4,0.4-0.8,0.6-1.2
			c0.2-0.4,0.3-0.7,0.4-1.1c0.1-0.3,0.1-0.6-0.1-0.9c-0.1-0.2-0.2-0.4-0.4-0.7s-0.4-0.4-0.5-0.6c-0.2-0.2-0.3-0.3-0.5-0.4
			c-0.2-0.1-0.3-0.2-0.3-0.1c0,0,0,0-0.1,0.1c-0.1,0.3-0.3,0.7-0.5,1.3c-0.3,0.5-0.6,1.1-1,1.7S29.4,38,29,38.5
			c-0.4,0.5-0.9,0.8-1.3,1c-0.2,0-0.5,0.1-0.7,0c-0.2,0-0.4-0.1-0.6-0.2c-0.2-0.1-0.4-0.3-0.5-0.5c-0.1-0.3-0.2-0.7-0.2-1.1
			s0.1-0.9,0.3-1.4c0.2-0.5,0.4-1,0.6-1.5c0.3-0.5,0.6-1,0.9-1.5s0.7-0.9,1.1-1.2c0.4-0.4,0.8-0.7,1.3-0.9c0.1,0,0.2-0.1,0.4-0.1
			c0.2,0,0.4-0.1,0.5-0.1c0.2,0,0.4,0,0.5,0.1c0.2,0,0.3,0.1,0.3,0.3c0,0.1,0,0.1,0,0.2c0,0.1-0.1,0.1-0.1,0.2
			c-0.1,0.1-0.1,0.1-0.2,0.2c-0.1,0-0.1,0.1-0.2,0.1c-0.4,0.3-0.9,0.6-1.2,1c-0.4,0.4-0.7,0.7-1,1.1c-0.3,0.4-0.5,0.7-0.7,1
			c-0.2,0.3-0.3,0.6-0.4,0.7c-0.1,0.2-0.2,0.3-0.2,0.6c-0.1,0.2-0.2,0.4-0.2,0.6c-0.1,0.2-0.1,0.4-0.1,0.6c0,0.2,0,0.3,0,0.4
			c0,0.1,0.1,0.1,0.1,0.1c0.1,0,0.1,0,0.2,0c0.2-0.1,0.5-0.3,0.7-0.6c0.2-0.3,0.5-0.6,0.7-0.9c0.2-0.3,0.4-0.7,0.6-1.1
			c0.2-0.4,0.4-0.8,0.5-1.1c0.1-0.4,0.3-0.7,0.4-1s0.2-0.6,0.2-0.8c0-0.2,0.1-0.3,0.2-0.3c0.1-0.1,0.3,0,0.6,0.1
			c0.3,0.2,0.6,0.4,1,0.6c0.3,0.3,0.7,0.6,1,1c0.3,0.4,0.5,0.7,0.7,1.1c0.2,0.4,0.2,0.8,0.2,1.2c0,0.4-0.1,0.8-0.3,1.2
			c-0.1,0.4-0.3,0.8-0.5,1.2c-0.2,0.4-0.4,0.7-0.5,1.1c-0.2,0.3-0.3,0.7-0.4,1c-0.1,0.3-0.1,0.6,0,0.8c0,0.1,0.1,0.1,0.2,0.2
			c0.1,0,0.2,0,0.4,0c0.1,0,0.3-0.1,0.5-0.1s0.3-0.1,0.4-0.2c0.4-0.2,0.8-0.5,1.3-0.7c0.5-0.3,1-0.6,1.5-0.9c0.5-0.3,1-0.6,1.5-0.9
			c0.5-0.3,1-0.5,1.4-0.7c0.1,0,0.3-0.1,0.6-0.2c0.3-0.1,0.6-0.1,1-0.2s0.7,0,1,0.1C43,38,43.2,38.2,43.3,38.5z"/>
	</g>
	<g class="st5">
		<path class="st1" d="M39.8,25.4c0.2,0.2,0.2,0.4,0.2,0.7c0,0.3-0.2,0.4-0.3,0.6c-0.1,0.1-0.2,0.1-0.4,0.1c-0.1,0-0.3,0-0.4-0.1
			c-0.1,0-0.2-0.1-0.4-0.1c-0.1,0-0.2,0-0.2,0c0,0,0,0.1,0,0.2s0,0.2,0,0.4c0,0.1,0,0.3-0.1,0.5c0,0.2-0.1,0.5-0.3,0.7
			s-0.4,0.6-0.7,0.9c-0.3,0.3-0.7,0.7-1.2,1.1s-1,0.7-1.4,0.9c-0.4,0.2-0.8,0.3-1.1,0.4c-0.3,0.1-0.6,0-0.8,0
			c-0.2-0.1-0.4-0.2-0.5-0.3c-0.2-0.2-0.2-0.5-0.2-0.8c0-0.3,0.1-0.7,0.3-1.1c0.2-0.4,0.5-0.8,0.8-1.2c0.3-0.4,0.8-0.8,1.3-1.2
			c0,0,0.1-0.1,0.1-0.1c0,0,0.1,0,0.1,0l0-0.1c0,0,0,0,0,0l0,0c0,0,0,0-0.1,0c0,0-0.2,0-0.4,0.1c-0.2,0.1-0.5,0.2-0.9,0.3
			c-0.4,0.1-0.8,0.3-1.2,0.5c-0.4,0.2-0.8,0.4-1.2,0.6c-0.1,0.1-0.3,0.2-0.5,0.2c-0.2,0.1-0.4,0-0.5-0.1c-0.1-0.1-0.1-0.3-0.1-0.4
			c0-0.1,0.1-0.3,0.2-0.5c0.1-0.2,0.3-0.4,0.5-0.6c0.8-0.6,1.7-1.1,2.6-1.4c0.9-0.3,1.7-0.5,2.5-0.5c0.8-0.1,1.6-0.1,2.3,0
			c0.7,0.1,1.3,0.2,1.8,0.3C39.7,25.3,39.8,25.3,39.8,25.4z M37.1,27c-0.1-0.1-0.3-0.1-0.7,0.1s-0.8,0.4-1.4,0.9
			c-0.4,0.3-0.7,0.6-1,0.8c-0.2,0.2-0.4,0.4-0.5,0.6c-0.1,0.2-0.2,0.3-0.2,0.4c0,0.1,0,0.1,0,0.2c0,0.1,0.2,0.1,0.3,0
			c0.2-0.1,0.4-0.2,0.6-0.3c0.2-0.1,0.5-0.3,0.7-0.5c0.2-0.2,0.5-0.4,0.7-0.6c0.3-0.2,0.5-0.4,0.7-0.6c0.2-0.2,0.4-0.4,0.5-0.5
			C37.1,27.1,37.1,27,37.1,27z"/>
	</g>
	<g class="st5">
		<path class="st1" d="M48.1,20.3c0.1,0.2,0.2,0.3,0.2,0.5c0,0.1,0,0.2,0,0.3c0,0.1-0.1,0.2-0.1,0.2c0,0.1-0.1,0.1-0.1,0.1
			c-0.1,0.1-0.3,0.1-0.6,0.2c-0.3,0-0.5-0.1-0.8-0.3c-0.7-0.6-1.4-1.1-2-1.5c-0.3-0.2-0.5-0.3-0.8-0.5c-0.3-0.1-0.5-0.3-0.8-0.4
			c-0.3-0.1-0.5-0.1-0.7-0.2c-0.2,0-0.4,0-0.5,0.1c-0.2,0.1-0.3,0.3-0.3,0.5s-0.1,0.4-0.1,0.4c0,0.2,0,0.4,0,0.8
			c0,0.4,0.1,0.8,0.1,1.2c0,0.4-0.1,0.9-0.2,1.3c-0.1,0.4-0.3,0.7-0.7,0.9c-0.4,0.2-0.8,0.3-1.3,0.2c-0.5-0.1-1-0.3-1.5-0.6
			c-0.5-0.3-0.9-0.6-1.3-0.9c-0.4-0.3-0.6-0.6-0.7-0.8c-0.2-0.3-0.2-0.5-0.2-0.8c0.1-0.2,0.1-0.4,0.3-0.4c0.2-0.1,0.4-0.1,0.6,0
			c0.2,0.1,0.5,0.2,0.7,0.4c0.3,0.2,0.5,0.4,0.8,0.6c0.3,0.2,0.5,0.4,0.8,0.6c0.3,0.2,0.5,0.3,0.7,0.4c0.2,0.1,0.4,0.1,0.5,0
			c0.2-0.1,0.3-0.3,0.3-0.5c0-0.3,0-0.5,0-0.9c0-0.3,0-0.7-0.1-1c0-0.4,0-0.7,0-1.1c0-0.4,0.1-0.7,0.3-1c0.1-0.3,0.4-0.6,0.7-0.8
			C41.7,17,42,17,42.5,17c0.4,0,0.9,0.1,1.3,0.3c0.5,0.2,0.9,0.4,1.4,0.6c0.5,0.3,0.9,0.6,1.3,0.8c0.4,0.3,0.7,0.6,1,0.9
			C47.8,19.9,48,20.1,48.1,20.3z"/>
	</g>
	<g class="st5">
		<path class="st1" d="M48.3,11.4c0,0.2,0,0.4-0.1,0.6s-0.2,0.2-0.3,0.2c-0.2,0-0.4-0.1-0.5-0.2c-0.1-0.1-0.2-0.3-0.3-0.5
			c-0.1-0.2-0.1-0.3-0.2-0.5c0-0.2,0-0.3,0-0.3c0-0.1,0-0.1,0-0.2c0-0.1,0-0.2,0.1-0.3c0-0.1,0.1-0.2,0.2-0.2
			c0.1-0.1,0.2-0.1,0.3-0.1c0.1,0,0.3,0,0.4,0.1c0.1,0.1,0.2,0.2,0.3,0.3s0.1,0.3,0.2,0.5C48.2,11.1,48.3,11.2,48.3,11.4z M50.5,19
			c0,0.2,0,0.3-0.1,0.5c0,0.1-0.1,0.2-0.2,0.3c-0.1,0.1-0.1,0.1-0.2,0.1c-0.1,0-0.1,0-0.2,0c-0.2,0-0.4-0.1-0.5-0.3
			c-0.2-0.2-0.3-0.5-0.5-0.8c-0.2-0.3-0.3-0.7-0.4-1.1c-0.1-0.4-0.2-0.8-0.3-1.2s-0.2-0.8-0.2-1.1c-0.1-0.3-0.1-0.6-0.1-0.7
			c0-0.1,0-0.2,0.1-0.3c0-0.1,0.1-0.1,0.1-0.2c0.1-0.1,0.1-0.1,0.2-0.1c0.1,0,0.2,0,0.2,0.1c0.1,0.1,0.2,0.1,0.2,0.2
			c0.1,0.1,0.1,0.1,0.2,0.2c0.1,0.1,0.1,0.1,0.1,0.2c0,0.1,0.1,0.3,0.2,0.6c0.1,0.4,0.3,0.7,0.5,1.2s0.3,0.9,0.5,1.3
			c0.1,0.4,0.2,0.7,0.3,0.9C50.5,18.6,50.5,18.8,50.5,19z"/>
	</g>
	<g class="st5">
		<path class="st1" d="M61.6,17.2c0,0.2-0.2,0.4-0.5,0.5c-0.3,0.1-0.7,0.2-1.2,0.3c-0.5,0.1-1,0.1-1.5,0.1c-0.5,0-0.9,0.1-1.3,0.1
			c-0.1,0-0.4,0-0.8,0.1c-0.4,0-0.9,0-1.4,0c-0.7,0-1.2,0-1.6-0.1c-0.4-0.1-0.8-0.2-1-0.3c-0.3-0.1-0.4-0.3-0.5-0.5
			c-0.1-0.2-0.2-0.4-0.2-0.7c0-0.3,0.1-0.7,0.3-1s0.5-0.7,0.9-1.1c0.4-0.3,0.8-0.7,1.3-1c0.5-0.3,1-0.6,1.5-0.8
			c0.5-0.2,1.1-0.4,1.6-0.6c0.5-0.1,1.1-0.2,1.5-0.2c0.4,0,0.7,0.1,1,0.2c0.3,0.1,0.4,0.4,0.4,0.7c0,0.3-0.1,0.6-0.4,0.9
			c-0.2,0.3-0.5,0.5-0.8,0.7c-0.3,0.2-0.6,0.4-0.9,0.5s-0.5,0.2-0.6,0.2c-0.2,0-0.3,0-0.4-0.1c-0.1-0.1-0.1-0.2-0.1-0.3
			c0-0.1,0-0.1,0-0.2c0-0.1,0-0.1,0.1-0.1c0.2-0.1,0.3-0.2,0.5-0.3s0.3-0.2,0.5-0.3c0.1-0.1,0.3-0.2,0.3-0.3
			c0.1-0.1,0.1-0.2,0.1-0.2c0-0.1-0.1-0.1-0.2-0.1c-0.2,0-0.5,0.1-0.8,0.2c-0.3,0.1-0.7,0.2-1.1,0.4c-0.4,0.2-0.8,0.4-1.2,0.6
			c-0.4,0.2-0.7,0.4-1,0.7c-0.3,0.2-0.6,0.4-0.8,0.7C53.1,15.8,53,16,53,16.1c0,0.2,0.1,0.3,0.2,0.3c0.1,0.1,0.4,0.1,0.8,0.1
			c0.6,0,1.1,0,1.6,0c0.4,0,0.9,0,1.2-0.1c0.4,0,0.8,0,1.2-0.1c0.4,0,0.9,0,1.5,0c0.2,0,0.4,0,0.7,0.1c0.2,0.1,0.5,0.1,0.7,0.2
			c0.2,0.1,0.4,0.2,0.5,0.3S61.6,17.1,61.6,17.2z"/>
	</g>
	<text transform="matrix(1 0 0 1 60.0361 18.243)" class="st2 st6 st7"> </text>
	<g class="st5">
		<path class="st1" d="M71.5,15.7c0,0.2-0.1,0.3-0.2,0.4c-0.1,0.1-0.3,0.2-0.5,0.2c-0.2,0.1-0.4,0.1-0.6,0.1c-0.2,0-0.4,0-0.6,0
			c-0.1,0-0.3,0-0.6,0s-0.7,0-1.1-0.1c0.3,0.8,0.6,1.7,0.9,2.6s0.6,2,0.8,3.1c0,0.2,0.1,0.5,0.1,0.9c0.1,0.3,0.1,0.7,0.2,1
			c0.1,0.3,0.1,0.7,0.1,1c0,0.3,0,0.6,0,0.8c0,0.4-0.1,0.7-0.2,0.9c-0.1,0.2-0.3,0.3-0.4,0.3c-0.1,0-0.1,0-0.2,0
			c-0.3,0-0.4-0.1-0.6-0.3s-0.2-0.4-0.2-0.6c-0.1-0.3-0.1-0.8-0.1-1.3c0-0.5-0.1-1.1-0.2-1.7c-0.2-0.8-0.3-1.6-0.5-2.2
			c-0.2-0.6-0.3-1.2-0.5-1.8c-0.2-0.5-0.3-1-0.5-1.5c-0.2-0.5-0.3-0.9-0.5-1.4c-0.4,0-0.8-0.1-1.2-0.1c-0.4,0-0.6-0.1-0.8-0.1
			c-0.3-0.1-0.5-0.1-0.5-0.2s-0.1-0.2-0.1-0.3c0-0.1,0.1-0.2,0.2-0.3s0.4-0.1,0.8-0.2c0.2,0,0.3,0,0.5-0.1s0.4,0,0.7-0.1
			c-0.2-0.7-0.4-1.5-0.5-2.3c-0.1-0.4-0.1-0.8-0.1-1.2c0-0.7,0.2-1.3,0.4-1.8c0.1-0.2,0.2-0.4,0.3-0.6c0.1-0.2,0.3-0.4,0.5-0.6
			c0.2-0.2,0.4-0.3,0.7-0.4s0.6-0.2,0.9-0.2c0.5,0,0.9,0.1,1.2,0.3c0.3,0.2,0.6,0.5,0.9,0.7c0.2,0.3,0.4,0.6,0.5,0.9
			c0.1,0.3,0.2,0.6,0.2,0.8c0,0.2,0,0.3-0.1,0.4c-0.1,0.1-0.2,0.2-0.3,0.2c-0.1,0-0.2,0-0.3-0.1c-0.1-0.1-0.2-0.2-0.3-0.2
			c-0.2-0.3-0.4-0.5-0.6-0.6c-0.2-0.2-0.4-0.3-0.5-0.4s-0.3-0.1-0.5-0.2c-0.1,0-0.3,0-0.4,0c-0.2,0-0.4,0.1-0.5,0.3
			c-0.1,0.1-0.3,0.3-0.3,0.5c-0.1,0.2-0.1,0.4-0.2,0.6c0,0.2,0,0.4,0,0.7c0,0.1,0,0.3,0,0.4c0,0.1,0,0.2,0,0.3
			c0.1,0.4,0.2,0.9,0.3,1.3c0.1,0.4,0.2,0.8,0.4,1.2c0.4,0,0.8,0,1.2,0c0.4,0,0.7,0,1.1,0c0.1,0,0.2,0,0.4,0s0.4,0,0.7,0.1
			s0.4,0.1,0.6,0.3C71.4,15.3,71.5,15.5,71.5,15.7z"/>
	</g>
	<g class="st5">
		<path class="st1" d="M80.8,13.9c0,0.4-0.2,0.9-0.6,1.4c-0.4,0.5-0.9,1-1.6,1.5c-0.6,0.5-1.4,0.9-2.1,1.2c-0.8,0.3-1.5,0.5-2.3,0.5
			c-0.4,0-0.7-0.1-0.9-0.2c-0.2-0.2-0.4-0.3-0.6-0.6c-0.1-0.2-0.2-0.4-0.3-0.7c-0.1-0.2-0.1-0.4-0.1-0.6c0-0.3,0.1-0.6,0.3-1
			s0.4-0.6,0.7-1c0.3-0.3,0.6-0.6,1-0.9s0.7-0.5,1.1-0.7s0.7-0.4,1.1-0.5c0.4-0.1,0.7-0.2,1-0.2c0.3,0,0.6,0.1,0.9,0.2
			c0.3,0.1,0.4,0.3,0.4,0.5c0,0.1,0,0.2-0.1,0.3s-0.2,0.2-0.3,0.2c-0.1,0.1-0.2,0.1-0.3,0.2c-0.1,0-0.2,0.1-0.2,0.1
			c-0.1,0-0.2,0-0.5,0.1c-0.2,0.1-0.5,0.2-0.8,0.3c-0.3,0.1-0.6,0.3-0.9,0.5s-0.6,0.4-0.8,0.6s-0.5,0.5-0.6,0.7S74,16.5,74,16.8
			c0,0.1,0,0.2,0.1,0.3c0.1,0.1,0.1,0.1,0.2,0.1c0.1,0,0.2,0.1,0.3,0.1c0.3,0,0.8-0.1,1.3-0.3c0.5-0.2,1-0.5,1.5-0.8
			c0.5-0.3,0.9-0.7,1.3-1s0.5-0.7,0.5-1.1c0-0.1,0-0.2-0.1-0.3c0-0.1-0.1-0.1-0.1-0.2C79,13.6,79,13.6,79,13.5s-0.1-0.1-0.1-0.3
			c0-0.2,0.1-0.3,0.3-0.4c0.2-0.1,0.3-0.1,0.5-0.1c0.1,0,0.2,0,0.4,0.1c0.1,0.1,0.3,0.1,0.4,0.2s0.2,0.2,0.3,0.4
			C80.8,13.5,80.8,13.7,80.8,13.9z"/>
	</g>
	<g class="st5">
		<path class="st1" d="M87.6,15.8c0,0.1,0,0.2-0.1,0.3c-0.1,0.1-0.2,0.1-0.3,0.1c-0.1,0-0.2,0.1-0.4,0.1c-0.2,0-0.5-0.1-0.6-0.2
			c-0.2-0.1-0.3-0.3-0.4-0.4c-0.1-0.2-0.2-0.3-0.3-0.4c-0.1-0.1-0.1-0.2-0.2-0.2c0,0-0.1,0.1-0.1,0.2s-0.1,0.3-0.1,0.5
			s0,0.4-0.1,0.7c0,0.3,0,0.5,0,0.8c0,0.3,0,0.7,0.1,1c0.1,0.3,0.1,0.6,0.1,0.8c0,0.1,0,0.2-0.1,0.3s-0.2,0.1-0.4,0.1
			c-0.2,0-0.4-0.1-0.6-0.3s-0.4-0.4-0.5-0.7s-0.3-0.6-0.4-1c-0.1-0.4-0.2-0.8-0.3-1.1c-0.1-0.4-0.1-0.7-0.2-1c0-0.3-0.1-0.6-0.1-0.8
			c0-0.2,0-0.4,0.1-0.7c0.1-0.2,0.2-0.4,0.4-0.4c0.2,0,0.3,0.1,0.4,0.2c0.1,0.1,0.2,0.2,0.2,0.3c0,0,0,0.1,0.1,0.3
			c0.1,0.2,0.1,0.4,0.2,0.7c0.1,0.2,0.1,0.5,0.2,0.7c0.1,0.2,0.1,0.3,0.1,0.4c0,0.1,0,0.2,0.1,0.2c0,0,0.1-0.1,0.1-0.4
			c0-0.2,0.1-0.5,0.1-0.8c0-0.3,0.1-0.6,0.1-0.8c0-0.2,0.1-0.4,0.1-0.4c0-0.2,0.1-0.3,0.1-0.4c0-0.1,0.1-0.2,0.2-0.3
			s0.2-0.1,0.3-0.1c0.2,0,0.4,0.1,0.5,0.2c0.3,0.4,0.6,0.8,0.9,1.1c0.2,0.3,0.4,0.6,0.6,0.9C87.5,15.4,87.6,15.6,87.6,15.8z"/>
	</g>
	<text transform="matrix(1 0 0 1 86.8486 22.0262)" class="st2 st6 st7"> </text>
	<g class="st5">
		<path class="st1" d="M91.5,20.1c-0.3,0.3-0.6,0.6-0.9,0.7c-0.3,0.2-0.5,0.2-0.7,0c-0.3-0.2-0.3-0.7-0.1-1.2c0.2-0.6,0.5-1.3,0.9-2
			c0.4-0.8,1-1.6,1.6-2.5s1.3-1.8,2-2.7s1.4-1.7,2-2.5c0.7-0.8,1.2-1.4,1.7-1.9c0.3-0.3,0.6-0.3,0.8-0.1c0.1,0.1,0.2,0.3,0.2,0.4
			c0,0.2,0,0.3-0.1,0.5S98.9,9,98.9,9.1c-0.1,0.1-0.2,0.3-0.2,0.4c-0.1,0.1-0.3,0.5-0.6,1s-0.7,1.1-1.2,1.9s-1,1.5-1.5,2.3
			s-1.1,1.6-1.6,2.3c-0.5,0.7-1,1.4-1.4,1.9C92,19.5,91.7,19.8,91.5,20.1z M102.8,23.1c-0.2,0.2-0.4,0.2-0.8,0.1s-0.7-0.3-1.1-0.6
			c-0.4-0.3-0.8-0.6-1.2-1s-0.8-0.7-1.1-1c-0.2,0.4-0.4,0.7-0.6,1.1c-0.2,0.3-0.4,0.7-0.6,1c-0.2,0.3-0.4,0.6-0.5,0.8
			c-0.1,0.2-0.3,0.4-0.3,0.5c-0.2,0.2-0.4,0.4-0.6,0.5c-0.2,0.1-0.4,0.1-0.6-0.1c-0.1-0.1-0.2-0.3-0.2-0.5c0-0.2,0.1-0.4,0.1-0.6
			c0-0.1,0.1-0.2,0.2-0.5c0.1-0.2,0.3-0.5,0.5-0.8c0.2-0.3,0.4-0.7,0.7-1.1c0.3-0.4,0.5-0.9,0.8-1.3c-0.3-0.3-0.7-0.7-1.1-1.1
			s-0.7-0.8-1-1.2c-0.3-0.4-0.5-0.7-0.6-1c-0.1-0.3-0.1-0.5,0-0.7c0.1-0.1,0.4-0.1,0.7,0.1c0.3,0.1,0.7,0.3,1.2,0.6
			c0.5,0.3,1.1,0.8,1.9,1.5c0.4-0.7,0.9-1.4,1.3-2s0.9-1.3,1.3-1.9c0.4-0.6,0.9-1.2,1.2-1.7c0.4-0.5,0.7-0.9,1-1.2
			c0.1-0.1,0.2-0.1,0.3-0.2c0.1-0.1,0.3-0.1,0.4,0.1c0.1,0.1,0.2,0.3,0.2,0.5c0,0.2-0.1,0.3-0.2,0.5c0,0-0.1,0.2-0.3,0.5
			s-0.4,0.7-0.7,1.1c-0.3,0.4-0.5,0.9-0.9,1.4c-0.3,0.5-0.6,1-0.9,1.4c-0.3,0.4-0.5,0.8-0.8,1.2s-0.4,0.6-0.5,0.7
			c-0.1,0.1-0.1,0.2-0.2,0.4c-0.1,0.1-0.2,0.3-0.3,0.5c0.2,0.2,0.3,0.3,0.5,0.5c0.2,0.2,0.3,0.3,0.5,0.5c0.3,0.3,0.6,0.6,1,1
			c0.4,0.4,0.7,0.8,0.9,1.3c0.2,0.3,0.3,0.6,0.2,0.8C103,22.9,102.9,23.1,102.8,23.1z"/>
	</g>
	<g class="st5">
		<path class="st1" d="M107.9,33.5c-0.1,0.1-0.2,0.1-0.4,0c-0.2-0.1-0.3-0.3-0.6-0.5c-0.2-0.3-0.5-0.6-0.9-1c-0.4-0.4-0.8-1-1.3-1.6
			c-0.5-0.6-0.9-1.1-1.3-1.6c-0.4-0.5-0.7-0.9-1-1.3c-0.3-0.5-0.6-0.9-0.8-1.3s-0.3-0.8-0.4-1.1c-0.1-0.3,0-0.6,0.1-0.9
			s0.3-0.5,0.6-0.7c0.3-0.2,0.8-0.4,1.2-0.4c0.5-0.1,1,0,1.5,0s1.1,0.2,1.6,0.4c0.5,0.2,1.1,0.4,1.5,0.7s0.9,0.6,1.3,0.9
			c0.4,0.3,0.7,0.6,0.9,0.9c0.2,0.3,0.4,0.6,0.4,0.9c0,0.2,0,0.5-0.1,0.6c-0.1,0.2-0.2,0.4-0.4,0.5c-0.3,0.2-0.6,0.3-1,0.3
			c-0.4,0-0.8-0.1-1.2-0.2c-0.4-0.1-0.9-0.3-1.3-0.6c-0.5-0.2-0.9-0.5-1.3-0.7s-0.7-0.5-1-0.7c-0.3-0.2-0.5-0.4-0.6-0.6
			c-0.1-0.2-0.2-0.4-0.2-0.6c0-0.2,0-0.3,0.1-0.4c0.1-0.1,0.2-0.1,0.4,0c0.1,0.1,0.3,0.1,0.4,0.2c0.8,0.5,1.4,0.9,1.9,1.2
			c0.5,0.3,0.9,0.5,1.3,0.7c0.3,0.1,0.6,0.2,0.7,0.2c0.2,0,0.3,0,0.4-0.1c0.1-0.1,0.1-0.2,0.2-0.3c0-0.1,0-0.3-0.1-0.4
			c-0.1-0.1-0.3-0.3-0.5-0.5c-0.3-0.2-0.6-0.4-0.9-0.5c-0.4-0.2-0.7-0.4-1.1-0.5s-0.8-0.3-1.2-0.4c-0.4-0.1-0.7-0.1-1.1-0.2
			s-0.6,0.1-0.8,0.2c-0.2,0.1-0.3,0.3-0.2,0.6c0.1,0.3,0.2,0.5,0.4,0.8c0.1,0.2,0.3,0.5,0.6,0.8s0.6,0.8,1,1.2s0.7,0.8,1,1.2
			c0.3,0.4,0.6,0.7,0.7,1c0.1,0.2,0.3,0.5,0.6,0.9c0.2,0.4,0.4,0.7,0.6,1.1s0.3,0.7,0.4,1.1C108.2,33.2,108.1,33.4,107.9,33.5z"/>
	</g>
	<g class="st5">
		<path class="st1" d="M116.9,41.7c-0.2,0.2-0.4,0.3-0.7,0.2c-0.3,0-0.5-0.1-0.7-0.3c-0.1-0.1-0.2-0.3-0.2-0.4c0-0.1,0-0.3,0-0.4
			c0-0.1,0.1-0.3,0.1-0.4c0-0.1,0-0.2,0-0.3c0,0-0.1,0-0.2,0c-0.1,0-0.2,0-0.4,0c-0.2,0-0.4,0-0.6,0c-0.2,0-0.5-0.1-0.8-0.3
			c-0.3-0.2-0.7-0.4-1.1-0.7c-0.4-0.3-0.8-0.7-1.3-1.3c-0.5-0.5-0.9-1-1.1-1.5c-0.3-0.4-0.5-0.8-0.6-1.2c-0.1-0.3-0.1-0.6-0.1-0.9
			c0-0.2,0.1-0.4,0.3-0.6c0.2-0.2,0.5-0.3,0.8-0.3c0.4,0,0.8,0.1,1.2,0.3c0.5,0.2,0.9,0.5,1.5,0.8c0.5,0.4,1,0.8,1.5,1.3
			c0,0,0.1,0.1,0.1,0.1c0,0,0,0.1,0.1,0.1l0.1,0c0,0,0,0,0,0l0,0c0,0,0,0,0-0.1c0,0-0.1-0.2-0.2-0.4c-0.1-0.3-0.3-0.6-0.5-1
			s-0.4-0.8-0.7-1.3c-0.3-0.4-0.6-0.9-0.9-1.3c-0.1-0.2-0.2-0.3-0.3-0.5c-0.1-0.2-0.1-0.4,0.1-0.5c0.1-0.1,0.3-0.1,0.5-0.2
			c0.2,0,0.3,0.1,0.5,0.2c0.2,0.1,0.4,0.3,0.7,0.6c0.8,0.9,1.4,1.8,1.9,2.7c0.4,0.9,0.8,1.9,1,2.8c0.2,0.9,0.3,1.7,0.3,2.5
			c0,0.8,0,1.4-0.1,1.9C117,41.6,116.9,41.6,116.9,41.7z M114.7,38.8c0.1-0.1,0-0.3-0.2-0.7c-0.2-0.4-0.6-0.9-1.2-1.5
			c-0.4-0.4-0.8-0.8-1-1c-0.3-0.2-0.5-0.4-0.7-0.5c-0.2-0.1-0.3-0.2-0.4-0.2c-0.1,0-0.2,0-0.2,0c-0.1,0.1,0,0.2,0.1,0.4
			c0.1,0.2,0.3,0.4,0.4,0.6c0.2,0.2,0.4,0.5,0.7,0.8c0.2,0.2,0.5,0.5,0.8,0.8c0.3,0.3,0.6,0.5,0.8,0.7c0.3,0.2,0.5,0.4,0.7,0.5
			S114.7,38.8,114.7,38.8z"/>
	</g>
	<g class="st5">
		<path class="st1" d="M115.4,44.6c-0.2,0-0.3,0-0.5,0c-0.2,0-0.3-0.2-0.3-0.3c0-0.1,0-0.2,0.1-0.4c0.1-0.1,0.2-0.2,0.3-0.4
			c0.1-0.1,0.3-0.2,0.5-0.4c0.3-0.2,0.7-0.5,1.3-0.9c0.6-0.4,1.3-0.8,2-1.3c0.7-0.5,1.5-0.9,2.3-1.4s1.6-0.9,2.3-1.4
			c0.7-0.4,1.3-0.8,1.9-1.1c0.5-0.3,0.9-0.4,1.1-0.5c0.1,0,0.2,0,0.4,0c0.1,0,0.3,0,0.4,0.1c0.1,0,0.2,0.1,0.3,0.2
			c0.1,0.1,0.2,0.2,0.2,0.3c0,0.1,0,0.3,0,0.4c-0.1,0.1-0.1,0.3-0.2,0.4c-0.1,0.1-0.2,0.2-0.3,0.3c-0.1,0.1-0.2,0.2-0.3,0.2
			c-0.5,0.3-1.2,0.6-1.9,1c-0.7,0.4-1.5,0.8-2.3,1.3c-0.8,0.4-1.6,0.9-2.4,1.3s-1.5,0.8-2.2,1.2c-0.7,0.4-1.3,0.6-1.8,0.9
			C115.9,44.5,115.6,44.6,115.4,44.6z"/>
	</g>
	<g class="st5">
		<path class="st1" d="M127,53.5c-0.2,0-0.4-0.1-0.6-0.3c-0.2-0.2-0.3-0.5-0.4-0.9c-0.1-0.4-0.2-0.7-0.3-1.2
			c-0.1-0.4-0.1-0.8-0.2-1.1c0-0.3-0.1-0.6-0.2-1s-0.1-0.7-0.2-1.1c-0.7,0.4-1.3,0.8-2,1.2c-0.7,0.4-1.3,0.8-1.9,1.1
			c-0.6,0.4-1.2,0.6-1.7,0.9s-0.9,0.4-1.2,0.4c-0.5,0.1-0.7-0.1-0.8-0.5c0-0.2,0-0.5,0.2-0.7c0.2-0.3,0.5-0.5,0.8-0.8
			c0.4-0.3,0.8-0.6,1.3-0.9c0.5-0.3,1-0.6,1.6-0.9s1.1-0.6,1.7-0.9c0.6-0.3,1.2-0.5,1.8-0.8c0-0.5-0.1-0.9-0.2-1.4
			c0-0.4-0.1-0.8-0.1-1.2s-0.1-0.6-0.1-0.9c0-0.2,0-0.4,0-0.4c0,0,0-0.1,0-0.2c0-0.1,0-0.3,0.1-0.4c0-0.1,0.1-0.3,0.1-0.4
			c0.1-0.1,0.2-0.2,0.3-0.2c0.1,0,0.2,0,0.3,0.1c0.1,0.1,0.2,0.2,0.2,0.3c0.1,0.1,0.1,0.2,0.1,0.3c0,0.1,0.1,0.2,0.1,0.2
			c0.2,0.6,0.4,1.2,0.5,1.7c0.1,0.6,0.3,1.1,0.4,1.7c0.4-0.2,0.8-0.3,1.1-0.4c0.3-0.1,0.6-0.2,0.9-0.3c0.3-0.1,0.6-0.2,0.8-0.3
			c0.1,0,0.2,0,0.4,0c0.1,0,0.2,0.1,0.2,0.2c0,0.2,0,0.3-0.1,0.4c-0.1,0.1-0.3,0.3-0.4,0.4c-0.2,0.1-0.4,0.2-0.5,0.3
			c-0.2,0.1-0.3,0.1-0.4,0.2c-0.2,0.1-0.5,0.2-0.8,0.4c-0.3,0.2-0.6,0.3-0.9,0.5c0.1,0.3,0.1,0.6,0.2,0.9c0.1,0.3,0.1,0.7,0.2,1
			c0.1,0.6,0.2,1.2,0.2,1.8s0.1,1,0,1.4c0,0.4-0.1,0.7-0.2,1C127.4,53.4,127.2,53.5,127,53.5z"/>
	</g>
	<g class="st5">
		<path class="st1" d="M117.9,66.7c-0.5,0-0.7-0.2-0.7-0.6c0-0.2,0.1-0.4,0.3-0.6c0.2-0.2,0.6-0.4,1.1-0.6c0.3-0.1,0.7-0.3,1.1-0.5
			c0.4-0.2,0.8-0.4,1.2-0.6c0.4-0.2,0.7-0.5,1-0.7c0.3-0.3,0.4-0.5,0.4-0.8c0-0.3-0.1-0.6-0.3-0.8c-0.2-0.2-0.4-0.4-0.7-0.5
			c-0.3-0.2-0.5-0.3-0.9-0.4c-0.3-0.1-0.6-0.3-0.9-0.5c-0.3-0.2-0.5-0.4-0.7-0.6c-0.2-0.2-0.3-0.5-0.3-0.8c0-0.3,0.1-0.7,0.5-1
			c0.3-0.3,0.8-0.6,1.4-0.9c0.6-0.3,1.2-0.6,1.9-0.9c0.7-0.3,1.5-0.5,2.3-0.8s1.6-0.4,2.3-0.6c0.8-0.2,1.5-0.3,2.1-0.5
			c0.7-0.1,1.2-0.2,1.7-0.3c0.5-0.1,0.8-0.1,0.9-0.1c0.3,0,0.6,0.1,0.9,0.2c0.2,0.1,0.4,0.3,0.4,0.6c0,0.1,0,0.3-0.1,0.4
			c-0.1,0.1-0.1,0.2-0.2,0.3c-0.1,0.1-0.2,0.1-0.3,0.2c-0.2,0.1-0.3,0.1-0.5,0.2c-0.2,0.1-0.4,0.1-0.6,0.2c-0.2,0.1-0.4,0.1-0.6,0.1
			c-0.1,0-0.4,0.1-0.8,0.1c-0.4,0.1-0.8,0.1-1.3,0.2c-0.5,0.1-1.1,0.2-1.7,0.3c-0.6,0.1-1.2,0.2-1.9,0.4c-0.6,0.1-1.2,0.3-1.8,0.4
			c-0.6,0.2-1.1,0.3-1.5,0.5c-0.4,0.2-0.8,0.4-1.1,0.6c-0.3,0.2-0.4,0.4-0.4,0.6c0,0.1,0.1,0.3,0.3,0.4c0.2,0.2,0.4,0.3,0.7,0.5
			c0.3,0.2,0.6,0.3,0.9,0.5c0.3,0.2,0.6,0.4,0.9,0.6c0.3,0.2,0.5,0.4,0.7,0.7c0.2,0.2,0.3,0.5,0.3,0.8c0,0.4-0.1,0.8-0.3,1.2
			c-0.2,0.4-0.5,0.7-0.9,1c-0.4,0.3-0.8,0.6-1.2,0.9c-0.5,0.3-0.9,0.5-1.4,0.7c-0.5,0.2-0.9,0.3-1.3,0.4
			C118.5,66.6,118.2,66.7,117.9,66.7z"/>
	</g>
	<text transform="matrix(1 0 0 1 120.2968 68.0702)" class="st3 st4"> </text>
</g>
<g id="Layer_4_1_">
	<path class="st8" d="M123.1,74c0,10.6,0,21.3,0.1,31.9c-10.7,0-21.4-0.1-32.1-0.1c0.1,10.8,0.2,21.6,0.3,32.4
		c-10.8,0-21.6,0.1-32.4,0.1c0-10.8,0-21.6,0-32.4c-10.7,0-21.4,0-32.1,0c0-10.8,0-21.6,0-32.3c10.6,0,21.2,0,31.8,0
		c0-10.7,0-21.4,0-32.1h32.5c0.1,10.8,0.2,21.6,0.3,32.4C102,73.9,112.6,73.9,123.1,74z"/>
</g>
<g id="Layer_9">
	<g>
		<path class="st1" d="M68.5,86.6c1.7,0.7,3.5,1,5.3,1c-1.8,0.1-3.7-0.1-5.4-0.7L68.5,86.6z"/>
	</g>
	<g>
		<path class="st1" d="M80.1,88.8c-0.7,0.6-1.6,1-2.5,1.2s-1.8,0.3-2.7,0.1c0.9,0.1,1.8,0,2.7-0.2s1.7-0.7,2.3-1.3L80.1,88.8z"/>
	</g>
	<g>
		<path class="st1" d="M69.4,92.8c0.9,0.7,2.1,1.1,3.2,1.2c0.6,0.1,1.2,0,1.8,0s1.2-0.1,1.7-0.3c-0.6,0.2-1.2,0.3-1.7,0.3
			c-0.6,0.1-1.2,0.1-1.8,0.1c-1.2-0.1-2.4-0.5-3.4-1.1L69.4,92.8z"/>
	</g>
	<g>
		<path class="st1" d="M72.7,96.9c0.7,0.1,1.3,0.2,2,0.1s1.3-0.2,2-0.4c-0.6,0.4-1.2,0.6-1.9,0.7C74,97.3,73.3,97.2,72.7,96.9z"/>
	</g>
	<g>
		<path class="st1" d="M79.3,99.5c-1.1,0.8-2.4,1.3-3.8,1.3c1.3-0.1,2.6-0.7,3.6-1.5L79.3,99.5z"/>
	</g>
	<g>
		<path class="st1" d="M71.3,91.2c1,0.1,2,0.2,3,0.2s2-0.1,3-0.2c-1,0.3-2,0.4-3,0.4C73.3,91.7,72.2,91.5,71.3,91.2z"/>
	</g>
	<g>
		<path class="st1" d="M78.1,83.3c-0.5,0.4-1,0.6-1.6,0.7c-0.6,0.1-1.2,0.1-1.8-0.1c0.6,0,1.2-0.1,1.7-0.2
			C76.9,83.7,77.5,83.5,78.1,83.3z"/>
	</g>
	<g>
		<path class="st1" d="M71.2,102.7c1.5,0.6,3.2,0.7,4.8,0.4c-1.6,0.4-3.3,0.4-4.9-0.1L71.2,102.7z"/>
	</g>
	<g>
		<path class="st1" d="M71.4,104.2c0.3,0.3,0.6,0.4,1,0.5c0.4,0.1,0.8,0.1,1.2-0.1c-0.4,0.2-0.8,0.2-1.2,0.2s-0.8-0.2-1.2-0.4
			L71.4,104.2z"/>
	</g>
	<g>
		<path class="st1" d="M78.8,109.3c-0.7,0.3-1.4,0.5-2.2,0.5c-0.7,0-1.5-0.1-2.2-0.3c0.7,0.2,1.4,0.3,2.1,0.2s1.4-0.3,2-0.6
			L78.8,109.3z"/>
	</g>
	<g>
		<path class="st1" d="M72.5,111.8c0.3,0.5,0.8,0.8,1.3,1.1c0.5,0.2,1.1,0.3,1.7,0.2c-0.6,0.2-1.2,0.2-1.8,0s-1.1-0.6-1.5-1
			L72.5,111.8z"/>
	</g>
	<g>
		<path class="st1" d="M76.7,128.1c-0.4,0.1-0.7,0.1-1.1,0c-0.3-0.1-0.7-0.3-0.9-0.6c0.3,0.2,0.6,0.4,0.9,0.4c0.3,0.1,0.7,0,1-0.1
			L76.7,128.1z"/>
	</g>
	<g>
		<path class="st1" d="M73.4,118.8c0.4,0.6,1.1,1.1,1.8,1.3c0.8,0.2,1.6,0,2.3-0.4c-0.7,0.4-1.5,0.6-2.3,0.5s-1.6-0.6-2-1.3
			L73.4,118.8z"/>
	</g>
	<g>
		<path class="st1" d="M78.1,115.7c-0.7,0.4-1.5,0.7-2.3,0.7c0.8-0.2,1.6-0.5,2.2-1L78.1,115.7z"/>
	</g>
	<g>
		<path class="st1" d="M74.4,115c0.4,0.1,0.8,0.2,1.1,0.2c0.4,0,0.7-0.1,1.1-0.2c-0.3,0.3-0.7,0.4-1.1,0.4S74.7,115.3,74.4,115z"/>
	</g>
	<g>
		<path class="st1" d="M73.8,107.9c0.5-0.1,1.1-0.1,1.6-0.2s1-0.2,1.5-0.4c-0.4,0.3-0.9,0.5-1.5,0.6
			C74.9,108.1,74.3,108.1,73.8,107.9z"/>
	</g>
	<g>
		<path class="st1" d="M71.3,98.6c0.4,0.1,0.8,0.1,1.1,0.2c0.4,0.1,0.7,0.1,1.1,0.1c-0.4,0.2-0.8,0.2-1.2,0.2S71.6,98.8,71.3,98.6z"
			/>
	</g>
	<g>
		<path d="M74.7,124.3c0.3-0.1,0.5-0.1,0.7-0.1c0.2,0,0.4-0.1,0.7-0.2c-0.1,0.2-0.4,0.4-0.6,0.4C75.2,124.5,74.9,124.5,74.7,124.3z"
			/>
	</g>
	<g>
		<path class="st1" d="M74.2,129.3c0.2,0.2,0.5,0.3,0.8,0.3c0.3,0,0.6-0.1,0.8-0.2c-0.2,0.2-0.5,0.4-0.8,0.4s-0.7-0.1-0.9-0.3
			L74.2,129.3z"/>
	</g>
	<path class="st9" d="M74,80.9"/>
</g>
<g id="Layer_5">
	<path class="st10" d="M75.5,80.2c0.2,0,0.3-0.5,0.6-1.1c0.1-0.3,0.5-1.6,0.3-3.4c-0.2-1.3-0.8-3.2-1.1-3.1
		C74.6,72.7,74.8,80.2,75.5,80.2z"/>
	<path class="st10" d="M78.2,66.1c-0.1,0.3,1,0.6,1.3,1.5c0.2,0.6-0.1,0.9,0.2,1.9c0.1,0.2,0.2,0.7,0.4,0.7c0.3,0,0.4-0.7,0.6-0.7
		c0.1,0-0.1,0.8,0.3,1.5c0.2,0.5,0.7,0.9,0.8,0.8c0.2-0.1-0.1-1,0-1c0.1-0.1,0.4,1.3,1.3,1.5c0.2,0.1,0.5,0.1,0.6-0.1
		c0.3-0.4-1.8-2-1.5-2.4c0.2-0.3,1.3,0.3,1.4,0.1c0.2-0.3-1.9-1.9-1.8-2.2c0.1-0.2,1.2,0.4,1.4,0.1c0.2-0.2-0.1-0.8-0.4-1.1
		c-0.3-0.4-0.7-0.4-1.5-0.7c-1.5-0.6-2.2-1.1-2.5-0.8c-0.1,0.1-0.1,0.3-0.3,0.5C78.4,66,78.2,66,78.2,66.1z"/>
	<path class="st10" d="M75.5,69.5c0.1,0.1,0.5-0.5,1.4-1.5c0.5-0.6,0.7-0.9,0.9-1.1c0.7-0.8,1.1-1.1,1.7-1.4
		c0.5-0.2,1.2-0.3,2.5-0.6c0.7-0.1,1.1-0.2,1.1-0.3c0-0.2-1.4-0.4-1.4-0.6c0-0.1,0.3-0.1,0.8-0.3c0.4-0.1,0.6-0.2,0.6-0.3
		c0-0.1-0.5-0.3-0.8-0.3c-0.6,0-1.1,0.1-1.1,0c-0.1-0.1,0.2-0.2,0.3-0.6c0.1-0.2,0.1-0.5,0-0.6c-0.2-0.1-1,1.3-1.4,1.1
		c-0.3-0.1-0.1-1.1-0.3-1.1c-0.4-0.2-1.2,3.5-3.1,4.8c0,0-1.1,0.8-1.1,1.4c0,0.1,0,0.3,0,0.6C75.5,69.4,75.5,69.4,75.5,69.5z"/>
	<path class="st10" d="M74.8,58.6c-0.1,0,0-0.1,0-0.6c0-0.4,0-0.5,0-0.6c0.2-0.3,0.7-0.2,1.1-0.2c0.9-0.1,1.4-0.8,1.7-1.1
		c1-1,0.8-2.5,1.2-2.5c0.3,0,0.6,0.9,0.8,0.9c0.2,0,0.2-0.5,0.5-1.2c0.1-0.2,0.3-0.5,0.4-0.5c0.2,0,0,1.1,0.2,1.1
		c0.2,0,0.3-0.3,0.9-0.8c0.2-0.2,0.7-0.6,0.9-0.5c0.1,0.1,0,0.7-0.3,1.1c-0.4,0.5-0.9,0.7-0.9,0.8c0.1,0.3,1.3,0.1,1.4,0.3
		c0.1,0.2-0.7,0.6-1.2,0.8c-0.8,0.4-1.4,0.4-1.4,0.5c0,0.2,1.4,0.1,1.4,0.3c0,0.2-0.8,0.4-1.4,0.5c-1,0.2-1.4,0.1-2,0.2
		C76.4,57.5,75.1,58.9,74.8,58.6z"/>
	<path class="st10" d="M75,62.1c0-0.2,0.2-0.5,0.8-1.4c0.1-0.1,0.2-0.3,0.6-0.6c0.2-0.1,0.5-0.4,0.6-0.3c0.2,0.1-0.4,1.1-0.3,1.1
		c0.1,0,0.5-0.5,0.6-0.6c0.3-0.4,0.3-0.5,0.6-0.8c0.3-0.4,0.7-0.9,0.8-0.8c0.2,0.1-0.6,1.5-0.3,1.7c0.2,0.2,0.8-0.3,1.1-0.6
		c0.6-0.6,0.8-1.2,0.8-1.1c0.1,0,0.2,1.3-0.6,2.3c-0.4,0.5-1.1,0.7-2.3,1.1c-0.5,0.2-2.3,0.7-2.5,0.3C74.9,62.3,74.9,62.3,75,62.1z"
		/>
	<path class="st10" d="M68.5,72.3c0.2-0.3-0.1-1-0.6-1.4c-0.6-0.4-1.3-0.4-1.4-0.3c-0.1,0.2,0.9,0.7,0.8,0.8c-0.1,0.1-0.6-0.2-1.4,0
		c-0.3,0.1-0.6,0.2-0.6,0.3c0,0.2,0.8,0.1,1.1,0.6c0.2,0.3,0.1,0.5,0.3,0.6s0.3-0.1,0.8-0.3C68.2,72.4,68.3,72.5,68.5,72.3z"/>
	<path class="st10" d="M69,72.3c-0.1-0.2,0-0.3,0-0.8c0-0.6-0.1-0.8,0-0.8c0.1-0.1,0.6,0.4,0.8,0.8c0.1,0.1,0.5,0.9,0.3,1.1
		c-0.1,0.1-0.3,0.1-0.6,0C69.4,72.5,69.1,72.5,69,72.3z"/>
	<path class="st10" d="M69.9,73.2c-0.1-0.2-0.4-0.5-0.8-0.6c-0.5-0.1-1,0.2-1.1,0.3c-0.1,0.1-0.7,0.4-0.8,1.1
		c-0.1,0.4-0.1,1,0.3,1.4c0.1,0.1,0.3,0.3,0.3,0.3c0,0.1-0.7-0.4-0.8-0.3c-0.2,0.2,0.4,1.3,0.3,1.4c-0.1,0.1-0.4-0.4-0.6-0.3
		c-0.1,0.1,0.1,0.4,0,0.8c-0.1,0.6-0.6,1.2-0.8,1.1c-0.3-0.1-0.2-1.1,0-1.7c0.2-0.8,0.6-1.4,0.6-1.4c0,0-0.3,1.1-1.1,1.7
		c-0.3,0.2-0.8,0.4-0.8,0.3c-0.2-0.2,1.3-1.4,1.1-1.7c-0.1-0.2-1,0.2-1.1,0c-0.1-0.1,0.2-0.4,0.3-0.6c1.7-2,1.6-1.9,1.7-2
		c0.4-0.3,1.5-1,2.8-0.8c1.7,0.2,2.8,1.8,3.1,3.1c0.1,0.5,0.1,1.1,0,1.1C71.9,76.6,71.1,74.6,69.9,73.2z"/>
	<path class="st10" d="M73.5,79.7c-0.3-0.8-0.2-1.4,0-2.8c0-0.1,0.1-1,0.3-2.8c0.1-1.3,0.2-2.3,0.3-3.7c0-1.1,0-0.8,0-3.1
		c0-2.1,0.1-2.3,0-3.1c-0.1-1-0.2-1.1-0.3-2.5c-0.1-1.3-0.2-1.9,0-2.5c0.2-0.7,0.4-0.7,0.8-2c0.2-0.5,0.4-1.2,0.6-2
		c0.2-1.1,0.3-1.8,0-2.5c-0.5-1.2-1.8-1.6-1.7-2c0.1-0.2,0.5-0.3,0.6-0.3c0.3,0,0.5,0.1,0.6,0c0.2-0.1-0.1-0.6-0.3-1.4
		c-0.1-0.5,0-0.5,0-0.6c0.2-0.2,1,0.7,1.1,0.6c0.1-0.1-0.4-0.6-0.6-1.4c0-0.2-0.1-0.5,0-0.6c0.2-0.1,0.8,1,1.1,0.8
		c0.4-0.2-0.3-2.4,0-2.5c0.2-0.1,0.6,0.6,0.8,1.1c0.1,0.2,0.3,0.7,0.3,1.4c0,1-0.3,1.7-0.3,1.7c0.1,0,0.5-1.2,0.8-1.1
		c0.2,0,0.3,0.5,0.3,0.8c0,0.4-0.2,0.6-0.3,0.8c-0.3,0.6-0.4,1.2-0.6,1.7c-0.2,1,0,1.2-0.3,2c-0.2,0.5-0.5,0.9-0.5,0.9
		c-0.3,0.6-0.6,0.7-0.9,1.6c-0.4,1.2-0.5,2.2-0.6,3.1c-0.1,1.2,0.1,1.5,0.3,4.2c0.1,1.3,0.2,2.8,0.3,4.5c0,1.6,0,2.8,0,3.1
		c-0.1,1.7-0.2,2.2-0.3,4c-0.3,3.9-0.1,5.5-0.6,5.7C74.3,80.9,73.8,80.2,73.5,79.7z"/>
	<path class="st10" d="M72.1,79.4c-0.2-0.4-0.2-0.8,0-2.5c0.2-2.5,0.2-2.4,0.3-3.1c0.1-0.9,0.3-1.6,0.6-2.8c0.5-2.1,0.7-2.6,0.6-3.7
		c-0.1-0.6-0.1-1.1-0.6-1.7c-0.5-0.6-1.2-0.9-2-1.1c-0.7-0.2-1.5-0.5-2.5-0.3c-0.6,0.1-1.1,0.4-1.1,0.3c-0.1-0.2,0.7-0.7,0.6-0.8
		c-0.1-0.2-1.9,0.8-2,0.6c-0.1-0.2,1-0.9,0.8-1.1c-0.1-0.2-0.8,0.2-2,0c-0.3,0-0.8-0.2-0.8-0.3c0-0.3,2.8-0.3,2.8-0.8
		c0,0,0,0-0.3-0.6c-0.3-0.5-0.3-0.5-0.3-0.6c0.1-0.1,2.1,1.8,2.5,1.4c0.3-0.2-0.2-1,0-1.1c0.2-0.1,0.6,0.5,1.1,1.1
		c0.7,0.8,1,0.8,1.7,1.4c0.3,0.3,1.9,1.7,2.3,3.7c0,0.2,0.1,0.4,0,2c-0.1,2-0.2,3.5-0.3,4c-0.4,4-0.6,4.3-0.3,5.4
		c0.4,1.3,1.1,2.1,0.8,2.3C73.8,81,72.6,80.4,72.1,79.4z"/>
	<path class="st10" d="M71.8,78.5c-0.1,0-0.2,0.1-0.8-0.3c-0.7-0.4-0.8-0.5-1.1-0.6c-0.4-0.1-0.8,0.1-0.8,0c0-0.1,0.2-0.2,0.3-0.3
		c0.3-0.2,0.6-0.2,0.6-0.3c0-0.1-0.3-0.3-0.8-0.6c-0.8-0.5-0.8-0.5-0.8-0.6c0-0.1,0.5-0.1,0.8,0c0.2,0,0.5,0.1,0.8,0.3
		c0.4,0.2,0.5,0.3,0.6,0.3c0.1-0.1,0.1-0.2,0-0.8c0-0.5,0-0.6,0-0.6c0.2-0.1,0.8,0.6,1.1,1.4c0.1,0.3,0.2,0.6,0.3,1.1
		C72,78.4,71.9,78.5,71.8,78.5z"/>
	<path class="st10" d="M72.8,81.5c-1.2-0.4-1.4-1.3-2.5-2c-0.8-0.4-1.6-0.5-2.5-0.6c-1.1-0.1-2,0.1-2.8,0.3c-1.5,0.3-2.6,0.8-4,1.4
		c-1,0.4-1.5,0.7-2.3,1.1c-1.4,0.9-2.3,1.8-2.5,2c-0.8,0.8-1.9,1.9-2.5,3.7c-0.5,1.5-0.6,3-0.6,3.1c0,1.1,0.2,1.9,0,2
		c-0.2,0.1-0.7-1.2-0.8-1.1c-0.1,0,0,0.4,0.1,1.3c0.1,0.7,0.1,1.2,0,1.7c0,0.2-0.1,0.6-0.3,0.6c-0.3,0-0.5-1.2-0.6-1.1
		c-0.1,0,0.1,0.6,0,1.4c-0.1,0.7-0.2,1.2-0.3,1.2c-0.1,0-0.1-0.5-0.4-1.3c0-0.1-0.1-0.2-0.1-0.2c-0.2,0-0.4,0.8-0.6,1.4
		c-0.2,0.6-0.1,0.8-0.3,1.4c-0.2,0.7-0.3,1.4-0.6,1.4c-0.3,0-0.5-0.8-0.6-1.4c-0.1-0.5-0.2-1.3,0.3-2c0.1-0.2,0.4-0.5,0.3-0.6
		c0-0.1-0.2,0-0.3,0c-0.4,0.1-0.5,0.3-0.6,0.3c-0.1-0.1,0.1-0.5,0.3-1.1c0.3-0.8,0.4-1.2,0.6-1.4c0.3-0.5,0.6-0.8,0.6-0.8
		c-0.1-0.1-0.9,0.7-1.1,0.6c-0.2-0.1,0.1-0.6,0.3-1.1c0.8-1.6,1.6-2.8,1.7-2.8c1.4-1.8,2.1-2.7,2.5-3.1c0.9-1,2.4-2.6,4.8-4.2
		c1.2-0.8,2.3-1.6,4-2.3c1.2-0.5,2.8-1,4.8-1.1c1.8-0.1,3.4-0.3,5.1,0.6c0.8,0.4,1.3,0.8,2.3,1.7c0.7,0.6,0.9,0.9,0.8,1.1
		c-0.1,0.2-0.5,0.3-0.8,0.3C73.4,81.7,72.9,81.5,72.8,81.5z"/>
	<path class="st10" d="M60,81.1c0.1,0.1-0.2,0.5-0.3,1.1c0,0.3,0,0.6,0,1.1c0.1,1.1,0.2,1.6,0.3,2.3c0.1,0.6,0.2,0.9,0.3,1.1
		c0.2,0.4,0.4,0.7,0.3,0.8c-0.1,0.1-0.2,0-0.3,0c-0.5-0.2-0.8-0.9-0.8-0.8c0,0,0,0.3,0,0.3c0.1,0.5,0.3,0.9,0.6,1.1
		c0.4,0.5,0.6,0.6,0.6,0.8c0,0.1-0.2,0.3-0.3,0.3c-0.2,0.1-0.4-0.2-0.6-0.3c-0.4-0.4-0.5-0.9-0.6-0.8c-0.1,0,0.3,1,0,1.7
		c-0.1,0.1-0.1,0.2-0.3,0.6c-0.2,0.4-0.2,0.6-0.3,0.6c-0.1,0-0.1-0.2-0.3-0.8c-0.2-0.8-0.3-1.2-0.3-1.4c0-0.7,0.1-1.1,0-1.1
		c-0.1,0-0.2,0.2-0.3,0.3c-0.2,0.3-0.2,0.6-0.3,0.6c-0.1,0-0.3-0.4-0.3-0.8c0-0.2,0-0.7,0.3-1.1c0.2-0.3,0.5-0.4,0.6-0.8
		c0.1-0.2,0-0.3,0-0.3c-0.1-0.1-0.4,0.1-0.6,0.3C57,86,57,86.4,56.9,86.4c-0.1,0-0.2-0.3-0.3-0.6c-0.1-0.5,0.1-0.9,0.3-1.4
		c0.4-1.1,0.2-1.3,0.6-1.7c0.2-0.3,0.4-0.4,0.6-0.6c0.3-0.3,0.7-0.5,0.8-0.6c0.3-0.1,0.3-0.1,0.6-0.3C59.8,81.1,59.9,81,60,81.1z"/>
	<path class="st10" d="M59.4,80.2c0-0.2-0.6-0.1-1.7-0.3c-1.1-0.2-1.1-0.2-1.7-0.3c-0.3,0-1-0.1-2,0c-0.6,0.1-1,0.1-1.7,0.3
		c-1.3,0.3-1.8,0.5-2,0.6c-0.3,0.2-0.8,0.4-1.1,0.8c-0.2,0.2-0.3,0.5-0.3,0.6c0,0.1,0.3-0.1,0.6-0.3c0.1,0,1.3-0.7,1.4-0.6
		c0.1,0.1-0.1,0.4-0.3,0.6c-0.3,0.3-0.5,0.3-0.8,0.6c-0.1,0.1-0.4,0.3-0.6,0.6c-0.3,0.4-0.4,1-0.3,1.1c0.1,0.1,0.3-0.1,0.6-0.3
		c0.5-0.3,0.5-0.6,0.8-0.8c0.5-0.4,1-0.7,1.1-0.6c0,0.1-0.1,0.2-0.3,0.6c-0.2,0.4-0.2,1,0,1.1c0.2,0.1,0.5-0.2,0.6-0.3
		c0.4-0.4,0.3-0.7,0.6-1.1c0.4-0.5,1.1-0.7,1.1-0.6c0,0.1-0.4,0.3-0.6,0.8c0,0-0.1,0.5,0,0.6c0.1,0.1,0.4-0.1,0.6-0.3
		c0.8-0.7,1.1-1.1,1.4-1.4c0.1-0.1,1.3-1.1,2.3-0.8c0.4,0.1,0.7,0.4,1.1,0.3c0.2-0.1,0.4-0.2,0.6-0.3C59.1,80.6,59.5,80.4,59.4,80.2
		z"/>
	<path class="st10" d="M68.7,79.4c0,0-0.2,0.1-0.6,0.3c-0.5,0.3-0.8,0.4-0.8,0.6c-0.1,0.2-0.1,0.5,0,0.6c0.1,0.1,0.2-0.2,0.6-0.3
		c0.3-0.1,0.5-0.1,0.6,0c0,0.1-0.1,0.1-0.3,0.3c-0.2,0.2-0.7,0.6-0.8,1.1c0,0-0.1,0.5,0,0.6c0.1,0.1,0.2-0.1,0.6-0.3
		c0.6-0.4,0.7-0.4,0.8-0.6c0.2-0.3,0.3-0.6,0.3-0.6c0,0-0.1,0.3,0,0.6c0.1,0.1,0.2,0.3,0.3,0.3c0.1,0,0.2-0.2,0.3-0.6
		c0.2-0.4,0.4-0.8,0.6-1.1s0.3-0.4,0.3-0.6c-0.1-0.1-0.2-0.2-0.6-0.3c-0.2-0.1-0.3-0.1-0.5-0.1C69.1,79.3,68.9,79.3,68.7,79.4z"/>
	<g>
		<path class="st1" d="M52.1,88.4c0,0.3-0.1,0.6-0.2,1s-0.2,0.6-0.2,0.9c-0.2,0.6-0.4,1.2-0.7,1.8c0.2-0.6,0.3-1.2,0.5-1.8l0.3-0.9
			C51.8,89,52,88.7,52.1,88.4z"/>
	</g>
	<g>
		<path class="st1" d="M58.8,85.6c-0.3-0.4-0.4-0.9-0.5-1.4c0-0.5,0-1,0.2-1.4c0,0.5,0,1,0,1.4C58.6,84.7,58.7,85.1,58.8,85.6z"/>
	</g>
	<g>
		<path class="st1" d="M54.9,80.5c-0.5,0-1,0-1.5,0.1c-0.5,0.1-0.9,0.3-1.4,0.4c0.4-0.3,0.8-0.6,1.3-0.7
			C53.9,80.3,54.4,80.3,54.9,80.5z"/>
	</g>
	<path class="st10" d="M75.2,79.4c0.1-0.2,0.3-0.7,0.8-1.1c0.6-0.5,1.2-0.7,2.3-0.8c1.3-0.2,2.3-0.4,3.7-0.3c1.7,0.1,2.8,0.5,4,0.8
		c1.5,0.5,2.6,1,3.4,1.4c1.1,0.5,1.8,1,3.4,2c2.5,1.6,3,2.1,3.4,2.5c0.5,0.7,1,1.4,1.1,1.7c0.5,0.8,0.4,1,1.1,2.3
		c0.5,0.9,0.6,1.1,0.8,1.7c0,0.1,0.6,1.5,0.3,1.7c-0.1,0.1-0.4-0.1-0.6-0.3c-0.4-0.3-0.5-0.6-0.6-0.6c-0.1,0,0.1,0.3,0.3,0.8
		c0.4,1.1,0.5,1.1,0.6,1.4c0.1,0.4-0.1,0.5,0,1.1c0,0.3,0.1,0.5,0,0.6c-0.1,0.1-0.6-0.3-0.8-0.6c-0.2-0.2-0.2-0.3-0.3-0.3
		c-0.1,0,0,0.5,0,0.6c0.1,0.7,0.4,1.1,0.6,1.4c0.4,0.9,0.1,2.2-0.3,2.3c-0.3,0.1-0.7-0.7-0.8-1.1c-0.2-0.6-0.1-0.8-0.3-2
		c-0.1-0.3-0.2-1.1-0.3-1.1c-0.1,0-0.2,1.1-0.3,1.1c0,0-0.1-0.1-0.3-1.1c-0.2-1.2-0.2-2.3-0.3-2.3c-0.1,0,0.1,1.3-0.3,1.4
		c-0.2,0.1-0.4-0.3-0.6-0.6c-0.2-0.6,0.1-1,0.6-2.3c0.5-1.2,0.7-1.8,0.8-2.5c0.1-0.6,0.2-1.1,0-1.7c-0.3-1-1.1-1.6-2.5-2.5
		c-1.1-0.7-1.9-1.1-3.1-1.7c-0.9-0.4-1.6-0.7-2.5-1.1c-1.8-0.8-2.7-1.2-3.7-1.4c-0.9-0.2-1.6-0.3-3.1-0.6c-1.9-0.3-2.4-0.2-2.8,0
		c-0.8,0.4-1.3,1.2-1.4,1.4c-0.5,0.8-0.3,1.4-0.8,2c-0.1,0.1-0.7,0.7-1.1,0.6C74.9,82,74.8,80.5,75.2,79.4z"/>
	<path class="st10" d="M87.7,80.2c0.2,0.7,0.3,1,0.3,1.1c0.1,0.5,0.2,1.3,0,2c-0.1,0.6-0.3,0.7-0.3,1.1c0,0.5,0.1,1.1,0.3,1.1
		c0.2,0,0.4-1.2,0.6-1.1c0.1,0,0.2,0.8,0,1.7c-0.2,0.8-0.4,1.3-0.3,1.4c0.2,0.1,0.6-0.4,0.8-0.3c0.2,0.1,0,0.6,0.3,1.4
		c0.1,0.2,0.2,0.5,0.6,0.8c0.1,0.1,0.4,0.4,0.6,0.3c0.2-0.1,0.1-0.8,0-1.1c-0.3-1.2-0.8-1.8-0.6-2c0.1-0.1,0.4-0.1,0.6,0
		c0.4,0.2,0.5,0.6,0.6,0.6c0.1,0,0-0.6-0.3-1.4c-0.3-0.8-0.7-1.3-0.6-1.4c0.1-0.1,0.3,0.2,0.8,0.6c0.3,0.2,0.5,0.3,0.6,0.3
		s0.1-0.2-0.6-1.7c-0.2-0.5-0.4-0.9-0.8-1.7c-0.3-0.6-0.5-0.9-0.8-1.1c-0.2-0.1-0.2-0.1-0.6-0.3c-0.7-0.4-1-0.7-1.1-0.6
		C87.6,80,87.6,80.1,87.7,80.2z"/>
	<path class="st10" d="M89.1,79.1c0-0.3,1.3-0.2,3.1-0.6c1.2-0.2,1.2-0.3,1.7-0.3c0.6,0,1.1,0.3,2.3,0.8c1.7,0.8,1.7,1.1,1.7,1.1
		c0,0.2-0.4,0.3-0.6,0.3c-0.5,0.1-0.8-0.1-0.8,0c-0.1,0.1,0.5,0.4,1.1,1.1c0.4,0.5,0.7,0.9,0.8,1.4c0.1,0.2,0.1,0.5,0,0.6
		c-0.1,0.1-0.4-0.6-1.1-1.1c-0.3-0.2-0.5-0.3-0.6-0.3c0,0.1,0.4,0.3,0.6,0.8c0,0.1,0.1,0.5,0,0.6c-0.2,0.1-1-0.4-1.4-1.1
		c-0.3-0.6-0.3-1-0.6-1.1c-0.2-0.1-0.5,0.1-0.6,0.3c-0.1,0.3,0.1,0.5,0,0.6c-0.1,0.1-0.6-0.7-1.1-1.4c-0.8-0.9-1.1-1.3-1.7-1.4
		c-0.7-0.1-1.3,0.5-2,0.3c-0.3-0.1-0.6-0.3-0.6-0.3C89.2,79.2,89.1,79.2,89.1,79.1z"/>
	<path class="st10" d="M81.5,78.2c0.3,0.1,0.2,0.2,0.8,0.6c0.4,0.3,0.9,0.5,1.1,0.6c0.3,0.2,0.6,0.2,0.6,0.3c0,0-0.1,0-0.6,0
		c-0.4,0-0.6,0-0.6,0c0,0.1,0.4,0.3,0.8,0.8c0.1,0.1,0.4,0.5,0.3,0.6c-0.1,0.2-0.9-0.5-1.1-0.3c-0.1,0.1,0.2,0.6,0.6,1.4
		c0.1,0.2,0.7,1.6,0.6,1.7c-0.1,0.1-0.6-0.4-0.8-0.8c-0.3-0.5-0.4-0.9-0.6-0.8c-0.2,0-0.2,0.8-0.3,0.8c-0.1,0-0.1-0.4-0.3-1.1
		c-0.2-0.8-0.3-0.8-0.3-0.8c-0.1,0-0.2,0.8-0.3,0.8c-0.1,0-0.1-0.6-0.3-1.4c-0.3-1.3-0.5-1.6-0.6-1.7c-0.4-0.4-0.9-0.5-0.8-0.6
		c0-0.1,0.2,0,0.6,0C81.1,78.3,81.1,78.2,81.5,78.2z"/>
	<path class="st11" d="M76.7,44.9"/>
	<path class="st11" d="M81.2,52"/>
	<path class="st11" d="M81.5,61.8"/>
	<g>
		<path class="st1" d="M89.4,82.2c0.3,0.4,0.4,0.9,0.4,1.4c0.1,0.5,0,1-0.1,1.4c-0.1-0.5-0.1-0.9-0.1-1.4
			C89.5,83.1,89.4,82.7,89.4,82.2z"/>
	</g>
	<g>
		<path class="st1" d="M81.5,78.8c0.1,0.2,0.2,0.3,0.3,0.5c0.1,0.2,0.1,0.3,0.2,0.5c0.1,0.3,0.3,0.7,0.4,1c-0.3-0.3-0.5-0.6-0.6-0.9
			c-0.1-0.2-0.1-0.3-0.2-0.5C81.5,79.2,81.5,79,81.5,78.8z"/>
	</g>
	<g>
		<path class="st1" d="M92.8,79.1c0.5-0.2,1.2-0.1,1.7,0.1c0.5,0.3,1,0.7,1.1,1.3c-0.2-0.2-0.4-0.4-0.6-0.6s-0.4-0.3-0.7-0.4
			C93.9,79.2,93.3,79.1,92.8,79.1z"/>
	</g>
	<g>
		<path class="st1" d="M97.3,87.8c-0.1,0.6-0.2,1.2-0.1,1.9c0.1,0.6,0.2,1.2,0.4,1.8c-0.4-0.5-0.6-1.1-0.7-1.8
			C96.8,89.1,96.9,88.4,97.3,87.8z"/>
	</g>
	<g>
		<path class="st1" d="M79.8,66.4c0.5,0.2,0.9,0.6,1.1,1c0.3,0.5,0.4,1,0.3,1.5c-0.1-0.5-0.3-0.9-0.5-1.4
			C80.4,67.1,80.1,66.7,79.8,66.4z"/>
	</g>
	<g>
		<path class="st1" d="M67.3,62.7c0.6-0.3,1.4-0.3,2-0.1c0.7,0.2,1.3,0.6,1.6,1.2c-0.5-0.4-1.1-0.7-1.7-0.9
			C68.7,62.7,68,62.7,67.3,62.7z"/>
	</g>
	<g>
		<path class="st1" d="M76.7,61.6c0.4-0.2,0.8-0.3,1.1-0.4c0.4-0.1,0.7-0.3,1.1-0.4c-0.3,0.3-0.7,0.5-1,0.7
			C77.5,61.5,77.1,61.6,76.7,61.6z"/>
	</g>
	<g>
		<path class="st1" d="M78.3,56.2c0.5-0.3,0.9-0.5,1.4-0.7c0.5-0.2,0.9-0.5,1.4-0.7c-0.4,0.4-0.8,0.7-1.3,1
			C79.4,56,78.9,56.1,78.3,56.2z"/>
	</g>
	<g>
		<path class="st1" d="M76.1,52.5c-0.2-0.5-0.2-1-0.1-1.6c0.1-0.5,0.2-1,0.4-1.5c0,0.5-0.1,1-0.1,1.5C76.2,51.5,76.2,52,76.1,52.5z"
			/>
	</g>
	<g>
		<path class="st1" d="M79.2,64.7c0.4-0.1,0.7-0.1,1.1-0.3c0.3-0.1,0.6-0.3,0.9-0.6c-0.1,0.4-0.4,0.7-0.8,0.9
			C80,64.8,79.6,64.8,79.2,64.7z"/>
	</g>
</g>
<g id="Layer_8">
	<path class="st1" d="M74.4,88.4c0.2-0.3,0.9-0.5,1.3-0.1c0.3,0.3,0.1,0.9,0,1.4c-0.1,0.3-0.2,0.7-0.6,1.1c-0.7,0.8-1,0.9-1.7,1.7
		c-0.1,0.1-0.3,0.4-0.8,1.1c-0.9,1.2-1.2,1.7-1.4,2c-0.9,1.4-0.6,1.1-0.8,1.4c-0.1,0.1-0.3,0.3-0.3,0.6c0,0.2,0.2,0.4,0.3,0.6
		c0.1,0.1,0.2,0.3,0.3,1.1c0.2,1.2,0.2,1.8,0,2c-0.3,0.2-0.9-0.3-1.3-0.7c-0.5-0.4-0.9-0.8-1.1-1.4c-0.3-0.8-0.3-1.9,0.3-2.5
		c0.3-0.4,0.5-0.2,1.1-0.8c0.5-0.4,0.8-0.7,0.8-1.1c0.1-0.6-0.2-0.9,0-1.1c0.1-0.1,0.2-0.1,0.8-0.3c0.5-0.2,0.5-0.3,0.6-0.3
		c0.2-0.3-0.1-0.5,0-0.8c0.1-0.2,0.3-0.3,0.8-0.6c0.8-0.3,1-0.3,1.1-0.6c0.2-0.3-0.2-0.5,0-0.8c0.2-0.4,0.7-0.2,0.8-0.6
		C74.8,89.2,74.2,88.8,74.4,88.4z"/>
	<path class="st1" d="M80.3,102.3c-0.2-0.1-0.4,0.1-0.6,0.3c-0.1,0.2,0,0.4,0,0.8c0,0.3,0,0.9-0.3,1.1c-0.4,0.3-0.9,0-1.1,0.3
		c-0.1,0.1,0,0.2,0,0.6c0,0.4-0.2,0.7-0.3,0.8c-0.1,0.1-0.5,0.8-1.1,0.8c-0.4,0.1-0.7-0.2-0.8,0c-0.1,0.1,0,0.3,0,0.8
		c0,0.4,0,0.9-0.3,1.1c-0.1,0.1-0.3,0.2-0.8,0.3c-0.5,0.1-0.7,0.1-0.8,0.3c-0.1,0.1-0.2,0.3-0.3,0.6c-0.2,0.6-0.2,0.6-0.3,0.8
		c-0.2,0.3-0.4,0.2-0.8,0.6c-0.2,0.1-0.6,0.4-0.8,0.8c-0.1,0.2-0.4,0.7-0.3,1.4c0.2,0.8,0.9,1.5,1.1,1.4c0.2-0.1-0.1-0.7,0-1.4
		c0.1-1.1,0.8-1.8,2.5-3.4c3.1-2.8,3.3-2.7,4-3.7c0.6-1,0.8-1.8,1.1-3.4C80.4,102.8,80.5,102.4,80.3,102.3z"/>
	<path class="st1" d="M79.3,117.4c-0.1-0.1-0.5,0.2-0.6,0.6c-0.1,0.4,0.1,0.6,0,0.8s-0.4,0.3-0.6,0.6c-0.1,0.3,0.1,0.3,0,0.6
		c-0.2,0.5-1.1,0.5-1.1,0.8c0,0.2,0.3,0.4,0.3,0.6c-0.1,0.2-0.4,0.1-0.6,0.3c-0.1,0.2,0.1,0.4,0,0.6c-0.2,0.3-1,0-1.1,0.3
		c-0.1,0.2,0.1,0.4,0,0.6c-0.1,0.2-0.4,0.1-0.6,0.3c-0.1,0.2,0.1,0.5,0,0.6c-0.1,0-0.1,0-0.3,0c-0.3,0-0.5-0.1-0.6,0
		c-0.2,0.1,0,0.5-0.3,0.8c-0.3,0.4-0.7,0.2-0.8,0.6c-0.1,0.3,0.1,0.5,0,0.8c-0.1,0.3-0.3,0.4-0.3,0.6c0,0.1,0.2,0.1,0.3,0.3
		c0.1,0.2,0,0.3,0,0.6c0,0.2,0.1,0.3,0.3,0.6c0.2,0.2,0.5,0.6,0.6,0.6c0.1,0,0-0.2,0-0.3c-0.1-0.5-0.3-1.3-0.3-1.7
		c0-0.7,0.4-1.2,0.6-1.4c0.4-0.5,0.7-0.4,1.7-1.1c0.3-0.2,0.9-0.6,1.4-1.1c0.3-0.3,0.7-0.7,1.1-1.4c0.4-0.7,0.6-1.6,0.8-3.4
		C79.4,117.8,79.4,117.4,79.3,117.4z"/>
	<path class="st1" d="M77.1,128.4c-0.1,0-0.2,0.1-0.3,0.3c0,0-0.1,0.2,0,0.3c0.1,0.1,0.2,0.1,0.3,0.3c0.1,0.1,0,0.2,0,0.3
		c0,0.3,0.3,0.4,0.6,0.6c0.3,0.2,0.4,0.1,0.6,0.3c0.2,0.2,0.1,0.3,0.3,0.6c0.2,0.2,0.5,0.4,0.6,0.3c0.1-0.1-0.2-0.6-0.6-1.1
		c-0.4-0.6-0.3-0.4-0.8-1.1C77.4,128.6,77.3,128.4,77.1,128.4z"/>
	<path class="st1" d="M73.8,88.3c-0.1-0.1-0.3,0.1-0.4,0.2c-0.2,0.2-0.3,0.5-0.2,0.5c0.1,0.1,0.3-0.1,0.4-0.2
		C73.8,88.7,73.9,88.4,73.8,88.3z"/>
	<path class="st1" d="M74.8,88.8c-0.1,0-0.2,0.1-0.3,0.3c-0.1,0.2-0.1,0.5,0,0.6c0.1,0,0.2-0.1,0.3-0.3
		C74.9,89.2,74.9,88.9,74.8,88.8z"/>
</g>
<g id="Layer_7">
	<path class="st0" d="M75.5,87.8c-0.4-0.4-1.1-0.3-1.4-0.3c-1,0.1-1.6,0.8-2,1.1c-1.7,1.7-2.6,2.6-3.7,4.5c-1.2,2.1-1.8,3.1-1.7,4.5
		c0,0.4,0.1,2.2,1.4,3.1c0.9,0.6,2.2,0.8,2.5,0.3c0.2-0.3-0.1-0.6-0.3-2.3c-0.1-0.7-0.1-1.1-0.3-1.1c-0.3-0.1-0.8,0.6-0.8,0.6
		c0,0,0.4-0.6,0.8-1.1c0.4-0.6,0.5-0.9,0.8-1.4c0.4-0.7,0.6-0.8,1.4-1.7c1.1-1.3,0.8-1.3,2-2.5c0.8-0.9,1.2-1.2,1.4-2
		C75.8,89.3,76.1,88.4,75.5,87.8z"/>
	<path class="st0" d="M79.2,100c0.1,0,0.2,0.1,0.6,0.8c0.3,0.7,0.4,1,0.6,1.4c0.3,1.1,0,2.2-0.3,2.8c-0.4,1.2-1.1,2-2.3,3.1
		c-1.1,1.1-1.3,1.1-3.1,2.8c-1.4,1.3-1.9,2-2,2.8c-0.1,0.7,0.2,1.3,0,1.4c-0.3,0.2-1-0.7-1.1-0.8c-0.3-0.4-0.9-1.1-1.1-2
		c-0.3-1.3,0.8-2.6,2-4c1.6-1.8,1.9-1.4,3.4-3.1c1.3-1.4,2-2.4,2.5-4C78.6,100.9,78.8,100,79.2,100z"/>
	<path class="st0" d="M78.3,115.5c0.4,0,0.7,1,0.8,1.4c0.4,1.3,0.1,2.4,0,2.8c-0.3,1.1-0.8,1.8-1.1,2.3c-0.8,1-1.6,1.7-2,2
		c-1.2,0.8-1.6,0.7-2,1.4c-0.4,0.8-0.3,1.8-0.3,2c0.1,0.8,0.5,1.2,0.3,1.4c-0.2,0.3-1.2,0-1.7-0.6c-0.9-1-0.6-2.6-0.6-2.8
		c0.2-0.8,0.5-1.3,2.5-3.7c2-2.4,2.1-2.5,2.3-2.8C77.8,117,77.8,115.5,78.3,115.5z"/>
	<path class="st0" d="M76.9,128.3c0.1-0.1,0.3,0.1,1.7,2c0.5,0.7,0.7,1,0.6,1.1c-0.2,0.3-1,0.1-1.4,0c-0.2-0.1-1.3-0.4-1.4-1.1
		c0-0.2,0-0.2,0.3-1.1C76.8,128.4,76.8,128.3,76.9,128.3z"/>
</g>
</svg>
