<?xml version="1.0" encoding="utf-8"?>
<!-- Generator: Adobe Illustrator 23.0.2, SVG Export Plug-In . SVG Version: 6.00 Build 0)  -->
<svg version="1.1" id="Layer_1" xmlns="http://www.w3.org/2000/svg" xmlns:xlink="http://www.w3.org/1999/xlink" x="0px" y="0px"
	 viewBox="0 0 200 29.36" style="enable-background:new 0 0 200 29.36;" xml:space="preserve">
<style type="text/css">
	.st0{fill:#FFFFFF;}
</style>
<g>
	<path class="st0" d="M4.66,16.89v12.07c0,0-4.62,0-4.66,0V0.61h8.83c5.1,0,9.48,2.67,9.48,7.73c0,6.4-4.29,8.54-9.39,8.54H4.66z
		 M4.66,12.31h4.25c2.15,0,4.66-0.77,4.66-3.56s-2.51-3.56-4.66-3.56H4.66V12.31z"/>
	<path class="st0" d="M26.16,21.91l-3.52,7.05H17.9L30.86,0l12.96,28.95h-4.74l-3.44-7.01l-4.86,7.01L26.16,21.91z M33.53,17.37
		l-2.67-6.48l-2.59,6.32l2.51,3.93L33.53,17.37z"/>
	<path class="st0" d="M53.53,16.56v12.39c0,0-4.62,0-4.66,0V0.61h8.91c5.55,0,9.43,2.67,9.43,7.94c0,3.85-2.11,6.88-6.84,7.69
		l9.03,12.71h-5.67l-8.5-12.39H53.53z M53.53,12.39h4.25c2.35,0,4.66-0.81,4.66-3.64c0-2.87-2.35-3.68-4.66-3.68h-4.25V12.39z"/>
	<path class="st0" d="M77.38,28.95h-4.74L85.6,0l12.96,28.95h-4.74l-2.59-5.22H79.98L77.38,28.95z M85.6,10.89l-3.4,8.3
		c0.04,0,6.8,0,6.8,0L85.6,10.89z"/>
	<path class="st0" d="M103.71,0.61h8.18c11.26,0,15.59,6.64,15.59,14.17c0,7.53-4.33,14.17-15.59,14.17h-8.18V0.61z M108.36,24.7
		h3.48c5.95,0,10.89-2.43,10.89-9.92c0-7.49-4.94-9.92-10.89-9.92h-3.48V24.7z"/>
	<path class="st0" d="M132.94,28.95V0.61h4.66v28.35H132.94z"/>
	<path class="st0" d="M163.43,18.26h-6.68v-4.37h11.26V24.5c-2.39,2.67-6.07,4.86-10.85,4.86c-8.5,0-14.09-6.4-14.09-14.54
		c0-8.14,5.55-14.62,13.93-14.62c4.62,0,8.14,1.94,10.61,4.62l-3.24,3.36c-1.62-1.9-3.77-3.52-7.65-3.52
		c-5.18,0-8.91,4.25-8.91,10.12c0,5.91,3.77,10.12,9.07,10.12c2.92,0,5.02-1.13,6.56-2.43V18.26z"/>
	<path class="st0" d="M200,0v28.95h-4.66V14.94l-8.1,11.66l-8.1-11.66v14.01h-4.66V0l12.76,18.59L200,0z"/>
</g>
</svg>
