<?xml version="1.0" encoding="utf-8"?>
<!-- Generator: Adobe Illustrator 23.0.2, SVG Export Plug-In . SVG Version: 6.00 Build 0)  -->
<svg version="1.1" id="Layer_1" xmlns="http://www.w3.org/2000/svg" xmlns:xlink="http://www.w3.org/1999/xlink" x="0px" y="0px"
	 viewBox="0 0 188.9 100" style="enable-background:new 0 0 188.9 100;" xml:space="preserve">
<style type="text/css">
	.st0{fill:#FFFFFF;}
</style>
<g>
	<path class="st0" d="M102.38,71.4c0.19,0,0.48,0.01,0.88,0.03c0.39,0.02,0.84,0.03,1.33,0.03c1.07,0,2.11-0.06,3.1-0.17
		c1-0.12,1.82-0.36,2.48-0.72c0.63-0.33,1.13-0.77,1.48-1.34c0.36-0.57,0.54-1.22,0.54-1.95c0-0.62-0.12-1.17-0.37-1.63
		c-0.25-0.46-0.58-0.88-1.01-1.26c-0.37-0.31-0.87-0.57-1.48-0.77c-0.62-0.2-1.29-0.31-2-0.31c-0.55,0-1,0.01-1.36,0.02
		c-0.36,0.01-0.58,0.02-0.66,0.02l-0.58-2.58c0.73-0.03,1.41-0.13,2.04-0.32c0.63-0.18,1.16-0.43,1.59-0.72
		c0.45-0.34,0.83-0.76,1.12-1.25c0.3-0.5,0.44-1.1,0.44-1.83c0-0.61-0.16-1.18-0.48-1.69c-0.32-0.52-0.77-0.92-1.33-1.22
		c-0.48-0.23-1.05-0.4-1.7-0.51c-0.65-0.11-1.34-0.16-2.07-0.16c-0.37,0-0.75,0.01-1.14,0.02c-0.39,0.01-0.66,0.02-0.79,0.02
		c-0.03,1.37-0.04,2.89-0.05,4.56c-0.01,1.67-0.01,3.15-0.01,4.44c0,1.33,0.01,3.17,0.02,5.51
		C102.37,69.94,102.38,71.21,102.38,71.4z"/>
	<path class="st0" d="M98.21,35.67c0.08,0,0.18,0,0.3,0c0.11,0,0.2,0,0.27,0c0.63,0,1.3-0.04,2.01-0.13
		c0.71-0.09,1.32-0.25,1.82-0.49c0.88-0.39,1.56-0.94,2.02-1.64c0.46-0.7,0.7-1.57,0.7-2.63c0-1.01-0.22-1.88-0.66-2.59
		c-0.44-0.71-1.12-1.28-2.03-1.69c-0.56-0.26-1.17-0.42-1.83-0.48c-0.66-0.06-1.33-0.1-2.03-0.1c-0.08,0-0.17,0-0.25,0
		s-0.17,0-0.27,0c0,0.11-0.01,0.85-0.03,2.21c-0.02,1.37-0.03,2.45-0.03,3.24c0,0.73,0,1.59,0.01,2.58
		C98.21,34.96,98.21,35.53,98.21,35.67z"/>
	<path class="st0" d="M169.09,35.67c0.08,0,0.18,0,0.3,0s0.2,0,0.27,0c0.63,0,1.3-0.04,2.01-0.13c0.71-0.09,1.32-0.25,1.82-0.49
		c0.88-0.39,1.56-0.94,2.02-1.64c0.46-0.7,0.7-1.57,0.7-2.63c0-1.01-0.22-1.88-0.66-2.59c-0.44-0.71-1.12-1.28-2.03-1.69
		c-0.56-0.26-1.17-0.42-1.83-0.48c-0.66-0.06-1.33-0.1-2.03-0.1c-0.08,0-0.17,0-0.25,0s-0.17,0-0.27,0c0,0.11-0.01,0.85-0.03,2.21
		c-0.02,1.37-0.03,2.45-0.03,3.24c0,0.73,0,1.59,0.01,2.58C169.09,34.96,169.09,35.53,169.09,35.67z"/>
	<path class="st0" d="M128.01,62.46c0,1.48,0.24,2.83,0.71,4.07c0.47,1.23,1.17,2.27,2.07,3.11c0.6,0.57,1.31,1.02,2.12,1.36
		c0.81,0.34,1.69,0.51,2.64,0.51c0.92,0,1.78-0.16,2.59-0.49c0.8-0.33,1.53-0.79,2.18-1.4c0.84-0.79,1.51-1.8,2.01-3.03
		c0.5-1.23,0.75-2.54,0.75-3.92c0-1.37-0.23-2.73-0.7-4.08c-0.47-1.35-1.18-2.46-2.14-3.34c-0.61-0.57-1.3-1.02-2.08-1.34
		c-0.78-0.33-1.66-0.49-2.62-0.49c-0.95,0-1.82,0.17-2.62,0.5c-0.8,0.33-1.53,0.82-2.21,1.47c-0.85,0.84-1.52,1.89-1.99,3.16
		C128.24,59.81,128.01,61.12,128.01,62.46z"/>
	<path class="st0" d="M66.55,30.69l-17.71,5.87c0,0-0.89-1.13-4.09-0.61c-3.19,0.52-7.19,1.36-9.91,2.3
		c-2.73,0.94-3.05,2.35-3.05,2.35l-2.58,0.52c0,0-0.28-0.7-2.26-0.42c-1.97,0.28-3.71,0.75-3.71,0.75s-1.32-2.54-0.14-4.04
		c0.93-1.19,4.51-3.48,17.81-7.56c13.3-4.09,23.26-4.98,23.26-4.98L66.55,30.69z"/>
	<path class="st0" d="M0,9.59l0,80.82C0,95.68,5.05,100,11.22,100h166.45c6.17,0,11.22-4.32,11.22-9.59V9.59
		c0-5.27-5.05-9.59-11.22-9.59L11.22,0C5.05,0,0,4.32,0,9.59z M166.86,29.18c-0.01-1.54-0.03-3.26-0.06-5.15
		c0.4-0.01,0.8-0.01,1.19-0.01c0.39,0,0.71,0,0.95,0c1.62,0,3,0.11,4.14,0.32c1.14,0.22,2.1,0.59,2.88,1.11
		c0.85,0.56,1.5,1.29,1.95,2.19c0.45,0.9,0.68,1.95,0.68,3.15c0,1.44-0.44,2.73-1.33,3.89c-0.89,1.16-2.07,1.95-3.55,2.36
		c-0.64,0.18-1.33,0.3-2.09,0.38c-0.75,0.08-1.6,0.12-2.52,0.12l0.03,6.24h-2.32c0.01-0.59,0.02-1.68,0.04-3.28
		c0.02-1.6,0.03-4.07,0.03-7.41C166.88,32.02,166.87,30.72,166.86,29.18z M147.2,24.03c-0.01,0.25-0.02,1.08-0.04,2.51
		s-0.02,3.31-0.02,5.64c0,0.71,0,1.44,0.01,2.2c0,0.76,0.01,1.53,0.01,2.33c0,1.8,0.49,3.16,1.48,4.09c0.99,0.93,2.32,1.39,4,1.39
		c1.82,0,3.19-0.44,4.1-1.33c0.91-0.88,1.37-2.27,1.37-4.16c0-0.8,0-1.57,0.01-2.33c0-0.76,0.01-1.49,0.01-2.2
		c0-2.33-0.01-4.24-0.03-5.72c-0.02-1.48-0.03-2.3-0.03-2.43h2.32c0,1.89-0.01,3.45-0.03,4.68c-0.02,1.23-0.03,2.31-0.03,3.22
		c0,1.12,0,2.08,0.01,2.87c0,0.79,0.01,1.48,0.01,2.06c0,1.14-0.16,2.15-0.49,3.02c-0.32,0.87-0.81,1.63-1.47,2.28
		c-0.66,0.65-1.46,1.16-2.42,1.53c-0.96,0.37-2.07,0.55-3.32,0.55c-1.26,0-2.37-0.18-3.32-0.55c-0.96-0.36-1.77-0.87-2.44-1.53
		c-0.66-0.65-1.15-1.41-1.47-2.28c-0.32-0.87-0.49-1.88-0.49-3.02c0-0.58,0-1.27,0.01-2.06c0-0.79,0.01-1.75,0.01-2.87
		c0-0.91-0.01-1.99-0.03-3.22c-0.02-1.23-0.03-2.79-0.03-4.68H147.2z M141.13,49.01c1.73,0.63,3.24,1.56,4.55,2.78
		c1.47,1.37,2.57,2.97,3.31,4.79c0.74,1.82,1.1,3.78,1.1,5.87c0,2.17-0.4,4.17-1.19,6c-0.79,1.83-1.91,3.4-3.35,4.72
		c-1.36,1.25-2.89,2.17-4.58,2.78c-1.69,0.6-3.5,0.91-5.42,0.91c-1.9,0-3.68-0.29-5.36-0.86c-1.68-0.58-3.17-1.44-4.47-2.59
		c-1.47-1.3-2.63-2.89-3.46-4.76c-0.84-1.87-1.26-3.94-1.26-6.21c0-2.1,0.35-4.02,1.04-5.75c0.69-1.73,1.75-3.29,3.17-4.67
		c1.29-1.27,2.82-2.25,4.58-2.93c1.76-0.68,3.67-1.02,5.73-1.02C137.53,48.06,139.41,48.38,141.13,49.01z M120.56,30.34
		c0.46-1.06,1.06-1.98,1.8-2.77c1.08-1.14,2.53-2.04,4.35-2.71c1.82-0.67,3.77-1,5.84-1c0.1,0,0.22,0,0.35,0c0.13,0,0.23,0,0.28,0
		c0.01,0.18,0.03,0.46,0.06,0.85c0.03,0.39,0.06,0.81,0.1,1.26c-0.09,0-0.17,0-0.24,0c-0.07,0-0.15,0-0.24,0
		c-1.18,0-2.39,0.14-3.65,0.41c-1.26,0.27-2.35,0.68-3.26,1.22c-1.18,0.71-2.1,1.62-2.74,2.72c-0.64,1.11-0.96,2.3-0.96,3.58
		c0,1.33,0.29,2.53,0.86,3.62c0.57,1.09,1.48,2,2.72,2.74c1.02,0.61,2.15,1.05,3.4,1.33c1.25,0.28,2.5,0.41,3.74,0.41
		c0.06,0,0.15,0,0.27,0c0.12,0,0.25,0,0.39-0.01c-0.01,0.09-0.04,0.34-0.08,0.74c-0.04,0.41-0.08,0.85-0.12,1.33
		c-0.08,0-0.16,0-0.25,0c-0.09,0-0.17,0-0.25,0c-2.29,0-4.33-0.3-6.11-0.91c-1.78-0.6-3.25-1.48-4.39-2.63
		c-0.8-0.8-1.43-1.75-1.89-2.86c-0.46-1.11-0.7-2.38-0.7-3.81C119.87,32.56,120.1,31.39,120.56,30.34z M112.31,29.69
		c-0.01-1.82-0.03-3.71-0.06-5.66h2.32c-0.02,1.41-0.04,3.04-0.05,4.9c-0.01,1.86-0.02,3.38-0.02,4.56c0,2.99,0.01,5.3,0.03,6.94
		c0.02,1.64,0.03,2.75,0.04,3.34h-2.32c0.01-0.59,0.02-1.64,0.04-3.16c0.02-1.51,0.03-3.69,0.03-6.52
		C112.32,32.98,112.32,31.51,112.31,29.69z M95.99,29.18c-0.01-1.54-0.03-3.26-0.06-5.15c0.4-0.01,0.8-0.01,1.19-0.01
		c0.39,0,0.71,0,0.95,0c1.62,0,3,0.11,4.14,0.32c1.14,0.22,2.1,0.59,2.88,1.11c0.85,0.56,1.5,1.29,1.96,2.19
		c0.45,0.9,0.68,1.95,0.68,3.15c0,1.44-0.44,2.73-1.33,3.89c-0.89,1.16-2.07,1.95-3.55,2.36c-0.64,0.18-1.33,0.3-2.09,0.38
		c-0.75,0.08-1.6,0.12-2.52,0.12l0.03,6.24h-2.32c0.01-0.59,0.02-1.68,0.04-3.28c0.02-1.6,0.03-4.07,0.03-7.41
		C96,32.02,96,30.72,95.99,29.18z M95.88,53.2c-0.03-2.78-0.04-4.24-0.04-4.39c0.23,0,1-0.03,2.29-0.08
		c1.29-0.05,2.68-0.08,4.17-0.08c2.24,0,4.1,0.06,5.59,0.18c1.48,0.12,2.83,0.37,4.04,0.73c1.53,0.46,2.74,1.18,3.63,2.15
		c0.89,0.97,1.34,2.16,1.34,3.58c0,1.29-0.38,2.47-1.14,3.53c-0.76,1.06-1.78,1.84-3.04,2.34v0.14c0.8,0.11,1.55,0.3,2.24,0.58
		c0.7,0.28,1.32,0.65,1.87,1.13c0.81,0.61,1.41,1.33,1.8,2.15c0.39,0.82,0.58,1.77,0.58,2.86c0,1.52-0.47,2.87-1.42,4.05
		c-0.95,1.18-2.3,2.09-4.07,2.73c-1.43,0.52-3.09,0.87-4.96,1.06c-1.88,0.19-3.94,0.28-6.18,0.28c-1.21,0-2.48-0.02-3.8-0.05
		c-1.32-0.03-2.3-0.06-2.93-0.09c0.03-2.23,0.05-4.5,0.06-6.81c0.01-2.31,0.02-4.8,0.02-7.46C95.92,58.82,95.91,55.98,95.88,53.2z
		 M172.16,76.63c-0.43-0.81-1.22-2.06-2.38-3.73c-1.16-1.68-2.79-4.03-4.89-7.05h-0.08c-1.71,2.41-3.26,4.66-4.66,6.74
		c-1.4,2.08-2.24,3.42-2.53,4.03l-6.26-2.36c0.38-0.61,1.26-1.87,2.63-3.77c1.37-1.91,3.33-4.62,5.88-8.15v-0.08
		c-1.5-2.27-3.1-4.58-4.8-6.95c-1.7-2.37-2.78-3.92-3.21-4.65l6.44-2.38c0.36,0.72,1.15,1.97,2.39,3.74
		c1.23,1.78,2.7,3.87,4.41,6.27h0.1c1.5-2.24,2.93-4.34,4.29-6.31c1.36-1.97,2.16-3.2,2.41-3.7l6.22,2.24
		c-0.33,0.56-1.37,2.01-3.12,4.37c-1.75,2.36-3.4,4.7-4.97,7.02v0.08c1.95,2.73,3.69,5.12,5.21,7.18c1.52,2.06,2.65,3.71,3.39,4.94
		L172.16,76.63z M35.07,28.1C13.95,36.21,7.63,41.45,7.63,41.45V9.78h15.41c0-0.19-0.47,13.44-0.47,13.44s3.66-2.63,27.25-5.92
		c23.59-3.29,38.06-0.47,38.06-0.47v1.32C87.88,18.14,60.54,18.33,35.07,28.1z M69.46,50.75c-1.6,3.95-3.48,6.06-6.53,9.44
		c-3.05,3.38-4.13,5.31-3.95,6.3c0.19,0.99,0.8,5.83-1.97,6.16c-2.77,0.33-3.81-3.81-6.95-6.3c-3.15-2.49-5.69-2.4-5.69-2.4
		s0.66-0.85,0.23-3.05c-0.42-2.21-2.44-3.15-2.44-3.15l-0.89-0.09c0,0,0.75,0.47,1.13,1.08c0.38,0.61,1.6,2.21,0.28,3.85
		c-1.32,1.64-3.24,0.85-3.24,0.85s1.69-0.66,1.36-1.55c-0.33-0.89-2.11-1.32-4.13,0.05c-2.02,1.36-1.74,1.79-4.28,2.26
		c-2.54,0.47-3.71-1.97-3.71-1.97s0.38,1.6,1.22,2.3c0.85,0.7,1.97,0.89,1.97,0.89s-1.32,2.07-1.03,4.79
		c0.28,2.73,2.35,4.7,2.35,4.7s-0.28-1.93,1.69-3.29c1.59-1.1,1.03-3.1,1.03-3.1s1.6,2.07,4.51,2.44c2.91,0.38,7.56,0.14,10.85,2.21
		c4.3,2.7,6.28,9.88,2.11,11.61c-5.54,2.3-5.54-6.06-5.54-6.06s-3.01,3.15-6.95,3.43c-3.63,0.26-5.35-2.03-5.6-2.39
		c0.26,0.39,1.99,3.06,2.6,5.49c0.66,2.63,0.09,4.89,0.09,4.89H7.44V45.58c0,0,1.97,0.38,5.07,0.47c3.1,0.09,5.54,0.09,5.54,0.09
		s-2.16,1.36-0.7,4.93c1.14,2.79,4.18,6.86,6.58,8.08c2.4,1.22,4.84-0.38,4.84-0.38s0.75-1.69,1.22-4.23
		c0.47-2.54,0.38-4.09,0.7-5.87c0.33-1.79,1.27-1.83,2.3-0.52c1.03,1.32,5.26,8.55,12.64,7c7.38-1.55,4.18-11.61,4.18-11.61
		l17.76-7.38c0,0,1.5,3.38,2.26,5.97C70.59,44.74,71.06,46.8,69.46,50.75z M88.26,32.05c0,0-1.88-1.6-4.23-0.8
		c-2.35,0.8-3.52,3.95-4.23,7.8c-0.7,3.85,0,4.93,0.99,4.98c0.99,0.05,1.32-0.56,1.88-1.6c0.56-1.03,0.66-0.85,1.97-1.5
		s-0.66-2.44-0.66-2.44s1.32-0.7,1.03-1.74c-0.28-1.03-1.6-2.68,0.38-3.52c1.97-0.85,2.68,0.66,2.68,0.66v7.94
		c0,0-1.46,1.22-1.5,3.05c-0.05,1.83,0.09,3.76-1.83,5.07c-1.93,1.32-4.98,0.47-4.98,0.47s0.47,0.99,1.97,1.27
		c1.5,0.28,2.35,0.14,2.35,0.14l4.09,6.3v11.7c0,0-6.39-10.1-10.2-18.28c-3.81-8.18-2-13.16-0.38-17.34
		c1.74-4.46,4.04-5.59,6.06-6.25c1.82-0.59,4.6,0.52,4.6,0.52V32.05z"/>
	<polygon class="st0" points="34.18,72.51 36.71,74.76 41.27,74.48 46.67,71.99 51.14,72.36 47.8,70.63 40.61,70.2 38.97,71.66 	"/>
	<path class="st0" d="M82.34,44.93c-1.25,0-2.26,1.01-2.26,2.26s1.01,2.26,2.26,2.26c1.25,0,2.26-1.01,2.26-2.26
		S83.58,44.93,82.34,44.93z M82.81,47.46c-0.47,0-0.85-0.38-0.85-0.85c0-0.47,0.38-0.85,0.85-0.85c0.47,0,0.85,0.38,0.85,0.85
		C83.65,47.08,83.27,47.46,82.81,47.46z"/>
</g>
</svg>
