<?xml version="1.0" encoding="utf-8"?>
<!-- Generator: Adobe Illustrator 23.0.2, SVG Export Plug-In . SVG Version: 6.00 Build 0)  -->
<svg version="1.1" id="Layer_1" xmlns="http://www.w3.org/2000/svg" xmlns:xlink="http://www.w3.org/1999/xlink" x="0px" y="0px"
	 viewBox="0 0 150 71.68" style="enable-background:new 0 0 150 71.68;" xml:space="preserve">
<style type="text/css">
	.st0{fill:none;stroke:#FFFFFF;stroke-width:2;stroke-miterlimit:10;}
	.st1{fill:#FFFFFF;}
</style>
<path class="st0" d="M0.77,51.77c46.68-0.07,93.36-0.13,140.04-0.2"/>
<path class="st1" d="M0.77,19.33V0.29h7.51c1.44,0,2.67,0.27,3.69,0.82s1.79,1.31,2.33,2.28s0.8,2.09,0.8,3.35s-0.27,2.38-0.82,3.35
	c-0.55,0.97-1.33,1.72-2.37,2.26c-1.03,0.54-2.28,0.81-3.74,0.81H3.39V9.93h4.14c0.77,0,1.41-0.13,1.92-0.4
	c0.5-0.27,0.88-0.64,1.13-1.12s0.38-1.03,0.38-1.66s-0.13-1.18-0.38-1.66S9.95,4.25,9.44,3.98c-0.51-0.26-1.15-0.4-1.93-0.4H4.79
	v15.75C4.79,19.33,0.77,19.33,0.77,19.33z"/>
<path class="st1" d="M18.73,19.33V0.29h7.51c1.44,0,2.67,0.26,3.69,0.77s1.8,1.23,2.33,2.17c0.54,0.93,0.8,2.03,0.8,3.29
	s-0.27,2.35-0.82,3.26s-1.33,1.6-2.37,2.09c-1.03,0.48-2.28,0.72-3.74,0.72H21.1V9.35h4.38c0.77,0,1.41-0.11,1.91-0.32
	c0.51-0.21,0.89-0.53,1.14-0.95s0.38-0.94,0.38-1.57s-0.13-1.16-0.38-1.6c-0.25-0.43-0.63-0.76-1.14-0.99
	c-0.51-0.23-1.15-0.34-1.93-0.34h-2.71v15.75C22.75,19.33,18.73,19.33,18.73,19.33z M29.01,10.66l4.73,8.66H29.3l-4.63-8.66H29.01z"
	/>
<path class="st1" d="M53.4,9.81c0,2.08-0.39,3.84-1.18,5.3c-0.78,1.46-1.85,2.57-3.2,3.33c-1.35,0.77-2.86,1.15-4.54,1.15
	c-1.69,0-3.21-0.38-4.55-1.15s-2.41-1.88-3.19-3.34s-1.17-3.22-1.17-5.29c0-2.08,0.39-3.84,1.17-5.3s1.84-2.57,3.19-3.33
	c1.34-0.76,2.86-1.15,4.55-1.15c1.68,0,3.19,0.38,4.54,1.15c1.35,0.77,2.41,1.88,3.2,3.33S53.4,7.73,53.4,9.81z M49.32,9.81
	c0-1.34-0.2-2.48-0.6-3.4c-0.4-0.92-0.96-1.62-1.69-2.1s-1.57-0.72-2.55-0.72c-0.97,0-1.82,0.24-2.55,0.72s-1.29,1.18-1.69,2.1
	c-0.4,0.92-0.6,2.06-0.6,3.4s0.2,2.48,0.6,3.4c0.4,0.92,0.96,1.62,1.69,2.1c0.72,0.48,1.57,0.72,2.55,0.72
	c0.97,0,1.82-0.24,2.55-0.72c0.72-0.48,1.29-1.18,1.69-2.1C49.12,12.29,49.32,11.15,49.32,9.81z"/>
<path class="st1" d="M56.37,19.33V0.29h7.51c1.44,0,2.67,0.27,3.69,0.82c1.02,0.55,1.79,1.31,2.33,2.28s0.8,2.09,0.8,3.35
	s-0.27,2.38-0.82,3.35s-1.33,1.72-2.37,2.26c-1.03,0.54-2.28,0.81-3.74,0.81H59V9.93h4.14c0.77,0,1.41-0.13,1.92-0.4
	c0.5-0.27,0.88-0.64,1.13-1.12s0.38-1.03,0.38-1.66s-0.13-1.18-0.38-1.66c-0.25-0.47-0.63-0.84-1.14-1.11
	c-0.51-0.26-1.15-0.4-1.93-0.4H60.4v15.75C60.4,19.33,56.37,19.33,56.37,19.33z"/>
<path class="st1" d="M73.33,19.33V0.29h12.83v3.32h-8.8v4.54h8.14v3.32h-8.14v4.54h8.84v3.32C86.2,19.33,73.33,19.33,73.33,19.33z"
	/>
<path class="st1" d="M89.36,19.33V0.29h7.51c1.44,0,2.67,0.26,3.69,0.77c1.02,0.51,1.8,1.23,2.33,2.17c0.54,0.93,0.8,2.03,0.8,3.29
	s-0.27,2.35-0.82,3.26s-1.33,1.6-2.37,2.09c-1.03,0.48-2.28,0.72-3.74,0.72h-5.03V9.35h4.38c0.77,0,1.41-0.11,1.91-0.32
	c0.51-0.21,0.89-0.53,1.14-0.95s0.38-0.94,0.38-1.57s-0.13-1.16-0.38-1.6c-0.25-0.43-0.63-0.76-1.14-0.99
	c-0.51-0.23-1.15-0.34-1.93-0.34h-2.71v15.75C93.38,19.33,89.36,19.33,89.36,19.33z M99.64,10.66l4.73,8.66h-4.44l-4.63-8.66H99.64z
	"/>
<path class="st1" d="M105.81,3.61V0.29h15.63v3.32h-5.83v15.72h-3.98V3.61H105.81z"/>
<path class="st1" d="M122.92,0.29h4.51l4.34,8.2h0.19l4.34-8.2h4.51l-6.94,12.31v6.73h-4V12.6L122.92,0.29z"/>
<path class="st1" d="M0.77,45.39V26.35H7.2c1.49,0,2.72,0.27,3.67,0.8c0.95,0.54,1.66,1.26,2.11,2.17s0.69,1.93,0.69,3.05
	s-0.23,2.14-0.68,3.06c-0.46,0.92-1.16,1.65-2.11,2.19c-0.95,0.54-2.16,0.81-3.64,0.81H2.63v-2.05h4.54c1.02,0,1.84-0.18,2.46-0.53
	s1.07-0.83,1.35-1.44c0.28-0.6,0.42-1.29,0.42-2.05s-0.14-1.44-0.42-2.05c-0.28-0.6-0.74-1.07-1.36-1.42
	c-0.63-0.34-1.46-0.52-2.49-0.52H3.07v16.99h-2.3V45.39z"/>
<path class="st1" d="M19.43,45.39h-2.42L24,26.35h2.38l6.99,19.04h-2.42l-5.69-16.02h-0.15L19.43,45.39z M20.33,37.95h9.74V40h-9.74
	V37.95z"/>
<path class="st1" d="M37.33,45.39V26.35h6.43c1.49,0,2.71,0.25,3.66,0.76s1.66,1.2,2.12,2.08s0.69,1.88,0.69,3
	c0,1.12-0.23,2.12-0.69,2.98c-0.46,0.87-1.16,1.55-2.11,2.04s-2.16,0.74-3.63,0.74h-5.21v-2.08h5.13c1.02,0,1.84-0.15,2.46-0.45
	s1.07-0.72,1.36-1.27c0.28-0.55,0.42-1.2,0.42-1.97s-0.14-1.43-0.43-2c-0.28-0.57-0.74-1.01-1.37-1.32
	c-0.63-0.31-1.45-0.47-2.48-0.47h-4.05v16.99L37.33,45.39L37.33,45.39z M46.29,36.83l4.69,8.55H48.3l-4.61-8.55H46.29z"/>
<path class="st1" d="M54.97,28.39v-2.05h14.28v2.05h-5.99v16.99h-2.31V28.39H54.97z"/>
<path class="st1" d="M87.62,26.35v19.04h-2.23L75.02,30.44h-0.19v14.95h-2.31V26.35h2.23l10.41,14.98h0.19V26.35H87.62z"/>
<path class="st1" d="M92.21,45.39V26.35h11.49v2.05h-9.18v6.43h8.59v2.04h-8.59v6.47h9.33v2.05H92.21z"/>
<path class="st1" d="M109.17,45.39V26.35h6.43c1.49,0,2.71,0.25,3.66,0.76c0.95,0.51,1.66,1.2,2.12,2.08s0.69,1.88,0.69,3
	c0,1.12-0.23,2.12-0.69,2.98c-0.46,0.87-1.16,1.55-2.11,2.04s-2.16,0.74-3.63,0.74h-5.21v-2.08h5.13c1.02,0,1.84-0.15,2.46-0.45
	s1.08-0.72,1.36-1.27s0.42-1.2,0.42-1.97s-0.14-1.43-0.43-2c-0.28-0.57-0.74-1.01-1.37-1.32c-0.63-0.31-1.45-0.47-2.48-0.47h-4.05
	v16.99L109.17,45.39L109.17,45.39z M118.13,36.83l4.69,8.55h-2.68l-4.61-8.55H118.13z"/>
<path class="st1" d="M138.32,31.11c-0.11-0.94-0.56-1.67-1.36-2.19c-0.79-0.52-1.77-0.78-2.92-0.78c-0.84,0-1.58,0.14-2.21,0.41
	c-0.63,0.27-1.12,0.65-1.47,1.12c-0.35,0.48-0.53,1.02-0.53,1.63c0,0.68,0.21,1.23,0.63,1.65c0.42,0.42,0.91,0.74,1.49,0.98
	c0.57,0.23,1.1,0.41,1.57,0.53l1.93,0.52c0.5,0.13,1.05,0.31,1.66,0.54s1.2,0.54,1.76,0.93s1.02,0.9,1.39,1.51s0.55,1.37,0.55,2.26
	c0,1.03-0.27,1.96-0.8,2.79c-0.54,0.83-1.32,1.49-2.34,1.98c-1.03,0.49-2.27,0.73-3.73,0.73c-1.36,0-2.54-0.22-3.54-0.66
	c-0.99-0.44-1.78-1.05-2.34-1.84c-0.57-0.79-0.89-1.7-0.96-2.74h2.38c0.06,0.72,0.3,1.31,0.73,1.78c0.42,0.47,0.96,0.81,1.62,1.04
	c0.65,0.23,1.36,0.34,2.11,0.34c0.88,0,1.67-0.14,2.37-0.43s1.26-0.69,1.66-1.21s0.61-1.12,0.61-1.82c0-0.63-0.18-1.15-0.53-1.54
	c-0.35-0.4-0.82-0.72-1.39-0.97c-0.58-0.25-1.2-0.46-1.87-0.65l-2.34-0.67c-1.49-0.43-2.66-1.04-3.53-1.83s-1.3-1.83-1.3-3.11
	c0-1.07,0.29-2,0.87-2.79c0.58-0.8,1.36-1.42,2.34-1.86c0.98-0.44,2.08-0.66,3.3-0.66c1.23,0,2.32,0.22,3.27,0.66
	s1.71,1.03,2.27,1.79s0.86,1.61,0.89,2.58h-2.24V31.11z"/>
<path class="st1" d="M0.77,56.28h3.95l4.17,10.19h0.18l4.17-10.19h3.95v15.16h-3.11v-9.87h-0.13l-3.92,9.79h-2.1l-3.92-9.83H3.88
	v9.9H0.77V56.28z"/>
<path class="st1" d="M33.64,61.59H30.4c-0.06-0.42-0.18-0.79-0.36-1.12c-0.18-0.33-0.42-0.61-0.7-0.84
	c-0.29-0.23-0.62-0.41-0.99-0.53c-0.37-0.12-0.78-0.18-1.21-0.18c-0.78,0-1.47,0.19-2.05,0.58c-0.58,0.39-1.03,0.95-1.35,1.69
	c-0.32,0.74-0.48,1.63-0.48,2.68c0,1.08,0.16,1.99,0.48,2.72s0.78,1.29,1.36,1.67s1.26,0.56,2.02,0.56c0.43,0,0.83-0.06,1.2-0.17
	s0.69-0.28,0.98-0.5c0.29-0.22,0.52-0.49,0.71-0.8c0.19-0.32,0.32-0.68,0.4-1.08l3.24,0.02c-0.08,0.7-0.29,1.37-0.63,2.01
	c-0.33,0.64-0.78,1.22-1.34,1.72c-0.56,0.51-1.23,0.91-2,1.2c-0.77,0.29-1.65,0.44-2.62,0.44c-1.35,0-2.56-0.31-3.62-0.92
	s-1.9-1.5-2.52-2.66C20.31,66.92,20,65.52,20,63.87s0.31-3.06,0.93-4.22S22.4,57.6,23.46,57c1.07-0.61,2.26-0.91,3.6-0.91
	c0.88,0,1.69,0.12,2.45,0.37c0.75,0.25,1.42,0.61,2,1.08c0.58,0.47,1.06,1.05,1.42,1.73C33.3,59.93,33.53,60.71,33.64,61.59z"/>
<path class="st1" d="M41.68,71.44h-5.37V56.28h5.42c1.52,0,2.84,0.3,3.94,0.91s1.95,1.47,2.54,2.6c0.59,1.13,0.89,2.48,0.89,4.06
	s-0.3,2.94-0.89,4.07c-0.59,1.14-1.45,2.01-2.55,2.61C44.55,71.14,43.22,71.44,41.68,71.44z M39.51,68.7h2.04
	c0.95,0,1.75-0.17,2.39-0.51c0.65-0.34,1.14-0.86,1.47-1.58c0.33-0.71,0.49-1.64,0.49-2.77c0-1.12-0.16-2.04-0.49-2.75
	s-0.82-1.23-1.46-1.57c-0.65-0.34-1.44-0.5-2.39-0.5h-2.04v9.68H39.51z"/>
<path class="st1" d="M65.55,63.86c0,1.65-0.31,3.06-0.94,4.22c-0.62,1.16-1.47,2.05-2.55,2.65c-1.07,0.61-2.28,0.91-3.62,0.91
	c-1.35,0-2.56-0.31-3.63-0.92s-1.92-1.5-2.54-2.66c-0.62-1.16-0.93-2.56-0.93-4.21s0.31-3.06,0.93-4.22s1.47-2.05,2.54-2.65
	c1.07-0.61,2.28-0.91,3.63-0.91c1.34,0,2.54,0.3,3.62,0.91c1.07,0.61,1.92,1.49,2.55,2.65C65.24,60.8,65.55,62.21,65.55,63.86z
	 M62.3,63.86c0-1.07-0.16-1.97-0.48-2.71c-0.32-0.74-0.77-1.29-1.34-1.67c-0.58-0.38-1.25-0.57-2.03-0.57S57,59.1,56.42,59.48
	c-0.58,0.38-1.03,0.94-1.34,1.67c-0.32,0.74-0.48,1.64-0.48,2.71s0.16,1.97,0.48,2.71s0.77,1.29,1.34,1.67s1.25,0.57,2.03,0.57
	c0.77,0,1.45-0.19,2.03-0.57s1.03-0.94,1.34-1.67S62.3,64.93,62.3,63.86z"/>
<path class="st1" d="M81,56.28v15.16h-2.77l-6.6-9.54h-0.11v9.54h-3.21V56.28h2.81l6.54,9.53h0.13v-9.53H81z"/>
<path class="st1" d="M98.45,56.28v15.16h-2.77l-6.6-9.54h-0.11v9.54h-3.2V56.28h2.81l6.54,9.53h0.13v-9.53H98.45z"/>
<path class="st1" d="M102.66,71.44V56.28h10.22v2.64h-7.01v3.61h6.49v2.64h-6.49v3.62h7.04v2.64h-10.25V71.44z"/>
<path class="st1" d="M117.65,71.44V56.28h3.21V68.8h6.5v2.64H117.65z"/>
<path class="st1" d="M131.1,71.44V56.28h3.21V68.8h6.5v2.64H131.1z"/>
</svg>
