<?xml version="1.0" encoding="utf-8"?>
<!-- Generator: Adobe Illustrator 23.0.2, SVG Export Plug-In . SVG Version: 6.00 Build 0)  -->
<svg version="1.1" xmlns="http://www.w3.org/2000/svg" xmlns:xlink="http://www.w3.org/1999/xlink" x="0px" y="0px"
	 viewBox="0 0 150 147" style="enable-background:new 0 0 150 147;" xml:space="preserve">
<style type="text/css">
	.st0{fill:#FFFFFF;}
</style>
<g id="Layer_2">
</g>
<g id="Layer_1">
	<g id="Layer_3">
		<path class="st0" d="M150,73.51C150,114.1,116.42,147,75,147S0,114.1,0,73.51s33.58-73.5,75-73.5S150,32.91,150,73.51z
			 M34.57,115.22c-0.18-0.1-0.36-0.24-0.54-0.43c-0.51-0.51-0.74-1-0.72-1.47c1.05,0.35,2.1,0,3.17-1.05
			c0.72-0.71,1.11-1.43,1.17-2.18c0.06-0.74-0.22-1.44-0.86-2.09c-0.56-0.57-1.23-0.82-2.01-0.73c-0.77,0.08-1.49,0.45-2.14,1.09
			c-0.69,0.68-1.09,1.4-1.2,2.17s0.12,1.45,0.7,2.03c0.16,0.17,0.29,0.28,0.38,0.34c-0.1,0.45-0.08,0.91,0.08,1.38
			s0.42,0.89,0.8,1.27c0.14,0.14,0.28,0.27,0.43,0.38L34.57,115.22z M34.88,108.32c0.46-0.1,0.86,0.03,1.21,0.38
			c0.78,0.79,0.64,1.71-0.42,2.75c-0.52,0.51-1.02,0.81-1.51,0.89c-0.49,0.08-0.92-0.07-1.31-0.46c-0.33-0.34-0.43-0.76-0.3-1.25
			c0.13-0.5,0.43-0.98,0.9-1.43C33.95,108.71,34.42,108.42,34.88,108.32z M38.26,117.97l2.97-3.49l-0.81-0.69l-2.04,2.4
			c-0.16,0.08-0.36,0.1-0.6,0.06s-0.45-0.14-0.64-0.29c-0.4-0.34-0.41-0.74-0.03-1.18l1.88-2.2l-0.81-0.69l-1.93,2.26
			c-0.73,0.86-0.69,1.63,0.12,2.33c0.17,0.14,0.39,0.27,0.65,0.37c0.26,0.1,0.49,0.16,0.69,0.16l-0.25,0.29L38.26,117.97z
			 M41.72,120.44c0.03,0.16,0.11,0.29,0.23,0.38c0.11,0.08,0.22,0.14,0.33,0.18s0.24,0.02,0.41-0.06c-0.11-0.27,0.02-0.65,0.38-1.15
			l0.58-0.79c0.52-0.72,0.74-1.3,0.67-1.75c-0.08-0.45-0.4-0.88-0.96-1.29c-0.41-0.3-0.82-0.49-1.22-0.56l-0.3,0.81
			c0.3,0.05,0.61,0.2,0.94,0.43c0.55,0.4,0.67,0.82,0.35,1.25c-0.11-0.14-0.22-0.24-0.32-0.31c-0.59-0.43-1.14-0.64-1.64-0.63
			s-0.9,0.23-1.21,0.66c-0.27,0.37-0.36,0.73-0.27,1.1c0.08,0.37,0.32,0.69,0.72,0.98c0.21,0.16,0.45,0.26,0.7,0.32
			s0.47,0.05,0.64-0.02C41.69,120.12,41.69,120.27,41.72,120.44z M42.4,118.9c-0.38,0.52-0.82,0.59-1.35,0.21
			c-0.39-0.28-0.46-0.59-0.22-0.92c0.33-0.45,0.83-0.42,1.51,0.07c0.08,0.05,0.18,0.15,0.3,0.29L42.4,118.9z M44.06,121
			c-0.36,0.57-0.34,0.98,0.07,1.24c0.33,0.22,0.66,0.23,0.97,0.06c-0.23-0.27-0.19-0.65,0.12-1.12l2.78-4.34l-1.04-0.36L44.06,121z
			 M46.93,123.83l2.29-3.97l-1.45-0.84l-0.44,0.76l0.51,0.29l-1.86,3.21L46.93,123.83z M49.18,118c-0.17,0.04-0.29,0.14-0.38,0.29
			s-0.11,0.31-0.06,0.47c0.04,0.16,0.14,0.29,0.29,0.38s0.31,0.11,0.47,0.06c0.17-0.04,0.29-0.14,0.38-0.29s0.11-0.31,0.06-0.47
			c-0.04-0.16-0.14-0.29-0.29-0.38C49.51,117.97,49.35,117.95,49.18,118z M48.98,123.35c-0.22,0.43-0.27,0.81-0.17,1.15
			s0.35,0.62,0.76,0.82c0.41,0.21,0.74,0.33,1,0.37l0.45-0.88c-0.26,0.02-0.51-0.02-0.74-0.14c-0.23-0.12-0.36-0.26-0.39-0.43
			s0.03-0.4,0.18-0.69l0.91-1.79l1.12,0.57l0.39-0.76l-1.12-0.56l0.6-1.18l-1.13-0.14l-0.42,0.83l-0.47-0.24l-0.39,0.76l0.47,0.24
			L48.98,123.35z M57.05,123.55l-1.02-0.43l-2.27,2.48l0.08-3.4l-1.02-0.43l-0.06,3.83c-0.01,0.61-0.07,1.04-0.17,1.29
			c-0.16,0.38-0.62,0.41-1.38,0.09l-0.37,0.87c0.46,0.2,0.9,0.27,1.33,0.23c0.42-0.04,0.75-0.18,0.97-0.41L57.05,123.55z
			 M64.63,125.03l0.25-0.96l-5.02-1.31l-0.25,0.96l1.93,0.51l-1.34,5.1l1.08,0.28l1.34-5.1L64.63,125.03z M67.22,126.25
			c-0.17-0.14-0.43-0.25-0.79-0.32c-0.49-0.09-0.91,0-1.27,0.27l0.08-0.41l-1.05-0.2l-0.84,4.5l1.05,0.2l0.48-2.56
			c0.06-0.32,0.21-0.57,0.44-0.76s0.47-0.25,0.71-0.21c0.22,0.04,0.42,0.14,0.58,0.3L67.22,126.25z M69.83,130.99
			c0.11,0.13,0.24,0.2,0.39,0.21c0.14,0.02,0.26,0.01,0.37-0.01c0.11-0.02,0.22-0.11,0.32-0.25c-0.23-0.18-0.31-0.58-0.24-1.18
			l0.11-0.98c0.1-0.88,0-1.5-0.29-1.85s-0.78-0.57-1.47-0.64c-0.51-0.06-0.95-0.02-1.33,0.12l0.14,0.85
			c0.28-0.1,0.63-0.14,1.03-0.09c0.68,0.08,0.99,0.38,0.93,0.92c-0.17-0.06-0.31-0.1-0.43-0.11c-0.73-0.08-1.31,0.01-1.74,0.26
			c-0.43,0.25-0.67,0.65-0.73,1.17c-0.05,0.45,0.05,0.81,0.31,1.09c0.25,0.27,0.63,0.44,1.11,0.49c0.26,0.03,0.52,0,0.77-0.07
			c0.25-0.08,0.43-0.19,0.55-0.33C69.66,130.73,69.72,130.86,69.83,130.99z M69.66,129.32c-0.07,0.64-0.42,0.92-1.06,0.85
			c-0.47-0.05-0.69-0.28-0.64-0.69c0.06-0.55,0.51-0.78,1.35-0.68c0.09,0.01,0.22,0.04,0.4,0.1L69.66,129.32z M74.33,126.63
			c-0.77-0.02-1.39,0.19-1.84,0.63c-0.46,0.43-0.69,1.01-0.71,1.73c-0.02,0.73,0.18,1.31,0.58,1.73s0.95,0.64,1.66,0.65
			c0.31,0.01,0.59-0.01,0.82-0.06s0.51-0.16,0.82-0.35l-0.37-0.85c-0.31,0.25-0.66,0.38-1.06,0.37c-0.92-0.02-1.36-0.51-1.34-1.47
			c0.01-0.48,0.14-0.85,0.38-1.11c0.24-0.26,0.57-0.39,0.97-0.38c0.42,0.01,0.76,0.14,1,0.38l0.47-0.79
			C75.32,126.8,74.86,126.64,74.33,126.63z M76.87,129.87c0.02,0.47,0.17,0.84,0.43,1.08c0.26,0.25,0.61,0.35,1.07,0.33
			s0.81-0.08,1.05-0.18l-0.05-0.98c-0.22,0.15-0.45,0.23-0.71,0.25s-0.44-0.04-0.55-0.18s-0.17-0.36-0.19-0.68l-0.1-2l1.25-0.06
			l-0.04-0.86l-1.25,0.06l-0.07-1.33l-1.05,0.45l0.05,0.93l-0.53,0.03l0.04,0.86l0.53-0.03L76.87,129.87z M80.76,130.46
			c0.44,0.38,1,0.53,1.7,0.43c0.68-0.09,1.18-0.37,1.51-0.85c0.33-0.48,0.45-1.08,0.35-1.8s-0.36-1.27-0.8-1.64s-1-0.51-1.69-0.41
			c-0.66,0.09-1.15,0.37-1.5,0.86c-0.34,0.49-0.47,1.08-0.37,1.77C80.05,129.53,80.32,130.07,80.76,130.46z M81.21,127.54
			c0.16-0.29,0.41-0.45,0.74-0.49c0.72-0.1,1.14,0.35,1.27,1.34c0.06,0.48,0.02,0.86-0.14,1.15c-0.16,0.29-0.41,0.45-0.74,0.49
			c-0.72,0.1-1.15-0.36-1.28-1.36C81,128.2,81.05,127.82,81.21,127.54z M87.84,125.22c-0.22-0.07-0.5-0.06-0.86,0.02
			c-0.49,0.11-0.84,0.35-1.06,0.75l-0.09-0.41l-1.04,0.23l0.98,4.48l1.04-0.23l-0.56-2.55c-0.07-0.32-0.04-0.61,0.11-0.87
			c0.14-0.26,0.33-0.42,0.57-0.47c0.22-0.05,0.44-0.03,0.65,0.05L87.84,125.22z M93.26,125.85c1.59-0.58,2.14-1.55,1.64-2.9
			c-0.22-0.61-0.6-0.97-1.13-1.1c-0.54-0.13-1.27-0.02-2.19,0.32c-0.12,0.04-0.52,0.21-1.21,0.49l2.15,5.88l1.04-0.38l-0.79-2.17
			C92.98,125.94,93.14,125.89,93.26,125.85z M92.06,123.05c0.98-0.36,1.58-0.23,1.81,0.38c0.13,0.36,0.12,0.66-0.04,0.9
			s-0.48,0.45-0.96,0.62c-0.1,0.04-0.24,0.08-0.43,0.12l-0.69-1.88C91.84,123.13,91.95,123.09,92.06,123.05z M99.69,125.52
			c0.16,0.05,0.31,0.04,0.45-0.02c0.13-0.06,0.23-0.13,0.31-0.2c0.08-0.08,0.13-0.21,0.15-0.38c-0.29-0.04-0.56-0.33-0.82-0.89
			l-0.41-0.89c-0.37-0.8-0.77-1.28-1.2-1.43s-0.96-0.08-1.59,0.22c-0.46,0.22-0.82,0.48-1.08,0.79l0.56,0.66
			c0.19-0.23,0.47-0.44,0.83-0.61c0.62-0.29,1.04-0.19,1.27,0.3c-0.17,0.03-0.31,0.08-0.43,0.13c-0.66,0.31-1.11,0.68-1.35,1.12
			c-0.23,0.44-0.24,0.9-0.02,1.38c0.19,0.41,0.47,0.67,0.82,0.78c0.36,0.11,0.76,0.05,1.21-0.16c0.24-0.11,0.45-0.26,0.62-0.45
			c0.18-0.19,0.27-0.38,0.29-0.57C99.4,125.39,99.53,125.47,99.69,125.52z M98.67,124.18c0.27,0.58,0.12,1.01-0.47,1.28
			c-0.43,0.2-0.73,0.12-0.91-0.26c-0.23-0.5,0.03-0.93,0.8-1.29c0.08-0.04,0.22-0.08,0.4-0.12L98.67,124.18z M102.16,119.19
			c-0.22,0-0.49,0.08-0.81,0.26c-0.43,0.24-0.7,0.58-0.8,1.02l-0.2-0.37l-0.93,0.52l2.23,4l0.93-0.52l-1.27-2.28
			c-0.16-0.28-0.21-0.57-0.15-0.86s0.2-0.5,0.41-0.62c0.2-0.11,0.41-0.16,0.64-0.14L102.16,119.19z M104.48,121.37
			c0.26,0.4,0.56,0.64,0.9,0.73c0.35,0.09,0.71,0,1.09-0.24c0.39-0.25,0.66-0.48,0.82-0.68l-0.53-0.83
			c-0.11,0.24-0.27,0.43-0.49,0.57s-0.4,0.18-0.56,0.12c-0.16-0.06-0.33-0.23-0.51-0.5l-1.09-1.69l1.06-0.68l-0.47-0.72l-1.06,0.68
			l-0.72-1.11l-0.68,0.91l0.51,0.78L102.3,119l0.47,0.72l0.45-0.29L104.48,121.37z M108.54,120.36c0.18-0.07,0.39-0.19,0.64-0.37
			c0.44-0.32,0.71-0.67,0.82-1.06c0.11-0.38,0.04-0.74-0.21-1.09c-0.19-0.26-0.42-0.43-0.7-0.5c-0.27-0.08-0.62-0.06-1.04,0.05
			s-0.7,0.16-0.86,0.16s-0.27-0.05-0.33-0.15c-0.18-0.24-0.11-0.47,0.19-0.69c0.33-0.25,0.66-0.36,0.96-0.33l-0.24-0.85
			c-0.47,0.08-0.89,0.25-1.27,0.53s-0.63,0.6-0.74,0.95c-0.11,0.36-0.05,0.7,0.18,1.02c0.35,0.48,0.94,0.61,1.77,0.41
			c0.38-0.09,0.66-0.13,0.82-0.12c0.17,0.02,0.3,0.1,0.41,0.23c0.18,0.24,0.1,0.48-0.24,0.73c-0.32,0.24-0.69,0.35-1.1,0.33
			l0.2,0.91C108.11,120.49,108.37,120.43,108.54,120.36z M116.54,113.68l-0.67-0.73l-2.08,1.92l-3.58-3.88l-0.82,0.75l4.24,4.61
			L116.54,113.68z M116.38,111.81c0.35,0.33,0.7,0.49,1.05,0.49s0.69-0.16,1.01-0.49c0.31-0.33,0.53-0.62,0.64-0.86l-0.71-0.68
			c-0.05,0.26-0.17,0.48-0.34,0.66c-0.18,0.19-0.35,0.27-0.52,0.25s-0.37-0.14-0.61-0.37l-1.45-1.38l0.87-0.91l-0.62-0.59
			l-0.87,0.91l-0.96-0.92l-0.45,1.05l0.68,0.64l-0.37,0.38l0.62,0.59l0.37-0.38L116.38,111.81z M122.41,107.05l-5.06-4.14
			l-0.48,0.99l1.42,1.16c-0.29,0.13-0.55,0.33-0.77,0.6c-0.4,0.49-0.56,1.04-0.47,1.66s0.41,1.15,0.97,1.61s1.11,0.67,1.66,0.65
			c0.55-0.03,1.02-0.29,1.43-0.78c0.14-0.18,0.25-0.37,0.33-0.58s0.11-0.38,0.09-0.51l0.22,0.18L122.41,107.05z M120.88,107.19
			c0.02,0.08,0,0.19-0.04,0.35c-0.05,0.16-0.1,0.27-0.17,0.35c-0.58,0.71-1.24,0.76-1.98,0.16c-0.38-0.31-0.59-0.63-0.65-0.98
			c-0.06-0.35,0.05-0.68,0.32-1.01c0.16-0.19,0.38-0.32,0.66-0.38L120.88,107.19z M11.83,95.03c1.21-0.11,2.41-0.21,3.62-0.32
			c0.17-1.08,0.33-2.15,0.5-3.23c-1.19,0.15-2.37,0.3-3.56,0.45C12.2,92.96,12.01,93.99,11.83,95.03z M16.11,90.97l0.23-1.42
			c-3.5,0.59-7.01,1.18-10.52,1.76c-0.15,0.53-0.3,1.07-0.45,1.6C8.96,92.27,12.54,91.62,16.11,90.97z M33.03,81.38
			c0.74-0.01,1.49-0.03,2.23-0.04c0.15-0.65,0.3-1.31,0.45-1.96c-0.74,0.04-1.47,0.08-2.21,0.12
			C33.35,80.13,33.19,80.76,33.03,81.38z M35.84,79.08l0.21-0.86c-2.18,0.21-4.36,0.42-6.53,0.63c-0.12,0.32-0.23,0.64-0.34,0.96
			C31.39,79.56,33.62,79.32,35.84,79.08z M16.82,91.41c1.05-0.11,2.1-0.22,3.15-0.33c0.13-0.94,0.26-1.88,0.39-2.82
			c-1.04,0.15-2.07,0.29-3.1,0.44C17.12,89.61,16.97,90.51,16.82,91.41z M20.51,87.82l0.19-1.24c-3.05,0.56-6.1,1.12-9.15,1.68
			c-0.12,0.47-0.25,0.94-0.37,1.4C14.29,89.04,17.4,88.43,20.51,87.82z M29.7,83.38c0.79-0.03,1.58-0.06,2.37-0.08
			c0.15-0.7,0.29-1.39,0.44-2.09c-0.78,0.06-1.56,0.12-2.34,0.17C30.01,82.05,29.86,82.71,29.7,83.38z M32.64,80.88l0.2-0.92
			c-2.31,0.26-4.62,0.52-6.93,0.78c-0.12,0.34-0.23,0.68-0.35,1.03C27.93,81.48,30.28,81.18,32.64,80.88z M25.84,85.58
			c0.82-0.04,1.63-0.08,2.44-0.12c0.14-0.72,0.28-1.44,0.42-2.16c-0.8,0.07-1.61,0.14-2.41,0.22C26.15,84.2,26,84.89,25.84,85.58z
			 M28.84,82.95l0.2-0.95c-2.38,0.31-4.75,0.62-7.13,0.92c-0.12,0.35-0.23,0.71-0.34,1.07C23.98,83.65,26.41,83.3,28.84,82.95z
			 M21.66,88.12c0.92-0.08,1.84-0.16,2.76-0.24c0.13-0.82,0.25-1.64,0.38-2.46c-0.91,0.12-1.81,0.23-2.72,0.35
			C21.94,86.54,21.8,87.33,21.66,88.12z M24.93,85.02l0.18-1.08c-2.68,0.45-5.35,0.9-8.03,1.35c-0.11,0.41-0.23,0.81-0.34,1.22
			C19.47,86.01,22.2,85.52,24.93,85.02z M36.61,79.48c0.71-0.04,1.42-0.07,2.13-0.11c0.12-0.63,0.24-1.25,0.37-1.88
			c-0.7,0.06-1.4,0.12-2.09,0.19C36.88,78.28,36.75,78.88,36.61,79.48z M39.21,77.2l0.17-0.82c-2.07,0.27-4.13,0.53-6.2,0.8
			c-0.1,0.31-0.2,0.62-0.29,0.93C34.99,77.8,37.1,77.5,39.21,77.2z M49.34,71.96c0.44,0.01,0.87,0.02,1.31,0.03
			c0.1-0.38,0.2-0.76,0.31-1.14c-0.43,0.01-0.86,0.02-1.29,0.02C49.55,71.23,49.44,71.6,49.34,71.96z M51.03,70.67l0.14-0.5
			c-1.28,0.08-2.56,0.15-3.84,0.22c-0.08,0.19-0.15,0.37-0.22,0.56C48.42,70.86,49.72,70.76,51.03,70.67z M39.62,77.47
			c0.62-0.04,1.23-0.08,1.85-0.12c0.1-0.55,0.2-1.09,0.29-1.64c-0.61,0.06-1.22,0.13-1.83,0.19C39.83,76.42,39.72,76.95,39.62,77.47
			z M41.86,75.45L42,74.72c-1.8,0.26-3.6,0.52-5.4,0.78c-0.08,0.27-0.16,0.54-0.25,0.81C38.19,76.03,40.02,75.74,41.86,75.45z
			 M47.34,73.05c0.47,0,0.93,0,1.39,0c0.1-0.41,0.2-0.81,0.3-1.21c-0.46,0.02-0.92,0.03-1.38,0.05
			C47.56,72.28,47.45,72.66,47.34,73.05z M49.12,71.65l0.14-0.53c-1.36,0.1-2.72,0.2-4.08,0.31c-0.08,0.2-0.15,0.4-0.23,0.6
			C46.34,71.9,47.73,71.78,49.12,71.65z M45.04,74.26c0.48-0.01,0.96-0.01,1.43-0.02c0.1-0.42,0.2-0.84,0.29-1.26
			c-0.47,0.02-0.94,0.05-1.42,0.07C45.24,73.45,45.14,73.86,45.04,74.26z M46.84,72.78l0.14-0.55c-1.4,0.13-2.8,0.25-4.2,0.38
			c-0.08,0.21-0.15,0.41-0.22,0.62C43.99,73.08,45.41,72.94,46.84,72.78z M42.52,75.65c0.54-0.03,1.08-0.06,1.62-0.08
			c0.09-0.48,0.19-0.96,0.28-1.43c-0.53,0.05-1.07,0.1-1.6,0.14C42.73,74.74,42.63,75.19,42.52,75.65z M44.51,73.91l0.13-0.63
			c-1.58,0.2-3.15,0.41-4.73,0.61c-0.08,0.23-0.15,0.47-0.23,0.71C41.29,74.37,42.9,74.14,44.51,73.91z M137.74,91.93
			c-1.19-0.15-2.37-0.3-3.56-0.45c0.17,1.08,0.33,2.15,0.5,3.23c1.21,0.11,2.41,0.21,3.62,0.32
			C138.12,93.99,137.93,92.96,137.74,91.93z M144.74,92.91c-0.15-0.53-0.3-1.07-0.45-1.6c-3.5-0.59-7.01-1.18-10.52-1.76l0.23,1.42
			C137.59,91.62,141.16,92.27,144.74,92.91z M116.62,79.51c-0.74-0.04-1.47-0.08-2.21-0.12c0.15,0.65,0.3,1.31,0.45,1.96
			c0.74,0.01,1.49,0.03,2.23,0.04C116.94,80.76,116.78,80.13,116.62,79.51z M120.96,79.81c-0.12-0.32-0.23-0.64-0.34-0.96
			c-2.18-0.21-4.36-0.42-6.53-0.63l0.21,0.86C116.51,79.32,118.73,79.56,120.96,79.81z M132.86,88.71c-1.04-0.15-2.07-0.29-3.1-0.44
			c0.13,0.94,0.26,1.88,0.39,2.82c1.05,0.11,2.1,0.22,3.15,0.33C133.15,90.51,133.01,89.61,132.86,88.71z M138.95,89.65
			c-0.12-0.47-0.25-0.94-0.37-1.4c-3.05-0.56-6.1-1.12-9.15-1.68l0.19,1.24C132.73,88.43,135.84,89.04,138.95,89.65z M119.96,81.38
			c-0.78-0.06-1.56-0.12-2.34-0.17c0.15,0.7,0.29,1.39,0.44,2.09c0.79,0.03,1.58,0.06,2.37,0.08
			C120.27,82.71,120.11,82.05,119.96,81.38z M124.56,81.77c-0.12-0.34-0.23-0.68-0.35-1.03c-2.31-0.26-4.62-0.52-6.93-0.78l0.2,0.92
			C119.84,81.18,122.2,81.48,124.56,81.77z M123.83,83.51c-0.8-0.07-1.61-0.14-2.41-0.22c0.14,0.72,0.28,1.44,0.42,2.16
			c0.82,0.04,1.63,0.08,2.44,0.12C124.13,84.89,123.98,84.2,123.83,83.51z M128.57,83.99c-0.12-0.35-0.23-0.71-0.34-1.07
			c-2.38-0.31-4.75-0.62-7.13-0.92l0.2,0.95C123.71,83.3,126.14,83.65,128.57,83.99z M128.04,85.76c-0.91-0.12-1.81-0.23-2.72-0.35
			c0.13,0.82,0.25,1.64,0.38,2.46c0.92,0.08,1.84,0.16,2.76,0.24C128.32,87.33,128.19,86.54,128.04,85.76z M133.39,86.51
			c-0.11-0.41-0.23-0.81-0.34-1.22c-2.68-0.45-5.35-0.9-8.03-1.35l0.18,1.08C127.93,85.52,130.65,86.01,133.39,86.51z M113.12,77.68
			c-0.7-0.06-1.4-0.12-2.09-0.19c0.12,0.63,0.24,1.25,0.37,1.88c0.71,0.04,1.42,0.07,2.13,0.11
			C113.38,78.88,113.25,78.28,113.12,77.68z M117.24,78.1c-0.1-0.31-0.2-0.62-0.29-0.93c-2.07-0.27-4.13-0.53-6.2-0.8l0.17,0.82
			C113.02,77.5,115.13,77.8,117.24,78.1z M100.47,70.87c-0.43-0.01-0.86-0.02-1.29-0.02c0.1,0.38,0.2,0.76,0.31,1.14
			c0.44-0.01,0.87-0.02,1.31-0.03C100.68,71.6,100.58,71.23,100.47,70.87z M103.02,70.95c-0.08-0.19-0.15-0.37-0.22-0.56
			c-1.28-0.08-2.56-0.15-3.84-0.22l0.14,0.5C100.4,70.76,101.71,70.86,103.02,70.95z M110.18,75.9c-0.61-0.06-1.22-0.13-1.83-0.19
			c0.1,0.55,0.2,1.09,0.29,1.64c0.62,0.04,1.23,0.08,1.85,0.12C110.4,76.95,110.29,76.42,110.18,75.9z M113.78,76.32
			c-0.08-0.27-0.16-0.54-0.25-0.81c-1.8-0.26-3.6-0.52-5.4-0.78l0.14,0.72C110.11,75.74,111.94,76.03,113.78,76.32z M102.46,71.89
			c-0.46-0.02-0.92-0.03-1.38-0.05c0.1,0.41,0.2,0.81,0.3,1.21c0.47,0,0.93,0,1.39,0C102.68,72.66,102.57,72.28,102.46,71.89z
			 M105.17,72.02c-0.08-0.2-0.15-0.4-0.23-0.6c-1.36-0.1-2.72-0.2-4.08-0.31l0.14,0.53C102.4,71.78,103.78,71.9,105.17,72.02z
			 M104.78,73.06c-0.47-0.02-0.94-0.05-1.42-0.07c0.1,0.42,0.2,0.84,0.29,1.26c0.48,0.01,0.96,0.01,1.43,0.02
			C104.99,73.86,104.89,73.45,104.78,73.06z M107.57,73.23c-0.08-0.21-0.15-0.41-0.22-0.62c-1.4-0.13-2.8-0.25-4.2-0.38l0.14,0.55
			C104.71,72.94,106.14,73.08,107.57,73.23z M107.3,74.28c-0.53-0.05-1.07-0.1-1.6-0.14c0.09,0.48,0.19,0.96,0.28,1.43
			c0.54,0.03,1.08,0.06,1.62,0.08C107.5,75.19,107.4,74.74,107.3,74.28z M110.44,74.6c-0.08-0.23-0.15-0.47-0.23-0.71
			c-1.58-0.2-3.15-0.41-4.73-0.61l0.13,0.63C107.23,74.14,108.84,74.37,110.44,74.6z M57.11,67.05c0.55,0.53,1.17,0.96,1.95,1.15
			c2.03,0.51,3.79-0.95,3.89-1.04c0.69-0.59,1.33-1.53,1.11-1.82c-0.27-0.35-1.49,0.82-3.22,0.7c-0.45-0.03-0.87-0.16-1.33-0.4h0.02
			c3.01-2.39,4.11-6.04,4.46-7.22c0.3-1,1.55-5.52-0.51-10.49c-0.57-1.37-1.96-4.57-5.38-6.59c-1.36-0.8-2.63-1.17-3.51-1.37
			c-0.37-0.01-0.75-0.02-1.13-0.02v2.55l0.88,0.16c0.11,0.03,0.73,0.22,1.02,0.84c0.16,0.33,0.15,0.63,0.14,0.79v0.54v17.92
			l-0.02,0.01c-0.87-0.7-1.35-1.05-2.08-1c-0.95,0.06-1.77,0.75-1.71,0.97c0.06,0.21,0.87-0.12,1.77,0.17
			c0.83,0.27,1.14,0.88,1.74,1.78l0.01,0.03c-0.32,0.42-0.78,0.56-0.87,0.59h-0.65c0,0.81,0,1.61,0,2.42c0.32,0,0.65,0,0.97-0.01
			c0.33-0.04,0.7-0.11,1.08-0.21c0.51-0.13,0.96-0.28,1.35-0.44C57.1,67.06,57.1,67.06,57.11,67.05z M50.77,39.98
			c-0.88,0.19-2.16,0.57-3.51,1.37c-3.43,2.02-4.81,5.22-5.38,6.59c-2.06,4.97-0.81,9.48-0.51,10.49c0.42,1.41,1.91,6.35,6.45,8.45
			c1.14,0.53,2.17,0.74,2.88,0.84c0.32,0,0.65,0,0.97,0.01c0-0.81,0-1.61,0-2.42h-0.65c-0.11-0.03-0.73-0.22-1.02-0.84
			c-0.16-0.33-0.15-0.63-0.14-0.79v-0.7V44.83v-0.54c-0.01-0.16-0.02-0.46,0.14-0.79c0.29-0.62,0.92-0.8,1.02-0.84l0.88-0.16v-2.55
			C51.52,39.96,51.15,39.97,50.77,39.98z M70.83,42.34v-2.39h-4.81v7.9l0.03,0.34c0.03,0.06,0.4,0.75,1.11,0.8
			c0.08,0,0.53,0.04,0.83-0.26c0.27-0.27,0.25-0.66,0.26-1.11c0-0.41,0.02-1.33,0.21-2.08c0.22-0.87,0.68-1.52,1.06-2.05
			c0.27-0.37,0.52-0.66,0.7-0.86L70.83,42.34z M81.11,64.79V39.95h-8.39v24.76l-0.18,0.3c-0.1,0.16-0.27,0.41-0.52,0.67
			c-0.08,0.09-0.46,0.47-1.14,0.86c-0.54,0.31-0.79,0.35-0.8,0.53c-0.02,0.14,0.11,0.34,0.7,0.64h0.47H82.7h0.33
			c0.6-0.3,0.72-0.51,0.7-0.64c-0.02-0.18-0.26-0.22-0.8-0.53c-0.68-0.39-1.06-0.78-1.14-0.86c-0.25-0.26-0.42-0.51-0.52-0.67
			L81.11,64.79z M83.74,42.63c0.18,0.2,0.44,0.49,0.7,0.86c0.38,0.53,0.84,1.18,1.06,2.05c0.19,0.75,0.2,1.67,0.21,2.08
			c0.01,0.45-0.02,0.84,0.26,1.11c0.3,0.3,0.76,0.27,0.83,0.26c0.72-0.06,1.09-0.75,1.11-0.8l0.03-0.34v-7.9h-4.81v2.39L83.74,42.63
			z M103.28,56.52c0.88,0.05,2.27,0.04,3.85-0.44c1.32-0.39,4.15-1.23,5.69-4.04c1.88-3.43,0.27-6.96,0.2-7.13
			c-1.55-3.26-4.91-4.19-6.23-4.56c-1.43-0.4-2.68-0.43-3.5-0.39L102.55,40v2.38c0,0,1.17-0.11,1.5,0.09
			c0.39,0.24,0.61,1.16,0.61,1.16v9.5c0,0-0.35,0.78-0.74,1.01c-0.39,0.24-1.33,0.27-1.33,0.27c0,0.7,0,1.4,0,2.1
			C102.82,56.52,103.05,56.52,103.28,56.52z M100.6,64.81c0-8.29,0-16.57,0-24.86c-2.82,0-5.63,0-8.45,0
			c-1.06-0.03-1.82,0.66-1.84,1.22c-0.02,0.6,0.79,1.42,1.97,1.33c0.01,0.25,0.02,0.51,0.02,0.76v21.29l-0.23,0.53
			c-0.17,0.19-0.43,0.45-0.78,0.7c-0.78,0.56-1.32,0.59-1.4,0.94c-0.04,0.19,0.04,0.5,0.63,0.98h0.39h10.63h0.82
			c0.58-0.49,0.67-0.79,0.63-0.98c-0.08-0.35-0.63-0.39-1.4-0.94c-0.35-0.25-0.61-0.51-0.78-0.7L100.6,64.81z"/>
	</g>
</g>
</svg>
