<?xml version="1.0" encoding="utf-8"?>
<!-- Generator: Adobe Illustrator 23.0.2, SVG Export Plug-In . SVG Version: 6.00 Build 0)  -->
<svg version="1.1" id="Layer_1" xmlns="http://www.w3.org/2000/svg" xmlns:xlink="http://www.w3.org/1999/xlink" x="0px" y="0px"
	 viewBox="0 0 113.96 150" style="enable-background:new 0 0 113.96 150;" xml:space="preserve">
<style type="text/css">
	.st0{fill:#FFFFFF;}
</style>
<g>
	<path class="st0" d="M4.32,10.83c0.1,0.01-0.02,0.55,0.23,1.31c0.52,1.57,1.97,2.1,1.77,2.61c-0.1,0.26-0.56,0.34-0.85,0.31
		c-0.91-0.11-1.31-1.46-1.38-1.69C3.71,12.1,4.17,10.82,4.32,10.83z"/>
	<path class="st0" d="M10.4,5.45c0.08-0.02,0.09,0.59,0.54,1c0.5,0.45,1.04,0.21,2.15,0.38c0.3,0.05,2.16,0.34,2.31,1.15
		c0.08,0.41-0.3,0.88-0.69,1.08c-0.56,0.28-1.17,0-2.15-0.46c-0.92-0.43-1.47-0.68-1.85-1.31C10.2,6.46,10.3,5.47,10.4,5.45z"/>
	<path class="st0" d="M11.55,8.96c0.03-0.04,0.39,0.19,1.38,0.54c0.79,0.28,1.18,0.41,1.46,0.38c1.14-0.12,1.71-1.77,1.85-1.69
		c0.11,0.06-0.07,1.16-0.92,1.69c-0.59,0.37-1.21,0.28-1.61,0.23C12.4,9.94,11.51,9.03,11.55,8.96z"/>
	<path class="st0" d="M0,74.57c0.19-0.45,3.86,1.11,7.37,2.94c2.56,1.33,6.24,3.43,12.12,7.76c4.08,3,9.91,7.58,9.6,8.22
		c-0.14,0.28-1.36-0.63-3.65-0.96c-2.58-0.37-4.59,0.27-6.02,0.75c-1.63,0.55-4.75,1.6-5.41,3.61c-0.07,0.2-0.27,0.9-0.44,0.86
		c-0.17-0.03-0.22-0.79-0.27-1.3c-0.11-1.25-0.43-2.48-0.6-3.73c-0.24-1.85-1.76-6.51-4.42-10.39C4.52,76.87-0.21,75.08,0,74.57z"/>
	<path class="st0" d="M59.8,94.18c0.25,0.5,0.02,1.12-0.09,1.39c-2.07,5.26-3.11,7.89-6.04,9.72c0,0,0,0,0,0
		c-1.99,1.27-5.36,3.28-6.32,4.88c-1.09,1.82-1.31,3.19-1.31,3.19c-0.18,1.13-0.02,1.74-0.32,1.91c-0.62,0.34-1.72-1.95-4.06-3.64
		c-0.78-0.56-2.85-2.05-4.99-1.53c-1.54,0.38-2.39,1.62-2.77,2.17c-0.31,0.45-1.44,2.22-1.39,4.92c0.04,2.33,1.03,2.92,2.48,8.43
		c0.29,1.12,0.43,1.77,0.41,2.58c-0.06,2.04-1.1,3.34-1.87,4.27c-2.09,2.53-4.7,3.09-5.34,3.2c-1.29,0.24-2.46,0.15-4.79-0.08
		c-2.37-0.23-2.69-0.54-3.67-0.27c-2.3,0.62-3.43,3.1-3.77,3.83c-0.59,1.28-0.75,2.52-1.07,5c-0.45,3.48-0.43,5.88-0.55,5.86
		c-0.11-0.02-0.24-1.88-0.23-3.78c0.01-2.67,0.01-4.95,0.88-7.5c0.65-1.91,1.02-3.01,2.02-3.87c0.99-0.86,2.11-1.07,2.53-2.49
		c0.11-0.36,0.12-0.76,0.14-1.56c0.05-1.84-0.24-2.14-0.24-3.8c0-0.8,0.01-2.11,0.32-3.23c0.19-0.66,0.44-1.15,0.48-1.22
		c0,0,0.23-0.44,0.54-0.82c1.37-1.71,3.85-2.72,3.85-2.72c2.78-1.3,3.86-0.54,4.9-2.04c0.06-0.09-0.02,0.01,0.86-2.09
		c1.08-2.61,1.38-3.18,1.32-4.23c-0.05-0.91-0.3-1.15-0.12-1.66c0.23-0.66,0.85-0.63,1.98-1.43c0.82-0.58,1.23-0.87,1.33-0.92
		c1.8-1,3.6,1.55,6.94,2c0.9,0.12,2.87,0.39,4.38-0.92c1-0.86,1.54-2.01,2.52-4.45c1-2.49,0.65-2.48,1.64-4.8
		c0.67-1.58,1.16-2.37,1.81-4.28c0.2-0.6,0.48-1.48,0.68-2.65c0.12-0.74,0.17-1.37,0.19-1.84c3.23,2.29,5.22,3.57,6.03,3.9
		C59.21,93.64,59.6,93.79,59.8,94.18z M20.53,127.83c0.02,1.91,0.98,4.32,2.89,5.52c2.05,1.29,4.1,0.49,5.59-0.09
		c1.29-0.5,4.24-1.66,4.78-4.83c0.29-1.71-0.17-3.76-1.37-5.33c-1.18-1.55-2.65-2.06-3.09-2.21c-2.64-0.88-4.74,0.49-5.43,0.94
		c-0.52,0.34-1.62,1.16-2.43,2.69C21.09,125.22,20.51,126.31,20.53,127.83z"/>
	<path class="st0" d="M50.45,97.15c-0.62,1.17-1.25,3.03-1.72,4.42c-0.04,0.12-0.14,0.43-0.4,0.54c-0.24,0.11-0.5,0-0.66-0.05
		c-0.39-0.14-0.39-0.03-1.56-0.11c-1.15-0.08-2.6-0.27-2.96-0.32c-1.57-0.19-4.71-0.58-7.56,0.68c-0.39,0.17-1.44,0.96-3.55,2.53
		c-3.31,2.47-3.18,2.57-4.37,3.26c-0.31,0.18-2.48,1.44-5.54,2.07c-1.43,0.3-2.26,0.3-3.12,0.06c-0.49-0.13-1.69-0.45-2.66-1.56
		c-0.64-0.73-0.92-1.75-1.45-3.76c-0.56-2.15-0.84-3.24-0.69-4.47c0.17-1.33,0.67-2.23,0.92-2.67c0.93-1.63,2.2-2.39,2.95-2.82
		c2.23-1.29,4.38-1.24,5.5-1.21c0.77,0.03,3.46,0.11,5.27,1.41c0.33,0.24,1.52,1.15,2.35,1.78c0.42,0.32,0.58,0.45,0.81,0.64
		c0.86,0.72,1,0.97,1.41,1.22c0.6,0.37,1.16,0.37,1.64,0.37c5.12,0,4.52,0.17,6.12-0.02c2.03-0.23,4.16-0.47,5.99-1.24
		c1.6-0.68,2.41-1.02,2.96-1.42c0.26-0.19,0.7-0.53,0.8-0.43C51.05,96.17,50.74,96.61,50.45,97.15z M16.1,103.4
		c0.11,0.7,0.43,2.61,1.96,4.12c0.2,0.2,1.56,1.49,3.42,1.61c0.78,0.05,1.45-0.17,2.79-0.62c1.32-0.44,2.25-0.93,2.49-1.06
		c0.67-0.36,1.74-0.95,2.91-2.06c0.5-0.48,0.76-0.73,0.93-1c1.04-1.66,0.54-4.92-1.08-6.93c-2.02-2.51-5.13-2.3-6.69-2.2
		c-1.42,0.1-3.95,0.27-5.58,2.57C15.61,100.15,16.04,103,16.1,103.4z"/>
	<path class="st0" d="M60.74,95.48c0.92-0.75,1.66-0.22,4.41-0.54c1.25-0.15,2.15-0.38,3.95-0.85c1.84-0.48,3.83-1.12,3.95-1.16
		c2.34-0.76,3-1.09,3.17-0.85c0.28,0.39-1.07,1.92-2.24,2.94c-1.84,1.6-3.67,2.31-4.1,2.48c-9.36,3.64-11.52,4.6-11.94,3.93
		c-0.19-0.31,0.23-0.58,1.41-3.15C60.31,96.16,60.23,95.89,60.74,95.48z"/>
	<path class="st0" d="M12.97,31.82c-0.11-0.12-0.32-0.36-0.47-0.73c-0.19-0.46-0.18-0.87-0.17-1.07c0.08-1.85,1.58-4.52,1.58-4.52
		c1.12-1.99,1.89-3.08,1.84-3.12c-0.05-0.04-0.95,1.03-1.79,2.39c-0.63,1.01-1.19,1.92-1.64,3.23c-0.4,1.19-0.56,2.29-0.8,2.27
		c-0.07,0-0.18-0.23-0.38-0.68c-0.13-0.27-0.27-0.6-0.3-0.68c-0.41-1.12,1.58-3.93,1.58-3.93c1.06-1.5,1.59-2.25,2.52-3.12
		c2.38-2.23,4.94-3.14,6.23-3.5c2.4-0.67,4.35-0.58,5.51-0.51c1.29,0.07,2.55,0.28,4.06,0.68c3.72,0.99,6.38,2.5,10.5,4.87
		c1.51,0.87,4.57,2.63,7.38,4.78c2.1,1.6,3.33,2.69,3.33,2.69c1.34,1.19,1.91,1.83,2.01,1.75c0.16-0.13-1.02-2.16-2.86-3.97
		c-1.85-1.81-3.59-2.65-3.54-2.73c0.05-0.08,1.67,0.68,3.41,1.96c2.4,1.76,3.22,3.2,3.54,3.84c0.33,0.67,0.94,1.91,0.43,2.82
		c-0.05,0.09-0.26,0.45-0.68,0.64c-0.66,0.3-1.38-0.01-1.58-0.09c-1.94-0.77-4.14-0.59-6.19-1.02c-3.33-0.71-6.46,0.39-8.96,1.28
		c-0.63,0.22-5.7,2.07-8.58,5.42c-2.15,2.5-3.22,3.76-3.5,4.65c-0.04,0.14-0.23,0.78-0.55,0.81c-0.28,0.03-0.54-0.43-0.64-0.6
		c-0.09-0.16-0.28-0.53-0.3-1.28c-0.02-0.57,0.07-1,0.09-1.07c0.22-1.17-1.35-2.96-2.65-4.7c-2.34-3.13-2.27-4.03-3.63-4.61
		c-1.86-0.79-2.43-0.94-2.43-0.94c-0.24-0.06-0.86-0.21-1.54-0.6C13.46,32.27,13.2,32.08,12.97,31.82z M25.18,35.45
		c-0.12,0.1-0.09,0.34,0.38,1.84c0.45,1.43,0.39,1.13,0.51,1.58c0.25,0.92,0.3,1.43,0.51,1.45c0.15,0.02,0.31-0.22,0.38-0.38
		c0.16-0.37,0.01-0.75-0.21-1.28c-0.29-0.68-0.73-1.66-0.73-1.66c0,0,0.67,0.81,1.24,2.01c0.07,0.14,0.17,0.37,0.34,0.38
		c0.25,0.02,0.33-0.43,0.85-0.9c0.45-0.4,0.78-0.4,0.81-0.64c0.02-0.18-0.15-0.35-0.68-0.73c-0.93-0.66-1.66-1.02-2.22-1.28
		C25.41,35.38,25.26,35.37,25.18,35.45z M28.63,33.21c-0.12,0.08-0.11,0.28,0.14,1.61c0.24,1.28,0.22,1.01,0.28,1.41
		c0.12,0.82,0.11,1.25,0.29,1.3c0.13,0.03,0.29-0.16,0.37-0.29c0.17-0.3,0.09-0.64-0.05-1.12c-0.18-0.61-0.45-1.5-0.45-1.5
		c0,0,0.49,0.77,0.86,1.85c0.04,0.12,0.11,0.33,0.25,0.36c0.21,0.05,0.33-0.34,0.82-0.68c0.43-0.3,0.71-0.26,0.76-0.47
		c0.04-0.15-0.09-0.32-0.51-0.69c-0.73-0.66-1.32-1.04-1.77-1.33C28.84,33.17,28.71,33.15,28.63,33.21z M32.06,31.28
		c-0.12,0.06-0.15,0.26-0.14,1.6c0.01,1.29,0.03,1.02,0.02,1.42c-0.02,0.82-0.11,1.24,0.05,1.31c0.12,0.05,0.29-0.11,0.39-0.23
		c0.21-0.27,0.19-0.62,0.14-1.11c-0.06-0.63-0.17-1.54-0.17-1.54c0,0,0.33,0.82,0.48,1.93c0.02,0.13,0.04,0.34,0.17,0.39
		c0.19,0.08,0.36-0.29,0.87-0.55c0.44-0.23,0.7-0.16,0.78-0.35c0.06-0.15-0.03-0.33-0.36-0.75c-0.57-0.75-1.04-1.21-1.41-1.55
		C32.26,31.28,32.15,31.24,32.06,31.28z M35.88,30.11c-0.11,0.03-0.16,0.2-0.32,1.36c-0.16,1.11-0.1,0.88-0.16,1.22
		c-0.12,0.7-0.25,1.05-0.12,1.14c0.1,0.06,0.27-0.05,0.37-0.14c0.22-0.2,0.24-0.5,0.26-0.93c0.03-0.55,0.05-1.34,0.05-1.34
		c0,0,0.18,0.75,0.18,1.73c0,0.11,0,0.3,0.1,0.36c0.16,0.09,0.35-0.19,0.84-0.35c0.42-0.13,0.64-0.04,0.73-0.19
		c0.07-0.12,0.01-0.28-0.22-0.7c-0.4-0.73-0.76-1.19-1.05-1.54C36.05,30.13,35.96,30.09,35.88,30.11z M39.44,29.36
		c-0.11,0.02-0.18,0.18-0.53,1.27c-0.33,1.05-0.24,0.84-0.35,1.16c-0.23,0.66-0.41,0.99-0.3,1.08c0.08,0.07,0.26-0.02,0.36-0.1
		c0.24-0.18,0.31-0.46,0.4-0.87c0.12-0.52,0.27-1.29,0.27-1.29c0,0,0.04,0.74-0.13,1.68c-0.02,0.11-0.05,0.29,0.03,0.36
		c0.13,0.1,0.36-0.15,0.83-0.25c0.41-0.09,0.59,0.03,0.7-0.11c0.09-0.11,0.06-0.27-0.08-0.69c-0.25-0.74-0.5-1.22-0.7-1.58
		C39.6,29.4,39.52,29.34,39.44,29.36z M42.62,29.41c-0.1,0-0.19,0.13-0.69,1.07c-0.47,0.9-0.36,0.72-0.51,0.99
		c-0.32,0.56-0.53,0.83-0.45,0.93c0.06,0.07,0.24,0.02,0.34-0.04c0.24-0.12,0.35-0.37,0.5-0.72c0.19-0.46,0.46-1.12,0.46-1.12
		c0,0-0.09,0.67-0.4,1.5c-0.04,0.09-0.1,0.25-0.03,0.33c0.1,0.11,0.34-0.08,0.78-0.11c0.38-0.02,0.52,0.11,0.65,0
		c0.09-0.08,0.1-0.24,0.04-0.63c-0.1-0.7-0.24-1.17-0.36-1.53C42.75,29.47,42.69,29.41,42.62,29.41z M45.38,29.8
		c-0.09-0.02-0.18,0.08-0.67,0.8c-0.47,0.69-0.36,0.56-0.51,0.77c-0.32,0.43-0.52,0.62-0.46,0.73c0.05,0.08,0.21,0.06,0.3,0.04
		c0.22-0.06,0.33-0.25,0.49-0.53C44.72,31.23,45,30.7,45,30.7c0,0-0.12,0.58-0.45,1.24c-0.04,0.08-0.1,0.2-0.05,0.28
		c0.08,0.12,0.31,0,0.69,0.07c0.33,0.06,0.45,0.21,0.56,0.14c0.09-0.05,0.1-0.19,0.08-0.55c-0.04-0.64-0.13-1.09-0.21-1.43
		C45.49,29.88,45.44,29.81,45.38,29.8z M47.3,30.93c-0.06-0.02-0.12,0.05-0.43,0.55c-0.3,0.48-0.22,0.39-0.32,0.53
		c-0.2,0.3-0.33,0.43-0.28,0.5c0.04,0.06,0.15,0.06,0.21,0.04c0.15-0.03,0.22-0.17,0.31-0.36c0.12-0.25,0.29-0.63,0.29-0.63
		c0,0-0.06,0.41-0.25,0.88c-0.02,0.05-0.06,0.14-0.02,0.2c0.06,0.09,0.21,0.01,0.49,0.09c0.24,0.06,0.33,0.17,0.4,0.13
		c0.06-0.03,0.06-0.13,0.03-0.4c-0.06-0.47-0.15-0.79-0.22-1.05C47.38,31,47.34,30.95,47.3,30.93z M48.92,31.73
		c-0.05-0.01-0.09,0.04-0.34,0.42c-0.24,0.36-0.18,0.29-0.26,0.4c-0.16,0.22-0.27,0.32-0.23,0.38c0.03,0.04,0.11,0.04,0.16,0.02
		c0.11-0.03,0.17-0.13,0.25-0.28c0.1-0.19,0.24-0.47,0.24-0.47c0,0-0.06,0.31-0.22,0.65c-0.02,0.04-0.05,0.11-0.02,0.15
		c0.04,0.06,0.16,0,0.36,0.05c0.18,0.04,0.24,0.12,0.3,0.08c0.05-0.03,0.05-0.1,0.03-0.29c-0.03-0.34-0.08-0.58-0.13-0.76
		C48.98,31.77,48.95,31.73,48.92,31.73z M22.38,38.9c-0.09,0.11-0.03,0.32,0.57,1.65c0.58,1.27,0.48,1,0.65,1.4
		c0.34,0.82,0.44,1.28,0.63,1.28c0.13,0,0.24-0.24,0.28-0.4c0.09-0.36-0.09-0.7-0.35-1.16c-0.34-0.6-0.84-1.45-0.84-1.45
		c0,0,0.68,0.67,1.33,1.7c0.07,0.12,0.19,0.32,0.34,0.31c0.22-0.01,0.23-0.44,0.61-0.93c0.33-0.42,0.62-0.47,0.61-0.69
		c-0.01-0.17-0.18-0.31-0.68-0.59c-0.89-0.49-1.55-0.74-2.07-0.91C22.57,38.81,22.45,38.82,22.38,38.9z M16,29.9
		c0.97,0.1,1.18,0.1,1.28-0.04c0.12-0.19-0.09-0.42-0.59-1.43c-0.44-0.88-0.52-1.2-0.94-1.6c-0.23-0.22-0.49-0.46-0.81-0.43
		c-0.42,0.04-0.65,0.5-0.73,0.64c-0.05,0.1-0.31,0.62-0.09,1.15c0.16,0.38,0.49,0.56,0.94,0.81c0.53,0.29,0.94,0.36,0.94,0.38
		c-0.01,0.03-1.06,0.06-1.84-0.51c-0.11-0.08-0.29-0.23-0.43-0.17c-0.15,0.07-0.21,0.38-0.13,0.6C13.71,29.55,14,29.68,16,29.9z
		 M18.05,26.93c1.21,0.5,1.49,0.59,1.66,0.48c0.22-0.14,0.02-0.46-0.29-1.71c-0.21-0.82-0.26-1.23-0.45-1.63
		c-0.08-0.17-0.17-0.29-0.24-0.4c-0.44-0.68-0.66-1.03-1.02-1.11c-0.46-0.11-0.9,0.26-1.2,0.51c-0.21,0.17-0.49,0.42-0.51,0.77
		c-0.01,0.16,0.04,0.3,0.19,0.57c0.44,0.77,0.94,1.22,0.94,1.22c0.59,0.52,1.09,0.76,1.08,0.78c-0.02,0.03-1.38-0.38-2.19-1.28
		c-0.12-0.13-0.3-0.36-0.49-0.35c-0.21,0.01-0.4,0.3-0.36,0.56C15.21,25.62,15.55,25.88,18.05,26.93z M21.22,24.36
		c0.88,0.74,1.09,0.89,1.27,0.82c0.24-0.08,0.17-0.43,0.3-1.67c0.11-1.08,0.23-1.42,0.07-2.06c-0.09-0.35-0.19-0.74-0.53-0.92
		c-0.43-0.24-0.94,0.01-1.1,0.08c-0.11,0.05-0.68,0.35-0.79,0.97c-0.08,0.45,0.13,0.83,0.41,1.35c0.34,0.62,0.69,0.96,0.68,0.97
		c-0.03,0.02-1.06-0.66-1.47-1.69c-0.06-0.15-0.14-0.4-0.31-0.44c-0.18-0.04-0.44,0.19-0.49,0.45
		C19.2,22.51,19.41,22.83,21.22,24.36z M25.08,22.96c0.62,0.91,0.77,1.1,0.94,1.11c0.03,0,0.05,0,0.07-0.01
		c0.16-0.07,0.31-0.24,0.46-1.28c0.1-0.7,0.16-1.05,0.12-1.4c-0.02-0.28-0.08-0.46-0.04-0.79c0.03-0.25,0.08-0.34,0.02-0.44
		c-0.15-0.24-0.71-0.14-0.93-0.11c-0.34,0.05-0.68,0.1-0.84,0.35c-0.18,0.27-0.06,0.62,0.12,1.27c0.18,0.63,0.43,1.03,0.41,1.04
		c-0.03,0.01-0.79-0.9-0.96-1.9c-0.02-0.14-0.05-0.38-0.19-0.47c-0.15-0.09-0.4,0.01-0.49,0.21C23.69,20.74,23.81,21.08,25.08,22.96
		z M28.35,21.64c0.27,0.8,0.33,1.11,0.61,1.66c0.32,0.64,0.41,0.77,0.56,0.76c0.28-0.02,0.52-0.51,0.75-1.04
		c0.23-0.51,0.31-0.9,0.41-1.4c0.21-1.04,0.08-1.21,0.02-1.28c-0.08-0.09-0.27-0.12-0.63-0.18c-0.56-0.1-0.84-0.14-0.96-0.03
		c-0.14,0.14,0.01,0.31,0.05,1.15c0.01,0.17,0.02,0.56,0.04,1.03c0,0.07,0.01,0.2,0.04,0.38c0.04,0.23,0.09,0.37,0.08,0.37
		c-0.01,0-0.31-0.58-0.44-1.38c-0.07-0.42-0.24-0.83-0.25-1.26c0-0.05,0-0.18-0.09-0.25c-0.12-0.09-0.36-0.05-0.47,0.06
		C27.91,20.4,28.05,20.71,28.35,21.64z M32.85,23.53c0.19,0.42,0.3,0.67,0.48,0.68c0.34,0.02,0.63-0.81,0.66-0.89
		c0.11-0.32,0.13-0.58,0.16-1.02c0.02-0.38,0.03-0.57-0.04-0.73c-0.21-0.42-0.83-0.64-1.02-0.47c-0.06,0.05-0.05,0.26-0.02,0.68
		c0.03,0.58,0.06,0.64,0.04,0.88c0,0.06-0.02,0.16,0,0.31c0.02,0.21,0.07,0.36,0.07,0.36c0,0-0.19-0.5-0.34-1.2
		c-0.16-0.75-0.16-1.11-0.39-1.2c-0.12-0.04-0.28-0.01-0.38,0.09C31.89,21.18,31.94,21.47,32.85,23.53z M36.15,24.11
		c0.26,0.58,0.33,0.7,0.43,0.71c0.13,0.02,0.18-0.17,0.52-0.74c0.3-0.5,0.43-0.63,0.49-0.98c0.04-0.19,0.07-0.41-0.05-0.58
		c-0.15-0.22-0.46-0.23-0.55-0.23c-0.07,0-0.41,0-0.6,0.27c-0.14,0.2-0.12,0.43-0.1,0.76c0.03,0.38,0.12,0.64,0.11,0.64
		c-0.02,0-0.37-0.58-0.33-1.18c0-0.09,0.02-0.23-0.05-0.29c-0.08-0.06-0.26-0.02-0.34,0.09C35.59,22.72,35.62,22.92,36.15,24.11z
		 M38.62,25.27c0.17,0.45,0.23,0.55,0.31,0.56c0.11,0.01,0.16-0.13,0.5-0.59c0.29-0.4,0.41-0.51,0.5-0.78
		c0.05-0.15,0.09-0.32,0-0.46c-0.11-0.17-0.37-0.18-0.45-0.18c-0.06,0-0.35,0.01-0.53,0.23c-0.13,0.16-0.14,0.34-0.15,0.6
		c-0.01,0.3,0.05,0.5,0.04,0.51c-0.02,0-0.27-0.46-0.19-0.93c0.01-0.07,0.04-0.18-0.02-0.23c-0.06-0.05-0.22-0.01-0.29,0.08
		C38.26,24.17,38.26,24.34,38.62,25.27z M41.1,26.48c0.15,0.52,0.19,0.63,0.27,0.66c0.1,0.04,0.15-0.11,0.47-0.53
		c0.28-0.37,0.39-0.46,0.47-0.74c0.05-0.16,0.09-0.33,0.02-0.49c-0.1-0.21-0.33-0.26-0.41-0.28c-0.05-0.01-0.32-0.06-0.49,0.13
		c-0.13,0.14-0.14,0.34-0.15,0.61c-0.02,0.32,0.04,0.55,0.03,0.55c-0.01,0-0.23-0.54-0.15-1.04c0.01-0.07,0.04-0.19-0.01-0.25
		c-0.06-0.07-0.2-0.05-0.27,0.03C40.8,25.23,40.8,25.4,41.1,26.48z M43.07,27.79c0.17,0.37,0.21,0.46,0.27,0.47
		c0.08,0.01,0.11-0.1,0.31-0.46c0.18-0.31,0.26-0.4,0.29-0.62c0.02-0.12,0.04-0.26-0.04-0.37c-0.1-0.15-0.29-0.16-0.34-0.16
		c-0.04,0-0.25-0.01-0.37,0.16c-0.08,0.12-0.07,0.27-0.05,0.48c0.02,0.25,0.08,0.41,0.08,0.41c-0.01,0-0.23-0.38-0.22-0.77
		c0-0.06,0.01-0.15-0.04-0.19c-0.05-0.04-0.16-0.02-0.21,0.05C42.71,26.88,42.73,27.02,43.07,27.79z M13.83,31.91
		c0.54,0.17,0.66,0.2,0.73,0.13c0.09-0.09,0-0.25-0.17-0.9c-0.15-0.56-0.15-0.76-0.35-1.04c-0.11-0.16-0.22-0.32-0.41-0.34
		c-0.24-0.02-0.43,0.21-0.49,0.29c-0.04,0.05-0.25,0.32-0.19,0.66c0.05,0.24,0.21,0.38,0.44,0.58c0.27,0.23,0.49,0.32,0.49,0.33
		c-0.01,0.02-0.61-0.09-0.98-0.51c-0.05-0.06-0.14-0.17-0.22-0.15c-0.09,0.02-0.17,0.19-0.14,0.33
		C12.56,31.44,12.72,31.55,13.83,31.91z"/>
	<path class="st0" d="M53.95,89.5c-0.23-0.06,0.09-1.24,0.15-4.02c0.02-0.81,0.07-4.26-0.7-7.74c-0.05-0.23-0.1-0.42-0.13-0.54
		c-0.57-2.41-1.28-4.37-1.42-4.33c-0.22,0.06,1.46,4.99-0.23,6.27c-0.28,0.21-0.76,0.4-0.93,0.46c-1.02,0.4-1.9,0.39-2.4,0.39
		c-1.91-0.03-3.51-0.07-3.79-0.08c-0.76-0.02-1.34,0.03-4.72,0.7c-3.64,0.71-5.46,1.07-5.96,1.24c-2.3,0.78-4.96,1.68-6.58,4.1
		c-0.89,1.33-1.13,2.62-1.47,2.55c-0.55-0.1-0.34-3.52-0.31-3.95c0.14-2.13,0.33-4.92,1.7-8.05c2.42-5.49,7.15-8.88,7.51-9.13
		c1.7-1.19,3.61-2.14,4.72-4.49c0.27-0.56,0.81-1.77,0.62-3.25c-0.19-1.46-1.02-2.5-2.71-4.18c-3.08-3.05-5.69-4.9-5.65-4.95
		c0.04-0.06,3.38,1.68,7.27,4.95c4.07,3.42,6.51,6.64,9.13,10.14c3.16,4.22,5.48,7.38,6.96,12.07c0.65,2.07,1.16,4.5,0.7,7.27
		C55.32,87.33,54.27,89.58,53.95,89.5z M48.99,72.19c0.26,1.57,0.52,3.11-0.32,4.17c-1.06,1.35-2.77,0.51-6.68,1.59
		c-2.43,0.67-4.28,1.69-4.23,1.85c0.07,0.2,3.18-1.61,7.69-1.69c2.62-0.05,4.7,0.5,5.31-0.54c0.16-0.28,0.15-0.56-0.08-1.61
		c-0.54-2.55-0.81-3.83-1.61-5.54c-0.88-1.87-1.85-3.19-1.92-3.15C47.06,67.31,48.51,69.26,48.99,72.19z M30.62,81.41
		c2.54-1.45,4.56-1.67,4.54-1.77c-0.03-0.12-3.1-0.02-5.84,1.92c-1.81,1.28-2.86,2.91-2.77,3C26.64,84.66,28.02,82.9,30.62,81.41z"
		/>
	<path class="st0" d="M29.62,49.66c-0.03,0.03-0.46-0.56-1.23-0.92c-0.64-0.3-1.29-0.35-1.85-0.38c-0.82-0.06-1.14,0.05-1.54-0.23
		c-0.3-0.21-0.56-0.58-0.46-0.77c0.13-0.25,0.74,0.03,1.31-0.15c0.95-0.31,1.26-1.77,1.38-2.23c0.45-1.72,1.84-2.89,4.61-5.23
		c4.22-3.55,9.29-4.45,9.38-4.23c0.07,0.17-2.71,1.2-7.07,4.08c-0.14,0.09-2.78,1.86-5.07,4.84c-0.63,0.82-1.2,1.69-1.08,2.69
		C28.18,48.55,29.67,49.61,29.62,49.66z"/>
	<path class="st0" d="M38.69,50.2c1-0.63,4.14,2.73,5.8,4.51c1.76,1.88,3.49,3.73,5.35,6.72c2.94,4.71,3.99,8.69,4,8.69
		c0.01,0-0.91-3.13-3.23-6.69c-0.85-1.3-1.64-2.27-2.23-3c-1.45-1.77-2.72-3.33-4.61-4.84c-2.98-2.38-5.38-2.94-5.38-4.54
		C38.38,50.9,38.38,50.39,38.69,50.2z"/>
	<path class="st0" d="M79.36,64.27c-0.12,0,0.53,5.57-1.38,12.92c-2.5,9.58-7.64,15.57-7.46,15.68c0.16,0.1,4.59-4.56,7.15-11.99
		C80.68,72.15,79.51,64.27,79.36,64.27z"/>
	<path class="st0" d="M56.3,90.64c0.16,0.2,0.46,0.38,0.69,0.31c0.51-0.17,0.47-1.57,0.46-2.15c-0.06-3.81,0.79-3.84,0.62-7.15
		c-0.2-3.79-1.46-6.72-1.61-6.69c-0.16,0.04,1.33,3.14,0.77,7.3c-0.54,4.04-0.82,6.07-0.92,6.38C56.18,88.98,55.81,90.05,56.3,90.64
		z"/>
	<path class="st0" d="M1.94,9.87C1.62,9.91,0.91,6.9,0.93,4.84c0.01-0.69,0.11-1.63,0.11-2.43c0-0.3,0.05-0.59,0.07-0.89
		c0-0.02,0.02-0.17,0.07-0.49c0.03-0.17,0.04-0.26,0.1-0.32c0.08-0.07,0.18-0.05,0.35-0.05c0.17,0,0.34-0.03,0.51-0.05
		c0.56-0.04,4.88-0.47,7.03-0.58c1.44-0.07,3.53-0.09,6.14,0.23l0,0c10.76,1.5,9.4,1.21,10.76,1.47c7.79,1.5,13.62,3.52,15.48,4.18
		C47.93,8.2,57.15,11.5,66.1,18.85c9.39,7.72,14.6,16.52,15.17,16.1c0.34-0.25-1.47-3.33-2.63-5.03c-1.1-1.6-2.22-2.85-3.17-3.79
		c-0.82-0.69-1.37-1.06-1.32-1.55c0.08-0.72,1.45-1.12,3.41-1.63c3.4-0.88,5.11-1.32,7.04-1.63c1.87-0.3,4.2-0.66,7.35-0.85
		c0.99-0.06,6.1-0.36,6.19,0.23c0.03,0.22-0.64,0.4-1.63,0.93c-1.56,0.84-2.5,1.82-3.56,2.94c-2,2.1-6.05,7.87-5.34,15.01
		c0.05,0.49,0.24,1.44,0.62,3.33c1.21,5.99,1.68,6,2.32,9.6c0.72,4.07,0.5,6.27,1.78,10.52c0.23,0.76,0.38,1.17,0.46,1.39
		c1.14,2.99,2.73,4.66,4.26,6.58c0.47,0.6,1.55,2.23,3.71,5.49c1.37,2.06,3.54,5.35,5.42,8.98c1.25,2.42,2.77,6.98,5.8,16.1
		c0.25,0.75,1.22,3.71,1.7,7.66c0.07,0.54,0.58,4.74,0,4.88c-0.4,0.09-1.12-1.74-1.39-2.4c-1.94-4.64-5.37-7.81-8.82-10.99
		c-5.39-4.97-11.25-7.98-13.54-8.67c-1.41-0.43-2.74-1.16-4.18-1.47c-0.83-0.18-1.51-0.26-1.78-0.77c-0.27-0.51,0.02-1.14,0.77-2.63
		c0.88-1.75,1.32-2.63,1.47-2.86c2.18-3.42,4.45-10.09,4.33-10.14c-0.07-0.03-0.88,2.33-2.79,5.65c-2.24,3.91-4.53,6.59-5.65,7.89
		c-0.45,0.52-1.41,1.51-3.33,3.48c-0.12,0.12-1.71,1.75-1.86,1.63c-0.13-0.11,1.01-1.3,0.7-1.78c-0.3-0.45-1.7-0.04-2.09,0.08
		c-1.37,0.41-2.16,1.1-2.24,1.01c-0.17-0.2,2.01-2.17,2.01-2.17c4.82-4.33,6.37-15.21,6.5-16.17c1.6-11.84-2.06-23.13-3.64-23.06
		c-0.16,0.01-0.18,0.12-0.77,0.62c-1.24,1.03-2.37,1.54-3.25,1.93c-2.2,0.99-4.64,1.4-4.72,1.16c-0.06-0.18,1.23-0.59,3.33-1.78
		c2.66-1.51,3.99-2.27,4.88-3.71c1.57-2.57,0.83-5.79,0.7-5.8c-0.07-0.01-0.11,0.79-0.54,2.24c-0.25,0.82-0.68,2.28-1.08,2.24
		c-0.18-0.01-0.24-0.33-0.85-1.7c-0.37-0.82-0.46-0.96-0.62-1.01c-0.46-0.13-0.96,0.72-1.63,1.47c-1.13,1.28-2.37,1.86-4.02,2.63
		c-1.72,0.81-3.56,1.27-3.64,1.08c-0.08-0.2,1.89-0.89,4.33-2.71c1.59-1.19,3.08-2.29,4.1-4.26c1.28-2.47,1.19-5.07,1.01-5.11
		c-0.17-0.04-0.88,1.91-1.01,2.24c-0.33,0.89-0.42,1.31-0.62,1.32c-0.3,0.01-0.37-1.02-1.16-2.32c-0.35-0.58-0.84-1.37-1.32-1.32
		c-0.51,0.06-0.69,1.02-1.01,1.86c-0.71,1.87-2.03,2.91-4.33,4.72c-2.09,1.65-4.23,2.7-4.33,2.55c-0.1-0.15,2.06-1.33,4.26-3.87
		c1.92-2.23,2.86-4.32,3.1-4.88c1.72-4.02,1.62-7.93,1.39-7.97c-0.16-0.03-0.72,1.66-1.01,2.63c-0.28,0.96-0.37,1.52-0.62,1.55
		c-0.3,0.03-0.54-0.73-0.93-1.47c-0.38-0.73-0.82-1.24-2.48-2.79c-2.71-2.52-4.49-3.95-4.49-3.95c-2.5-2.01-4.94-3.97-8.28-6.35
		c-1.92-1.36-1.72-1.15-4.74-3.24c-0.55-0.38-1.13-0.71-1.68-1.09c-1.44-0.99-1.91-1.47-2.48-1.32c-0.66,0.18-0.97,1.07-1.08,1.01
		c-0.13-0.07,0.51-1.01,0.15-1.55c-0.09-0.13-0.16-0.12-1.01-0.46c-0.75-0.31-0.9-0.4-1.08-0.31c-0.25,0.12-0.4,0.51-0.31,0.77
		c0.16,0.44,0.94,0.47,0.93,0.54c-0.02,0.1-1.36,0.32-2.01-0.39c-0.49-0.54-0.11-1.09-0.62-1.86c-0.49-0.74-1.45-1.15-1.7-0.93
		c-0.31,0.27,0.4,1.54,0.62,1.93c0.36,0.64,0.71,1.28,1.39,1.78c1.27,0.94,2.79,0.72,2.79,0.85c0,0.1-1.02,0.36-2.17,0.08
		c-1.71-0.42-2.75-1.79-3.25-2.48c-1.04-1.42-0.62-1.74-1.47-2.71c-0.67-0.76-1.34-1.02-4.02-2.01c-2.45-0.9-3.68-1.35-4.26-1.55
		c-2.68-0.9-4.7-1.53-5.49-1.78C12.88,2.74,12,2.25,9.6,2.29C6.47,2.34,5.18,3.24,4.73,3.6c-1.69,1.34-2.3,3.45-2.4,3.79
		C1.92,8.87,2.14,9.84,1.94,9.87z M87.3,55.22c0.05,0.86,0.07,1.29,0.31,2.17c0.3,1.13,0.54,3.05,1.01,6.89
		c0.65,5.33-0.6,9.34-0.46,9.36c0.16,0.02,1.53-5.33,1.32-10.45c-0.11-2.59-0.57-3.85-0.62-6.11c0-0.16-0.02-0.91-0.31-1.83
		c-0.28-0.87-0.82-1.88-1.08-1.81C87.2,53.51,87.26,54.55,87.3,55.22z M91.63,78.75c-0.1-0.04-0.56,0.84-1.08,1.86
		c-1.08,2.09-1.32,2.78-2.24,4.64c-1.07,2.16-1.2,2.13-1.16,2.48c0.18,1.66,2.99,1.92,7.3,4.14c1.01,0.52,4.65,2.45,8.18,5.84
		c1.94,1.86,3.03,3.38,3.1,3.33c0.09-0.07-1.75-2.96-4.72-5.73c-0.54-0.5-2.55-2.34-5.69-4.22c-4.01-2.41-5.38-2.21-5.84-3.67
		c-0.28-0.89,0.33-2.76,1.55-6.5C91.36,79.84,91.74,78.79,91.63,78.75z M67.6,23.59c4.41,4.12,7.68,7.17,10.92,11.76
		c4.44,6.3,6.3,11.92,6.46,11.84c0.25-0.12-1.33-4.95-4.15-9.84c-4.39-7.6-10.04-12.31-15.38-16.68c-3.8-3.11-7.3-5.49-7.38-5.38
		C57.97,15.41,62.19,18.54,67.6,23.59z M85.05,23.82c-4.26,1.09-6.23,1.08-6.46,2.08c-0.16,0.7,0.73,1.05,1.85,2.61
		c2.13,3.01,2.07,6.27,2.31,6.23c0.16-0.03,0.21-1.53-0.15-3.31c-0.69-3.4-2.14-4.13-1.67-5.3c0.45-1.13,1.97-0.84,6.52-2.54
		c1.54-0.58,3.19-1.29,3.15-1.38C90.55,22.1,88.37,22.97,85.05,23.82z M15.4,1.36c0.04-0.13-0.56-0.47-1.1-0.67
		c-0.76-0.29-1.41-0.33-1.56-0.33C9.86,0.22,7.1,0.52,7.1,0.52C3.89,0.87,2.15,0.89,2.16,0.96c0,0.08,2.15-0.03,6.18,0.05
		c1.23,0.02,3.24,0.07,4.46,0.2c0.47,0.05,0.94,0.07,1.42,0.11C15.08,1.4,15.37,1.44,15.4,1.36z"/>
</g>
</svg>
