<?xml version="1.0" encoding="utf-8"?>
<!-- Generator: Adobe Illustrator 23.0.2, SVG Export Plug-In . SVG Version: 6.00 Build 0)  -->
<svg version="1.1" id="Layer_1" xmlns="http://www.w3.org/2000/svg" xmlns:xlink="http://www.w3.org/1999/xlink" x="0px" y="0px"
	 viewBox="0 0 150 149.18" style="enable-background:new 0 0 150 149.18;" xml:space="preserve">
<style type="text/css">
	.st0{fill:none;}
	.st1{fill:none;stroke:#FFFFFF;stroke-miterlimit:10;}
	.st2{fill:#FFFFFF;}
	.st3{fill:none;stroke:#FFFFFF;stroke-width:2;stroke-miterlimit:10;}
</style>
<g>
	<ellipse class="st0" cx="75.18" cy="74.74" rx="74.75" ry="74.75"/>
	<path class="st1" d="M40.36,49.36c15.96,0,31.48,0,31.48,0v31.73c-1.47,0.65-1.8,1.21-1.81,1.61c-0.02,0.81,1.24,1.2,1.56,2.72
		c0.05,0.25,0.06,0.41,0.06,0.93c0.01,2.22,0.02,3.34,0,3.64c-0.18,2.8-2.9,3.78-3.12,6.19c-0.24,2.55,2.38,6.42,6.24,6.47
		c3.86,0.06,6.61-3.71,6.42-6.24c-0.18-2.43-3.04-3.44-3.24-6.36c-0.04-0.68,0.01-2.2,0.12-3.53c0.06-0.77,0.11-0.96,0.17-1.16
		c0.48-1.46,1.69-1.74,1.74-2.54c0.02-0.43-0.28-1.04-1.77-1.85c0,0,0-31.73,0.01-31.74c0,0,13.83,0,28.8,0"/>
	<g>
		<g>
			<path class="st2" d="M26.75,21.92c27.87,0,55.73,0,83.6,0c4.02,0,8.05,0,12.07,0c1.29,0,1.29-2,0-2c-27.87,0-55.73,0-83.6,0
				c-4.02,0-8.05,0-12.07,0C25.46,19.92,25.46,21.92,26.75,21.92L26.75,21.92z"/>
		</g>
	</g>
	<g>
		<g>
			<path class="st2" d="M52.38,31.51c15.92,0,31.84,0,47.77,0c1.29,0,1.29-2,0-2c-15.92,0-31.84,0-47.77,0
				C51.1,29.51,51.09,31.51,52.38,31.51L52.38,31.51z"/>
		</g>
	</g>
	<g>
		<g>
			<path class="st2" d="M41.73,40.68c22.11,0,44.22,0,66.32,0c1.29,0,1.29-2,0-2c-22.11,0-44.22,0-66.32,0
				C40.44,38.68,40.44,40.68,41.73,40.68L41.73,40.68z"/>
		</g>
	</g>
	<path class="st2" d="M136.87,84.07c-0.77,0.96-1.13,1.75-2.57,6.34c-1.44,4.61-2.4,8.08-3.17,10.87c-1.42,5.14-1.75,6.49-2.11,8.46
		c-0.61,3.33-0.72,5.35-0.76,6.19c-0.11,2.66,0.1,4.53,0.3,6.34c0.22,1.93,0.33,2.9,0.6,3.02c1.72,0.76,7.81-9.13,11.18-15.4
		c0,0,4.18-7.8,6.95-17.37c0.59-2.05,0.8-3.79,1.21-7.25c0.45-3.81,0.3-4.97-0.45-5.59c-0.95-0.78-2.45-0.35-4.23,0.15
		C142.41,80.24,139.21,81.14,136.87,84.07z"/>
	<path class="st2" d="M78.62-0.17C89.09,0.51,94.6,2.67,94.6,2.67c4.66,1.29,11.46,3.22,19.48,8c8.07,4.82,13.29,10.09,15.56,12.53
		c6.2,6.68,9.43,12.83,11.78,17.37c0.61,1.18,5.39,10.59,7.7,23.71c1.11,6.28,1,9.7-1.06,11.48c-1.88,1.62-4.84,1.4-7.4,1.21
		c-2.43-0.18-4.84-0.81-8.31-2.42c-5.12-2.37-8.66-5.07-10.12-6.19c-10.44-8.05-15.66-12.07-17.37-13.74
		c-2.24-2.19-7.68-7.7-13.29-15.86C89.69,36,87.15,31.33,82.07,22c0,0-1.13-2.08-5.74-13.44c-1.28-3.15-2.49-6.26-1.12-7.82
		C76.12-0.31,77.8-0.22,78.62-0.17z M107.04,26.22c-0.95,0.43,2.41,12.43,9.51,24.01c2.01,3.28,3.76,5.56,7.25,10.12
		c0,0,3.46,4.52,14.05,14.2c0.46,0.42,2.11,1.89,4.53,2.27c0.48,0.07,2.53,0.39,3.02-0.45c0.61-1.05-1.49-3.35-2.87-4.83
		c-5.55-5.97-8.32-8.96-13.44-14.35c-2.54-2.68-4.21-4.86-7.55-9.21C111.42,34.78,107.87,25.85,107.04,26.22z"/>
	<path class="st2" d="M144.81,74.4c-8.25,1.97-8.77,3.1-8.91,3.62c-0.26,0.94,0.1,1.96,0.6,2.57c0.8,0.98,2.01,0.98,5.44,1.06
		c5.87,0.13,6.76,0.21,7.4-0.6c0.44-0.56,0.49-1.63,0.6-3.78c0.09-1.69,0.12-2.55-0.3-3.02C148.99,73.53,147.71,73.71,144.81,74.4z"
		/>
	<path class="st2" d="M12.74,84.12c0.77,0.96,1.13,1.75,2.57,6.34c1.44,4.61,2.4,8.08,3.17,10.87c1.42,5.14,1.75,6.49,2.11,8.46
		c0.61,3.33,0.72,5.35,0.76,6.19c0.11,2.66-0.1,4.53-0.3,6.34c-0.22,1.93-0.33,2.9-0.6,3.02c-1.72,0.76-7.81-9.13-11.18-15.4
		c0,0-4.18-7.8-6.95-17.37c-0.59-2.05-0.8-3.79-1.21-7.25c-0.45-3.81-0.3-4.97,0.45-5.59c0.95-0.78,2.45-0.35,4.23,0.15
		C7.2,80.29,10.4,81.2,12.74,84.12z"/>
	<path class="st2" d="M74.97-0.14c1.37,0.94,0.28,4.67-0.91,8.75c-1.04,3.57-3.05,8.06-5.74,13.44c0,0,0,0,0,0
		c-5.08,9.34-7.62,14-9.51,16.76c-5.61,8.16-11.05,13.67-13.29,15.86c-1.71,1.67-6.93,5.69-17.37,13.74
		c-1.46,1.13-5,3.82-10.12,6.19c-3.46,1.6-5.87,2.23-8.31,2.42c-2.56,0.19-5.52,0.41-7.4-1.21c-2.06-1.77-2.17-5.2-1.06-11.48
		c2.31-13.12,7.09-22.53,7.7-23.71c2.35-4.54,5.58-10.68,11.78-17.37c2.27-2.45,7.49-7.72,15.56-12.53c4.76-2.84,9.67-4.55,19.48-8
		c3.12-1.1,7.28-2.47,10.85-2.52c1.31-0.02,2.65,0.13,5.06-0.14C73.86-0.2,74.42-0.51,74.97-0.14z M27.69,48.03
		c-3.34,4.36-5.01,6.53-7.55,9.21c-5.12,5.39-7.89,8.37-13.44,14.35c-1.38,1.49-3.48,3.79-2.87,4.83c0.5,0.84,2.54,0.53,3.02,0.45
		c2.42-0.38,4.07-1.84,4.53-2.27c10.59-9.68,14.04-14.2,14.05-14.2c3.49-4.56,5.24-6.84,7.25-10.12
		c7.1-11.58,10.46-23.59,9.51-24.01C41.35,25.9,37.81,34.83,27.69,48.03z"/>
	<path class="st2" d="M5.19,74.46c8.25,1.97,8.77,3.1,8.91,3.62c0.26,0.94-0.1,1.96-0.6,2.57c-0.8,0.98-2.01,0.98-5.44,1.06
		c-5.87,0.13-6.76,0.21-7.4-0.6c-0.44-0.56-0.49-1.63-0.6-3.78c-0.09-1.69-0.12-2.55,0.3-3.02C1.01,73.58,2.29,73.77,5.19,74.46z"/>
	<ellipse class="st3" cx="75.17" cy="74.61" rx="74.75" ry="74.75"/>
</g>
</svg>
